<svg version="1.1" viewBox="0.0 0.0 600.0 371.0" fill="none" stroke="none" stroke-linecap="square" stroke-miterlimit="10" width="600" height="371" xmlns:xlink="http://www.w3.org/1999/xlink" xmlns="http://www.w3.org/2000/svg"><path fill="#ffffff" d="M0 0L600.0 0L600.0 371.0L0 371.0L0 0Z" fill-rule="nonzero"/><path stroke="#cccccc" stroke-width="1.0" stroke-linecap="butt" d="M127.5 88.5L127.5 300.5" fill-rule="nonzero"/><path stroke="#cccccc" stroke-width="1.0" stroke-linecap="butt" d="M241.5 88.5L241.5 300.5" fill-rule="nonzero"/><path stroke="#cccccc" stroke-width="1.0" stroke-linecap="butt" d="M354.5 88.5L354.5 300.5" fill-rule="nonzero"/><path stroke="#cccccc" stroke-width="1.0" stroke-linecap="butt" d="M468.5 88.5L468.5 300.5" fill-rule="nonzero"/><path stroke="#cccccc" stroke-width="1.0" stroke-linecap="butt" d="M581.5 88.5L581.5 300.5" fill-rule="nonzero"/><path stroke="#333333" stroke-width="1.0" stroke-linecap="butt" d="M48.5 300.5L581.5 300.5" fill-rule="nonzero"/><path stroke="#cccccc" stroke-width="1.0" stroke-linecap="butt" d="M48.5 247.5L581.5 247.5" fill-rule="nonzero"/><path stroke="#cccccc" stroke-width="1.0" stroke-linecap="butt" d="M48.5 194.5L581.5 194.5" fill-rule="nonzero"/><path stroke="#cccccc" stroke-width="1.0" stroke-linecap="butt" d="M48.5 141.5L581.5 141.5" fill-rule="nonzero"/><path stroke="#cccccc" stroke-width="1.0" stroke-linecap="butt" d="M48.5 88.5L581.5 88.5" fill-rule="nonzero"/><clipPath id="id_0"><path d="M48.55 88.28333L581.45 88.28333L581.45 300.45L48.55 300.45L48.55 88.28333Z" clip-rule="nonzero"/></clipPath><path stroke="#4285f4" stroke-width="2.0" stroke-linecap="butt" clip-path="url(#id_0)" d="M48.55 158.29834L82.564896 124.35167L127.91808 130.71666L161.93298 185.88L195.94788 166.785L241.30107 226.19167L275.31595 171.02834L309.33084 177.39333L354.68405 173.15L388.69894 190.12334L422.71384 171.02834L468.06702 179.515L502.0819 196.48833L536.0968 162.54167L581.45 190.12334" fill-rule="nonzero"/><path stroke="#ea4335" stroke-width="2.0" stroke-linecap="butt" clip-path="url(#id_0)" d="M48.55 158.29834L82.564896 158.29834L127.91808 109.5L161.93298 120.10833L195.94788 113.74333L241.30107 98.89167L275.31595 96.77L309.33084 96.77L354.68405 166.785L388.69894 101.013336L422.71384 105.25667L468.06702 162.54167L502.0819 143.44667L536.0968 103.135L581.45 147.69" fill-rule="nonzero"/><path fill="#000000" fill-opacity="0.0" clip-path="url(#id_0)" d="M51.55 158.29834C51.55 159.95518 50.206856 161.29834 48.55 161.29834C46.893147 161.29834 45.55 159.95518 45.55 158.29834C45.55 156.64148 46.893147 155.29834 48.55 155.29834C50.206856 155.29834 51.55 156.64148 51.55 158.29834Z" fill-rule="nonzero"/><path fill="#000000" fill-opacity="0.0" clip-path="url(#id_0)" d="M85.564896 124.35167C85.564896 126.00852 84.22175 127.35167 82.564896 127.35167C80.90804 127.35167 79.564896 126.00852 79.564896 124.35167C79.564896 122.69481 80.90804 121.35167 82.564896 121.35167C84.22175 121.35167 85.564896 122.69481 85.564896 124.35167Z" fill-rule="nonzero"/><path fill="#000000" fill-opacity="0.0" clip-path="url(#id_0)" d="M130.91809 130.71666C130.91809 132.37352 129.57494 133.71666 127.91808 133.71666C126.26123 133.71666 124.91808 132.37352 124.91808 130.71666C124.91808 129.05981 126.26123 127.71667 127.91808 127.71667C129.57494 127.71667 130.91809 129.05981 130.91809 130.71666Z" fill-rule="nonzero"/><path fill="#000000" fill-opacity="0.0" clip-path="url(#id_0)" d="M164.93298 185.88C164.93298 187.53685 163.58983 188.88 161.93298 188.88C160.27612 188.88 158.93298 187.53685 158.93298 185.88C158.93298 184.22314 160.27612 182.88 161.93298 182.88C163.58983 182.88 164.93298 184.22314 164.93298 185.88Z" fill-rule="nonzero"/><path fill="#000000" fill-opacity="0.0" clip-path="url(#id_0)" d="M198.94788 166.785C198.94788 168.44185 197.60472 169.785 195.94788 169.785C194.29102 169.785 192.94788 168.44185 192.94788 166.785C192.94788 165.12814 194.29102 163.785 195.94788 163.785C197.60472 163.785 198.94788 165.12814 198.94788 166.785Z" fill-rule="nonzero"/><path fill="#000000" fill-opacity="0.0" clip-path="url(#id_0)" d="M244.30107 226.19167C244.30107 227.84853 242.95792 229.19167 241.30107 229.19167C239.64421 229.19167 238.30107 227.84853 238.30107 226.19167C238.30107 224.5348 239.64421 223.19167 241.30107 223.19167C242.95792 223.19167 244.30107 224.5348 244.30107 226.19167Z" fill-rule="nonzero"/><path fill="#000000" fill-opacity="0.0" clip-path="url(#id_0)" d="M278.31595 171.02834C278.31595 172.68518 276.9728 174.02834 275.31595 174.02834C273.6591 174.02834 272.31595 172.68518 272.31595 171.02834C272.31595 169.37148 273.6591 168.02834 275.31595 168.02834C276.9728 168.02834 278.31595 169.37148 278.31595 171.02834Z" fill-rule="nonzero"/><path fill="#000000" fill-opacity="0.0" clip-path="url(#id_0)" d="M312.33084 177.39333C312.33084 179.05019 310.9877 180.39333 309.33084 180.39333C307.674 180.39333 306.33084 179.05019 306.33084 177.39333C306.33084 175.73648 307.674 174.39333 309.33084 174.39333C310.9877 174.39333 312.33084 175.73648 312.33084 177.39333Z" fill-rule="nonzero"/><path fill="#000000" fill-opacity="0.0" clip-path="url(#id_0)" d="M357.68405 173.15C357.68405 174.80685 356.3409 176.15 354.68405 176.15C353.0272 176.15 351.68405 174.80685 351.68405 173.15C351.68405 171.49315 353.0272 170.15 354.68405 170.15C356.3409 170.15 357.68405 171.49315 357.68405 173.15Z" fill-rule="nonzero"/><path fill="#000000" fill-opacity="0.0" clip-path="url(#id_0)" d="M391.69894 190.12334C391.69894 191.78018 390.3558 193.12334 388.69894 193.12334C387.04208 193.12334 385.69894 191.78018 385.69894 190.12334C385.69894 188.46648 387.04208 187.12334 388.69894 187.12334C390.3558 187.12334 391.69894 188.46648 391.69894 190.12334Z" fill-rule="nonzero"/><path fill="#000000" fill-opacity="0.0" clip-path="url(#id_0)" d="M425.71384 171.02834C425.71384 172.68518 424.3707 174.02834 422.71384 174.02834C421.05698 174.02834 419.71384 172.68518 419.71384 171.02834C419.71384 169.37148 421.05698 168.02834 422.71384 168.02834C424.3707 168.02834 425.71384 169.37148 425.71384 171.02834Z" fill-rule="nonzero"/><path fill="#000000" fill-opacity="0.0" clip-path="url(#id_0)" d="M471.06702 179.515C471.06702 181.17186 469.72388 182.515 468.06702 182.515C466.41016 182.515 465.06702 181.17186 465.06702 179.515C465.06702 177.85814 466.41016 176.515 468.06702 176.515C469.72388 176.515 471.06702 177.85814 471.06702 179.515Z" fill-rule="nonzero"/><path fill="#000000" fill-opacity="0.0" clip-path="url(#id_0)" d="M505.0819 196.48833C505.0819 198.14519 503.73877 199.48833 502.0819 199.48833C500.42505 199.48833 499.0819 198.14519 499.0819 196.48833C499.0819 194.83148 500.42505 193.48833 502.0819 193.48833C503.73877 193.48833 505.0819 194.83148 505.0819 196.48833Z" fill-rule="nonzero"/><path fill="#000000" fill-opacity="0.0" clip-path="url(#id_0)" d="M539.0968 162.54167C539.0968 164.19852 537.75366 165.54167 536.0968 165.54167C534.43994 165.54167 533.0968 164.19852 533.0968 162.54167C533.0968 160.88481 534.43994 159.54167 536.0968 159.54167C537.75366 159.54167 539.0968 160.88481 539.0968 162.54167Z" fill-rule="nonzero"/><path fill="#000000" fill-opacity="0.0" clip-path="url(#id_0)" d="M584.45 190.12334C584.45 191.78018 583.1069 193.12334 581.45 193.12334C579.79315 193.12334 578.45 191.78018 578.45 190.12334C578.45 188.46648 579.79315 187.12334 581.45 187.12334C583.1069 187.12334 584.45 188.46648 584.45 190.12334Z" fill-rule="nonzero"/><path fill="#000000" fill-opacity="0.0" clip-path="url(#id_0)" d="M51.55 158.29834C51.55 159.95518 50.206856 161.29834 48.55 161.29834C46.893147 161.29834 45.55 159.95518 45.55 158.29834C45.55 156.64148 46.893147 155.29834 48.55 155.29834C50.206856 155.29834 51.55 156.64148 51.55 158.29834Z" fill-rule="nonzero"/><path fill="#000000" fill-opacity="0.0" clip-path="url(#id_0)" d="M85.564896 158.29834C85.564896 159.95518 84.22175 161.29834 82.564896 161.29834C80.90804 161.29834 79.564896 159.95518 79.564896 158.29834C79.564896 156.64148 80.90804 155.29834 82.564896 155.29834C84.22175 155.29834 85.564896 156.64148 85.564896 158.29834Z" fill-rule="nonzero"/><path fill="#000000" fill-opacity="0.0" clip-path="url(#id_0)" d="M130.91809 109.5C130.91809 111.15685 129.57494 112.5 127.91808 112.5C126.26123 112.5 124.91808 111.15685 124.91808 109.5C124.91808 107.84315 126.26123 106.5 127.91808 106.5C129.57494 106.5 130.91809 107.84315 130.91809 109.5Z" fill-rule="nonzero"/><path fill="#000000" fill-opacity="0.0" clip-path="url(#id_0)" d="M164.93298 120.10833C164.93298 121.76519 163.58983 123.10833 161.93298 123.10833C160.27612 123.10833 158.93298 121.76519 158.93298 120.10833C158.93298 118.45148 160.27612 117.10833 161.93298 117.10833C163.58983 117.10833 164.93298 118.45148 164.93298 120.10833Z" fill-rule="nonzero"/><path fill="#000000" fill-opacity="0.0" clip-path="url(#id_0)" d="M198.94788 113.74333C198.94788 115.400185 197.60472 116.74333 195.94788 116.74333C194.29102 116.74333 192.94788 115.400185 192.94788 113.74333C192.94788 112.08648 194.29102 110.74333 195.94788 110.74333C197.60472 110.74333 198.94788 112.08648 198.94788 113.74333Z" fill-rule="nonzero"/><path fill="#000000" fill-opacity="0.0" clip-path="url(#id_0)" d="M244.30107 98.89167C244.30107 100.54852 242.95792 101.89167 241.30107 101.89167C239.64421 101.89167 238.30107 100.54852 238.30107 98.89167C238.30107 97.23481 239.64421 95.89167 241.30107 95.89167C242.95792 95.89167 244.30107 97.23481 244.30107 98.89167Z" fill-rule="nonzero"/><path fill="#000000" fill-opacity="0.0" clip-path="url(#id_0)" d="M278.31595 96.77C278.31595 98.42686 276.9728 99.77 275.31595 99.77C273.6591 99.77 272.31595 98.42686 272.31595 96.77C272.31595 95.113144 273.6591 93.77 275.31595 93.77C276.9728 93.77 278.31595 95.113144 278.31595 96.77Z" fill-rule="nonzero"/><path fill="#000000" fill-opacity="0.0" clip-path="url(#id_0)" d="M312.33084 96.77C312.33084 98.42686 310.9877 99.77 309.33084 99.77C307.674 99.77 306.33084 98.42686 306.33084 96.77C306.33084 95.113144 307.674 93.77 309.33084 93.77C310.9877 93.77 312.33084 95.113144 312.33084 96.77Z" fill-rule="nonzero"/><path fill="#000000" fill-opacity="0.0" clip-path="url(#id_0)" d="M357.68405 166.785C357.68405 168.44185 356.3409 169.785 354.68405 169.785C353.0272 169.785 351.68405 168.44185 351.68405 166.785C351.68405 165.12814 353.0272 163.785 354.68405 163.785C356.3409 163.785 357.68405 165.12814 357.68405 166.785Z" fill-rule="nonzero"/><path fill="#000000" fill-opacity="0.0" clip-path="url(#id_0)" d="M391.69894 101.013336C391.69894 102.67019 390.3558 104.013336 388.69894 104.013336C387.04208 104.013336 385.69894 102.67019 385.69894 101.013336C385.69894 99.356476 387.04208 98.013336 388.69894 98.013336C390.3558 98.013336 391.69894 99.356476 391.69894 101.013336Z" fill-rule="nonzero"/><path fill="#000000" fill-opacity="0.0" clip-path="url(#id_0)" d="M425.71384 105.25667C425.71384 106.91352 424.3707 108.25667 422.71384 108.25667C421.05698 108.25667 419.71384 106.91352 419.71384 105.25667C419.71384 103.599815 421.05698 102.25667 422.71384 102.25667C424.3707 102.25667 425.71384 103.599815 425.71384 105.25667Z" fill-rule="nonzero"/><path fill="#000000" fill-opacity="0.0" clip-path="url(#id_0)" d="M471.06702 162.54167C471.06702 164.19852 469.72388 165.54167 468.06702 165.54167C466.41016 165.54167 465.06702 164.19852 465.06702 162.54167C465.06702 160.88481 466.41016 159.54167 468.06702 159.54167C469.72388 159.54167 471.06702 160.88481 471.06702 162.54167Z" fill-rule="nonzero"/><path fill="#000000" fill-opacity="0.0" clip-path="url(#id_0)" d="M505.0819 143.44667C505.0819 145.10352 503.73877 146.44667 502.0819 146.44667C500.42505 146.44667 499.0819 145.10352 499.0819 143.44667C499.0819 141.78981 500.42505 140.44667 502.0819 140.44667C503.73877 140.44667 505.0819 141.78981 505.0819 143.44667Z" fill-rule="nonzero"/><path fill="#000000" fill-opacity="0.0" clip-path="url(#id_0)" d="M539.0968 103.135C539.0968 104.791855 537.75366 106.135 536.0968 106.135C534.43994 106.135 533.0968 104.791855 533.0968 103.135C533.0968 101.47815 534.43994 100.135 536.0968 100.135C537.75366 100.135 539.0968 101.47815 539.0968 103.135Z" fill-rule="nonzero"/><path fill="#000000" fill-opacity="0.0" clip-path="url(#id_0)" d="M584.45 147.69C584.45 149.34685 583.1069 150.69 581.45 150.69C579.79315 150.69 578.45 149.34685 578.45 147.69C578.45 146.03314 579.79315 144.69 581.45 144.69C583.1069 144.69 584.45 146.03314 584.45 147.69Z" fill-rule="nonzero"/><path fill="#000000" d="M279.29688 349.45L279.29688 343.23126L280.23438 343.23126L280.23438 344.10626Q280.92188 343.09064 282.21875 343.09064Q282.78125 343.09064 283.25 343.29376Q283.73438 343.4969 283.96875 343.825Q284.20312 344.15314 284.29688 344.59064Q284.34375 344.8875 284.34375 345.6219L284.34375 349.45L283.29688 349.45L283.29688 345.66876Q283.29688 345.0125 283.17188 344.7Q283.04688 344.3875 282.73438 344.2Q282.42188 343.9969 282.0 343.9969Q281.32812 343.9969 280.82812 344.4344Q280.34375 344.85626 280.34375 346.04376L280.34375 349.45L279.29688 349.45ZM290.375 349.45L290.375 348.52814Q289.64062 349.59064 288.39062 349.59064Q287.84375 349.59064 287.35938 349.3875Q286.89062 349.16876 286.65625 348.85626Q286.42188 348.52814 286.32812 348.0594Q286.26562 347.7625 286.26562 347.075L286.26562 343.23126L287.32812 343.23126L287.32812 346.6844Q287.32812 347.4969 287.39062 347.79376Q287.48438 348.2 287.79688 348.45Q288.125 348.6844 288.60938 348.6844Q289.07812 348.6844 289.48438 348.45Q289.90625 348.2 290.07812 347.77814Q290.26562 347.35626 290.26562 346.5594L290.26562 343.23126L291.3125 343.23126L291.3125 349.45L290.375 349.45ZM293.29688 349.45L293.29688 343.23126L294.23438 343.23126L294.23438 344.10626Q294.53125 343.6375 295.01562 343.3719Q295.5 343.09064 296.125 343.09064Q296.8125 343.09064 297.25 343.3719Q297.70312 343.65314 297.875 344.16876Q298.625 343.09064 299.79688 343.09064Q300.73438 343.09064 301.21875 343.60626Q301.71875 344.10626 301.71875 345.1844L301.71875 349.45L300.67188 349.45L300.67188 345.52814Q300.67188 344.90314 300.5625 344.6219Q300.46875 344.34064 300.20312 344.16876Q299.9375 343.9969 299.5625 343.9969Q298.90625 343.9969 298.46875 344.4344Q298.04688 344.8719 298.04688 345.84064L298.04688 349.45L296.98438 349.45L296.98438 345.40314Q296.98438 344.7 296.71875 344.35626Q296.46875 343.9969 295.89062 343.9969Q295.4375 343.9969 295.0625 344.23126Q294.6875 344.46564 294.51562 344.91876Q294.34375 345.3719 294.34375 346.21564L294.34375 349.45L293.29688 349.45ZM305.875 347.59064L306.90625 347.4344Q307.0 348.0594 307.39062 348.3875Q307.79688 348.71564 308.53125 348.71564Q309.25 348.71564 309.59375 348.4344Q309.95312 348.1375 309.95312 347.73126Q309.95312 347.3719 309.64062 347.16876Q309.42188 347.02814 308.5625 346.8094Q307.40625 346.5125 306.95312 346.3094Q306.51562 346.09064 306.28125 345.71564Q306.04688 345.34064 306.04688 344.8719Q306.04688 344.46564 306.23438 344.10626Q306.42188 343.7469 306.75 343.5125Q307.0 343.34064 307.42188 343.21564Q307.84375 343.09064 308.34375 343.09064Q309.0625 343.09064 309.60938 343.3094Q310.17188 343.5125 310.4375 343.8719Q310.70312 344.23126 310.79688 344.825L309.76562 344.96564Q309.70312 344.4969 309.35938 344.23126Q309.03125 343.95 308.40625 343.95Q307.6875 343.95 307.375 344.2Q307.0625 344.4344 307.0625 344.7625Q307.0625 344.96564 307.1875 345.1219Q307.32812 345.29376 307.59375 345.40314Q307.75 345.46564 308.53125 345.66876Q309.65625 345.98126 310.09375 346.16876Q310.53125 346.35626 310.78125 346.71564Q311.03125 347.075 311.03125 347.6219Q311.03125 348.15314 310.71875 348.6219Q310.42188 349.075 309.84375 349.34064Q309.26562 349.59064 308.53125 349.59064Q307.3125 349.59064 306.67188 349.09064Q306.04688 348.575 305.875 347.59064ZM316.35938 348.6844Q315.76562 349.1844 315.21875 349.3875Q314.6875 349.59064 314.0625 349.59064Q313.03125 349.59064 312.48438 349.09064Q311.9375 348.59064 311.9375 347.8094Q311.9375 347.35626 312.14062 346.98126Q312.34375 346.59064 312.6875 346.3719Q313.03125 346.1375 313.45312 346.02814Q313.75 345.9344 314.39062 345.85626Q315.65625 345.71564 316.26562 345.4969Q316.26562 345.27814 316.26562 345.23126Q316.26562 344.575 315.96875 344.3094Q315.5625 343.96564 314.76562 343.96564Q314.03125 343.96564 313.67188 344.23126Q313.3125 344.48126 313.14062 345.1375L312.10938 344.9969Q312.25 344.34064 312.57812 343.9344Q312.90625 343.52814 313.51562 343.3094Q314.125 343.09064 314.92188 343.09064Q315.71875 343.09064 316.21875 343.27814Q316.71875 343.46564 316.95312 343.7469Q317.1875 344.02814 317.28125 344.46564Q317.32812 344.73126 317.32812 345.4344L317.32812 346.84064Q317.32812 348.3094 317.39062 348.7Q317.46875 349.09064 317.67188 349.45L316.5625 349.45Q316.40625 349.1219 316.35938 348.6844ZM316.26562 346.325Q315.6875 346.5594 314.54688 346.73126Q313.89062 346.825 313.625 346.95Q313.35938 347.0594 313.20312 347.27814Q313.0625 347.4969 313.0625 347.77814Q313.0625 348.2 313.375 348.48126Q313.70312 348.7625 314.3125 348.7625Q314.92188 348.7625 315.39062 348.4969Q315.875 348.23126 316.09375 347.7625Q316.26562 347.40314 316.26562 346.71564L316.26562 346.325ZM319.29688 349.45L319.29688 343.23126L320.23438 343.23126L320.23438 344.10626Q320.53125 343.6375 321.01562 343.3719Q321.5 343.09064 322.125 343.09064Q322.8125 343.09064 323.25 343.3719Q323.70312 343.65314 323.875 344.16876Q324.625 343.09064 325.79688 343.09064Q326.73438 343.09064 327.21875 343.60626Q327.71875 344.10626 327.71875 345.1844L327.71875 349.45L326.67188 349.45L326.67188 345.52814Q326.67188 344.90314 326.5625 344.6219Q326.46875 344.34064 326.20312 344.16876Q325.9375 343.9969 325.5625 343.9969Q324.90625 343.9969 324.46875 344.4344Q324.04688 344.8719 324.04688 345.84064L324.04688 349.45L322.98438 349.45L322.98438 345.40314Q322.98438 344.7 322.71875 344.35626Q322.46875 343.9969 321.89062 343.9969Q321.4375 343.9969 321.0625 344.23126Q320.6875 344.46564 320.51562 344.91876Q320.34375 345.3719 320.34375 346.21564L320.34375 349.45L319.29688 349.45ZM329.29688 351.84064L329.29688 343.23126L330.25 343.23126L330.25 344.02814Q330.59375 343.5594 331.01562 343.325Q331.45312 343.09064 332.0625 343.09064Q332.85938 343.09064 333.46875 343.4969Q334.07812 343.90314 334.375 344.65314Q334.6875 345.40314 334.6875 346.29376Q334.6875 347.2469 334.34375 348.0125Q334.01562 348.77814 333.35938 349.1844Q332.70312 349.59064 331.98438 349.59064Q331.45312 349.59064 331.03125 349.3719Q330.60938 349.1375 330.34375 348.8094L330.34375 351.84064L329.29688 351.84064ZM330.25 346.3719Q330.25 347.575 330.73438 348.15314Q331.21875 348.71564 331.90625 348.71564Q332.60938 348.71564 333.10938 348.1219Q333.60938 347.52814 333.60938 346.27814Q333.60938 345.09064 333.125 344.5125Q332.64062 343.91876 331.95312 343.91876Q331.28125 343.91876 330.76562 344.54376Q330.25 345.16876 330.25 346.3719ZM336.26562 349.45L336.26562 340.85626L337.32812 340.85626L337.32812 349.45L336.26562 349.45ZM343.54688 347.45L344.64062 347.575Q344.39062 348.52814 343.6875 349.0594Q342.98438 349.59064 341.90625 349.59064Q340.54688 349.59064 339.73438 348.7469Q338.9375 347.90314 338.9375 346.3875Q338.9375 344.825 339.75 343.96564Q340.5625 343.09064 341.84375 343.09064Q343.09375 343.09064 343.875 343.9344Q344.67188 344.77814 344.67188 346.325Q344.67188 346.41876 344.67188 346.60626L340.03125 346.60626Q340.09375 347.6375 340.60938 348.1844Q341.125 348.71564 341.90625 348.71564Q342.48438 348.71564 342.89062 348.41876Q343.3125 348.10626 343.54688 347.45ZM340.09375 345.7469L343.5625 345.7469Q343.5 344.95 343.17188 344.5594Q342.65625 343.95 341.85938 343.95Q341.125 343.95 340.625 344.4344Q340.14062 344.91876 340.09375 345.7469ZM345.875 347.59064L346.90625 347.4344Q347.0 348.0594 347.39062 348.3875Q347.79688 348.71564 348.53125 348.71564Q349.25 348.71564 349.59375 348.4344Q349.95312 348.1375 349.95312 347.73126Q349.95312 347.3719 349.64062 347.16876Q349.42188 347.02814 348.5625 346.8094Q347.40625 346.5125 346.95312 346.3094Q346.51562 346.09064 346.28125 345.71564Q346.04688 345.34064 346.04688 344.8719Q346.04688 344.46564 346.23438 344.10626Q346.42188 343.7469 346.75 343.5125Q347.0 343.34064 347.42188 343.21564Q347.84375 343.09064 348.34375 343.09064Q349.0625 343.09064 349.60938 343.3094Q350.17188 343.5125 350.4375 343.8719Q350.70312 344.23126 350.79688 344.825L349.76562 344.96564Q349.70312 344.4969 349.35938 344.23126Q349.03125 343.95 348.40625 343.95Q347.6875 343.95 347.375 344.2Q347.0625 344.4344 347.0625 344.7625Q347.0625 344.96564 347.1875 345.1219Q347.32812 345.29376 347.59375 345.40314Q347.75 345.46564 348.53125 345.66876Q349.65625 345.98126 350.09375 346.16876Q350.53125 346.35626 350.78125 346.71564Q351.03125 347.075 351.03125 347.6219Q351.03125 348.15314 350.71875 348.6219Q350.42188 349.075 349.84375 349.34064Q349.26562 349.59064 348.53125 349.59064Q347.3125 349.59064 346.67188 349.09064Q346.04688 348.575 345.875 347.59064Z" fill-rule="nonzero"/><path fill="#000000" d="M36.05 300.21564Q36.05 298.6844 36.3625 297.7625Q36.675 296.825 37.284374 296.325Q37.909374 295.825 38.846874 295.825Q39.534374 295.825 40.05 296.10626Q40.58125 296.3875 40.925 296.91876Q41.26875 297.4344 41.45625 298.1844Q41.64375 298.9344 41.64375 300.21564Q41.64375 301.73126 41.33125 302.65314Q41.034374 303.575 40.409374 304.09064Q39.8 304.59064 38.846874 304.59064Q37.6125 304.59064 36.89375 303.7Q36.05 302.6375 36.05 300.21564ZM37.128124 300.21564Q37.128124 302.325 37.628124 303.02814Q38.128124 303.73126 38.846874 303.73126Q39.58125 303.73126 40.065624 303.02814Q40.565624 302.325 40.565624 300.21564Q40.565624 298.09064 40.065624 297.40314Q39.58125 296.7 38.83125 296.7Q38.1125 296.7 37.675 297.3094Q37.128124 298.09064 37.128124 300.21564Z" fill-rule="nonzero"/><path fill="#000000" d="M19.05 247.17397Q19.05 245.64272 19.3625 244.72084Q19.675 243.78334 20.284374 243.28334Q20.909374 242.78334 21.846874 242.78334Q22.534374 242.78334 23.05 243.06459Q23.58125 243.34584 23.925 243.87709Q24.26875 244.39272 24.45625 245.14272Q24.64375 245.89272 24.64375 247.17397Q24.64375 248.68959 24.33125 249.61147Q24.034374 250.53334 23.409374 251.04897Q22.8 251.54897 21.846874 251.54897Q20.6125 251.54897 19.89375 250.65834Q19.05 249.59584 19.05 247.17397ZM20.128124 247.17397Q20.128124 249.28334 20.628124 249.98647Q21.128124 250.68959 21.846874 250.68959Q22.58125 250.68959 23.065624 249.98647Q23.565624 249.28334 23.565624 247.17397Q23.565624 245.04897 23.065624 244.36147Q22.58125 243.65834 21.83125 243.65834Q21.1125 243.65834 20.675 244.26772Q20.128124 245.04897 20.128124 247.17397ZM26.64375 251.40834L26.64375 250.20522L27.846874 250.20522L27.846874 251.40834L26.64375 251.40834ZM34.596874 250.39272L34.596874 251.40834L28.909374 251.40834Q28.909374 251.03334 29.034374 250.67397Q29.253124 250.09584 29.721874 249.53334Q30.20625 248.97084 31.1125 248.23647Q32.51875 247.08022 33.003124 246.40834Q33.503124 245.73647 33.503124 245.14272Q33.503124 244.51772 33.05 244.09584Q32.596874 243.65834 31.878124 243.65834Q31.1125 243.65834 30.659374 244.11147Q30.20625 244.56459 30.190624 245.37709L29.1125 245.26772Q29.221874 244.04897 29.940624 243.42397Q30.675 242.78334 31.909374 242.78334Q33.14375 242.78334 33.8625 243.47084Q34.58125 244.15834 34.58125 245.17397Q34.58125 245.68959 34.3625 246.18959Q34.159374 246.67397 33.659374 247.23647Q33.175 247.78334 32.05 248.73647Q31.096874 249.53334 30.815624 249.83022Q30.55 250.11147 30.378124 250.39272L34.596874 250.39272ZM36.05 249.15834L37.159374 249.06459Q37.284374 249.87709 37.721874 250.28334Q38.175 250.68959 38.815624 250.68959Q39.565624 250.68959 40.096874 250.11147Q40.628124 249.53334 40.628124 248.59584Q40.628124 247.68959 40.1125 247.17397Q39.6125 246.64272 38.784374 246.64272Q38.284374 246.64272 37.8625 246.87709Q37.45625 247.11147 37.221874 247.47084L36.2375 247.34584L37.065624 242.93959L41.346874 242.93959L41.346874 243.93959L37.909374 243.93959L37.45625 246.25209Q38.221874 245.70522 39.065624 245.70522Q40.190624 245.70522 40.95625 246.48647Q41.7375 247.26772 41.7375 248.50209Q41.7375 249.65834 41.065624 250.51772Q40.2375 251.54897 38.815624 251.54897Q37.64375 251.54897 36.89375 250.89272Q36.159374 250.23647 36.05 249.15834Z" fill-rule="nonzero"/><path fill="#000000" d="M26.05 194.1323Q26.05 192.60104 26.3625 191.67917Q26.675 190.74167 27.284374 190.24167Q27.909374 189.74167 28.846874 189.74167Q29.534374 189.74167 30.05 190.02292Q30.58125 190.30417 30.925 190.83542Q31.26875 191.35104 31.45625 192.10104Q31.64375 192.85104 31.64375 194.1323Q31.64375 195.64792 31.33125 196.5698Q31.034374 197.49167 30.409374 198.0073Q29.8 198.5073 28.846874 198.5073Q27.6125 198.5073 26.89375 197.61667Q26.05 196.55417 26.05 194.1323ZM27.128124 194.1323Q27.128124 196.24167 27.628124 196.9448Q28.128124 197.64792 28.846874 197.64792Q29.58125 197.64792 30.065624 196.9448Q30.565624 196.24167 30.565624 194.1323Q30.565624 192.0073 30.065624 191.3198Q29.58125 190.61667 28.83125 190.61667Q28.1125 190.61667 27.675 191.22604Q27.128124 192.0073 27.128124 194.1323ZM33.64375 198.36667L33.64375 197.16354L34.846874 197.16354L34.846874 198.36667L33.64375 198.36667ZM36.05 196.11667L37.159374 196.02292Q37.284374 196.83542 37.721874 197.24167Q38.175 197.64792 38.815624 197.64792Q39.565624 197.64792 40.096874 197.0698Q40.628124 196.49167 40.628124 195.55417Q40.628124 194.64792 40.1125 194.1323Q39.6125 193.60104 38.784374 193.60104Q38.284374 193.60104 37.8625 193.83542Q37.45625 194.0698 37.221874 194.42917L36.2375 194.30417L37.065624 189.89792L41.346874 189.89792L41.346874 190.89792L37.909374 190.89792L37.45625 193.21042Q38.221874 192.66354 39.065624 192.66354Q40.190624 192.66354 40.95625 193.4448Q41.7375 194.22604 41.7375 195.46042Q41.7375 196.61667 41.065624 197.47604Q40.2375 198.5073 38.815624 198.5073Q37.64375 198.5073 36.89375 197.85104Q36.159374 197.1948 36.05 196.11667Z" fill-rule="nonzero"/><path fill="#000000" d="M19.05 141.09062Q19.05 139.55937 19.3625 138.6375Q19.675 137.7 20.284374 137.2Q20.909374 136.7 21.846874 136.7Q22.534374 136.7 23.05 136.98125Q23.58125 137.2625 23.925 137.79375Q24.26875 138.30937 24.45625 139.05937Q24.64375 139.80937 24.64375 141.09062Q24.64375 142.60625 24.33125 143.52812Q24.034374 144.45 23.409374 144.96562Q22.8 145.46562 21.846874 145.46562Q20.6125 145.46562 19.89375 144.575Q19.05 143.5125 19.05 141.09062ZM20.128124 141.09062Q20.128124 143.2 20.628124 143.90312Q21.128124 144.60625 21.846874 144.60625Q22.58125 144.60625 23.065624 143.90312Q23.565624 143.2 23.565624 141.09062Q23.565624 138.96562 23.065624 138.27812Q22.58125 137.575 21.83125 137.575Q21.1125 137.575 20.675 138.18437Q20.128124 138.96562 20.128124 141.09062ZM26.64375 145.325L26.64375 144.12187L27.846874 144.12187L27.846874 145.325L26.64375 145.325ZM29.1125 137.85625L29.1125 136.84062L34.675 136.84062L34.675 137.66875Q33.8625 138.54375 33.05 139.99687Q32.253124 141.43437 31.815624 142.96562Q31.4875 144.04375 31.409374 145.325L30.315624 145.325Q30.33125 144.30937 30.70625 142.87187Q31.096874 141.43437 31.8 140.10625Q32.51875 138.77812 33.33125 137.85625L29.1125 137.85625ZM36.05 143.075L37.159374 142.98125Q37.284374 143.79375 37.721874 144.2Q38.175 144.60625 38.815624 144.60625Q39.565624 144.60625 40.096874 144.02812Q40.628124 143.45 40.628124 142.5125Q40.628124 141.60625 40.1125 141.09062Q39.6125 140.55937 38.784374 140.55937Q38.284374 140.55937 37.8625 140.79375Q37.45625 141.02812 37.221874 141.3875L36.2375 141.2625L37.065624 136.85625L41.346874 136.85625L41.346874 137.85625L37.909374 137.85625L37.45625 140.16875Q38.221874 139.62187 39.065624 139.62187Q40.190624 139.62187 40.95625 140.40312Q41.7375 141.18437 41.7375 142.41875Q41.7375 143.575 41.065624 144.43437Q40.2375 145.46562 38.815624 145.46562Q37.64375 145.46562 36.89375 144.80937Q36.159374 144.15312 36.05 143.075Z" fill-rule="nonzero"/><path fill="#000000" d="M40.01875 92.28333L38.971874 92.28333L38.971874 85.56458Q38.58125 85.92396 37.95625 86.29896Q37.346874 86.65833 36.8625 86.83021L36.8625 85.81458Q37.7375 85.39271 38.39375 84.81458Q39.065624 84.22083 39.346874 83.65833L40.01875 83.65833L40.01875 92.28333Z" fill-rule="nonzero"/><path fill="#000000" d="M125.38683 317.45L124.33996 317.45L124.33996 310.73126Q123.94933 311.09064 123.32433 311.46564Q122.71496 311.825 122.23058 311.9969L122.23058 310.98126Q123.10558 310.5594 123.76183 309.98126Q124.43371 309.3875 124.71496 308.825L125.38683 308.825L125.38683 317.45ZM128.41809 313.21564Q128.41809 311.6844 128.73059 310.7625Q129.04309 309.825 129.65247 309.325Q130.27747 308.825 131.21497 308.825Q131.90247 308.825 132.41809 309.10626Q132.94934 309.3875 133.29309 309.91876Q133.63684 310.4344 133.82434 311.1844Q134.01184 311.9344 134.01184 313.21564Q134.01184 314.73126 133.69934 315.65314Q133.40247 316.575 132.77747 317.09064Q132.16809 317.59064 131.21497 317.59064Q129.98059 317.59064 129.26184 316.7Q128.41809 315.6375 128.41809 313.21564ZM129.49622 313.21564Q129.49622 315.325 129.99622 316.02814Q130.49622 316.73126 131.21497 316.73126Q131.94934 316.73126 132.43372 316.02814Q132.93372 315.325 132.93372 313.21564Q132.93372 311.09064 132.43372 310.40314Q131.94934 309.7 131.19934 309.7Q130.48059 309.7 130.04309 310.3094Q129.49622 311.09064 129.49622 313.21564Z" fill-rule="nonzero"/><path fill="#000000" d="M240.34795 316.4344L240.34795 317.45L234.66045 317.45Q234.66045 317.075 234.78545 316.71564Q235.0042 316.1375 235.47295 315.575Q235.95732 315.0125 236.86357 314.27814Q238.26982 313.1219 238.7542 312.45Q239.2542 311.77814 239.2542 311.1844Q239.2542 310.5594 238.80107 310.1375Q238.34795 309.7 237.6292 309.7Q236.86357 309.7 236.41045 310.15314Q235.95732 310.60626 235.9417 311.41876L234.86357 311.3094Q234.97295 310.09064 235.6917 309.46564Q236.42607 308.825 237.66045 308.825Q238.89482 308.825 239.61357 309.5125Q240.33232 310.2 240.33232 311.21564Q240.33232 311.73126 240.11357 312.23126Q239.91045 312.71564 239.41045 313.27814Q238.92607 313.825 237.80107 314.77814Q236.84795 315.575 236.5667 315.8719Q236.30107 316.15314 236.1292 316.4344L240.34795 316.4344ZM241.80107 313.21564Q241.80107 311.6844 242.11357 310.7625Q242.42607 309.825 243.03545 309.325Q243.66045 308.825 244.59795 308.825Q245.28545 308.825 245.80107 309.10626Q246.33232 309.3875 246.67607 309.91876Q247.01982 310.4344 247.20732 311.1844Q247.39482 311.9344 247.39482 313.21564Q247.39482 314.73126 247.08232 315.65314Q246.78545 316.575 246.16045 317.09064Q245.55107 317.59064 244.59795 317.59064Q243.36357 317.59064 242.64482 316.7Q241.80107 315.6375 241.80107 313.21564ZM242.8792 313.21564Q242.8792 315.325 243.3792 316.02814Q243.8792 316.73126 244.59795 316.73126Q245.33232 316.73126 245.8167 316.02814Q246.3167 315.325 246.3167 313.21564Q246.3167 311.09064 245.8167 310.40314Q245.33232 309.7 244.58232 309.7Q243.86357 309.7 243.42607 310.3094Q242.8792 311.09064 242.8792 313.21564Z" fill-rule="nonzero"/><path fill="#000000" d="M348.18405 315.1844L349.24655 315.04376Q349.41843 315.9344 349.85593 316.34064Q350.29343 316.73126 350.91843 316.73126Q351.66843 316.73126 352.18405 316.21564Q352.69968 315.7 352.69968 314.9344Q352.69968 314.21564 352.2153 313.7469Q351.74655 313.2625 351.01218 313.2625Q350.7153 313.2625 350.26218 313.3875L350.38718 312.45Q350.49655 312.46564 350.55905 312.46564Q351.23093 312.46564 351.76218 312.1219Q352.30905 311.7625 352.30905 311.02814Q352.30905 310.45 351.91843 310.075Q351.5278 309.6844 350.9028 309.6844Q350.29343 309.6844 349.87155 310.075Q349.4653 310.46564 349.35593 311.23126L348.29343 311.04376Q348.48093 309.9969 349.16843 309.41876Q349.85593 308.825 350.87155 308.825Q351.57468 308.825 352.16843 309.1375Q352.76218 309.4344 353.07468 309.95Q353.38718 310.46564 353.38718 311.0594Q353.38718 311.60626 353.0903 312.075Q352.79343 312.52814 352.2153 312.79376Q352.9653 312.96564 353.38718 313.52814Q353.80905 314.075 353.80905 314.91876Q353.80905 316.04376 352.98093 316.825Q352.16843 317.60626 350.91843 317.60626Q349.79343 317.60626 349.04343 316.9344Q348.29343 316.2469 348.18405 315.1844ZM355.18405 313.21564Q355.18405 311.6844 355.49655 310.7625Q355.80905 309.825 356.41843 309.325Q357.04343 308.825 357.98093 308.825Q358.66843 308.825 359.18405 309.10626Q359.7153 309.3875 360.05905 309.91876Q360.4028 310.4344 360.5903 311.1844Q360.7778 311.9344 360.7778 313.21564Q360.7778 314.73126 360.4653 315.65314Q360.16843 316.575 359.54343 317.09064Q358.93405 317.59064 357.98093 317.59064Q356.74655 317.59064 356.0278 316.7Q355.18405 315.6375 355.18405 313.21564ZM356.26218 313.21564Q356.26218 315.325 356.76218 316.02814Q357.26218 316.73126 357.98093 316.73126Q358.7153 316.73126 359.19968 316.02814Q359.69968 315.325 359.69968 313.21564Q359.69968 311.09064 359.19968 310.40314Q358.7153 309.7 357.9653 309.7Q357.24655 309.7 356.80905 310.3094Q356.26218 311.09064 356.26218 313.21564Z" fill-rule="nonzero"/><path fill="#000000" d="M464.94202 317.45L464.94202 315.3875L461.22327 315.3875L461.22327 314.41876L465.14514 308.85626L466.00452 308.85626L466.00452 314.41876L467.16077 314.41876L467.16077 315.3875L466.00452 315.3875L466.00452 317.45L464.94202 317.45ZM464.94202 314.41876L464.94202 310.5594L462.25452 314.41876L464.94202 314.41876ZM468.56702 313.21564Q468.56702 311.6844 468.87952 310.7625Q469.19202 309.825 469.8014 309.325Q470.4264 308.825 471.3639 308.825Q472.0514 308.825 472.56702 309.10626Q473.09827 309.3875 473.44202 309.91876Q473.78577 310.4344 473.97327 311.1844Q474.16077 311.9344 474.16077 313.21564Q474.16077 314.73126 473.84827 315.65314Q473.5514 316.575 472.9264 317.09064Q472.31702 317.59064 471.3639 317.59064Q470.12952 317.59064 469.41077 316.7Q468.56702 315.6375 468.56702 313.21564ZM469.64514 313.21564Q469.64514 315.325 470.14514 316.02814Q470.64514 316.73126 471.3639 316.73126Q472.09827 316.73126 472.58264 316.02814Q473.08264 315.325 473.08264 313.21564Q473.08264 311.09064 472.58264 310.40314Q472.09827 309.7 471.34827 309.7Q470.62952 309.7 470.19202 310.3094Q469.64514 311.09064 469.64514 313.21564Z" fill-rule="nonzero"/><path fill="#000000" d="M574.95 315.2L576.0594 315.10626Q576.1844 315.91876 576.6219 316.325Q577.075 316.73126 577.71564 316.73126Q578.46564 316.73126 578.9969 316.15314Q579.52814 315.575 579.52814 314.6375Q579.52814 313.73126 579.0125 313.21564Q578.5125 312.6844 577.6844 312.6844Q577.1844 312.6844 576.7625 312.91876Q576.35626 313.15314 576.1219 313.5125L575.1375 313.3875L575.96564 308.98126L580.2469 308.98126L580.2469 309.98126L576.8094 309.98126L576.35626 312.29376Q577.1219 311.7469 577.96564 311.7469Q579.09064 311.7469 579.85626 312.52814Q580.6375 313.3094 580.6375 314.54376Q580.6375 315.7 579.96564 316.5594Q579.1375 317.59064 577.71564 317.59064Q576.54376 317.59064 575.79376 316.9344Q575.0594 316.27814 574.95 315.2ZM581.95 313.21564Q581.95 311.6844 582.2625 310.7625Q582.575 309.825 583.1844 309.325Q583.8094 308.825 584.7469 308.825Q585.4344 308.825 585.95 309.10626Q586.48126 309.3875 586.825 309.91876Q587.16876 310.4344 587.35626 311.1844Q587.54376 311.9344 587.54376 313.21564Q587.54376 314.73126 587.23126 315.65314Q586.9344 316.575 586.3094 317.09064Q585.7 317.59064 584.7469 317.59064Q583.5125 317.59064 582.79376 316.7Q581.95 315.6375 581.95 313.21564ZM583.02814 313.21564Q583.02814 315.325 583.52814 316.02814Q584.02814 316.73126 584.7469 316.73126Q585.48126 316.73126 585.96564 316.02814Q586.46564 315.325 586.46564 313.21564Q586.46564 311.09064 585.96564 310.40314Q585.48126 309.7 584.73126 309.7Q584.0125 309.7 583.575 310.3094Q583.02814 311.09064 583.02814 313.21564Z" fill-rule="nonzero"/><path stroke="#4285f4" stroke-width="4.0" stroke-linecap="butt" d="M198.5 61.916668L210.5 61.916668" fill-rule="nonzero"/><path fill="#1a1a1a" d="M221.59375 64.979164L221.75 65.90104Q221.29688 65.99479 220.95312 65.99479Q220.375 65.99479 220.0625 65.822914Q219.75 65.635414 219.60938 65.33854Q219.48438 65.041664 219.48438 64.08854L219.48438 60.510414L218.71875 60.510414L218.71875 59.697914L219.48438 59.697914L219.48438 58.15104L220.53125 57.52604L220.53125 59.697914L221.59375 59.697914L221.59375 60.510414L220.53125 60.510414L220.53125 64.15104Q220.53125 64.604164 220.57812 64.729164Q220.64062 64.854164 220.76562 64.93229Q220.89062 65.010414 221.125 65.010414Q221.3125 65.010414 221.59375 64.979164ZM226.54688 63.916664L227.64062 64.041664Q227.39062 64.99479 226.6875 65.52604Q225.98438 66.05729 224.90625 66.05729Q223.54688 66.05729 222.73438 65.21354Q221.9375 64.36979 221.9375 62.854164Q221.9375 61.291664 222.75 60.43229Q223.5625 59.55729 224.84375 59.55729Q226.09375 59.55729 226.875 60.40104Q227.67188 61.24479 227.67188 62.791664Q227.67188 62.885414 227.67188 63.072914L223.03125 63.072914Q223.09375 64.104164 223.60938 64.65104Q224.125 65.18229 224.90625 65.18229Q225.48438 65.18229 225.89062 64.885414Q226.3125 64.572914 226.54688 63.916664ZM223.09375 62.21354L226.5625 62.21354Q226.5 61.416664 226.17188 61.02604Q225.65625 60.416664 224.85938 60.416664Q224.125 60.416664 223.625 60.90104Q223.14062 61.385414 223.09375 62.21354ZM228.875 64.05729L229.90625 63.90104Q230.0 64.52604 230.39062 64.854164Q230.79688 65.18229 231.53125 65.18229Q232.25 65.18229 232.59375 64.90104Q232.95312 64.604164 232.95312 64.197914Q232.95312 63.83854 232.64062 63.635414Q232.42188 63.49479 231.5625 63.27604Q230.40625 62.979164 229.95312 62.77604Q229.51562 62.55729 229.28125 62.18229Q229.04688 61.80729 229.04688 61.33854Q229.04688 60.93229 229.23438 60.572914Q229.42188 60.21354 229.75 59.979164Q230.0 59.80729 230.42188 59.68229Q230.84375 59.55729 231.34375 59.55729Q232.0625 59.55729 232.60938 59.77604Q233.17188 59.979164 233.4375 60.33854Q233.70312 60.697914 233.79688 61.291664L232.76562 61.43229Q232.70312 60.96354 232.35938 60.697914Q232.03125 60.416664 231.40625 60.416664Q230.6875 60.416664 230.375 60.666664Q230.0625 60.90104 230.0625 61.229164Q230.0625 61.43229 230.1875 61.58854Q230.32812 61.760414 230.59375 61.86979Q230.75 61.93229 231.53125 62.135414Q232.65625 62.447914 233.09375 62.635414Q233.53125 62.822914 233.78125 63.18229Q234.03125 63.541664 234.03125 64.08854Q234.03125 64.61979 233.71875 65.08854Q233.42188 65.541664 232.84375 65.80729Q232.26562 66.05729 231.53125 66.05729Q230.3125 66.05729 229.67188 65.55729Q229.04688 65.041664 228.875 64.05729ZM237.59375 64.979164L237.75 65.90104Q237.29688 65.99479 236.95312 65.99479Q236.375 65.99479 236.0625 65.822914Q235.75 65.635414 235.60938 65.33854Q235.48438 65.041664 235.48438 64.08854L235.48438 60.510414L234.71875 60.510414L234.71875 59.697914L235.48438 59.697914L235.48438 58.15104L236.53125 57.52604L236.53125 59.697914L237.59375 59.697914L237.59375 60.510414L236.53125 60.510414L236.53125 64.15104Q236.53125 64.604164 236.57812 64.729164Q236.64062 64.854164 236.76562 64.93229Q236.89062 65.010414 237.125 65.010414Q237.3125 65.010414 237.59375 64.979164ZM245.35938 65.15104Q244.76562 65.65104 244.21875 65.854164Q243.6875 66.05729 243.0625 66.05729Q242.03125 66.05729 241.48438 65.55729Q240.9375 65.05729 240.9375 64.27604Q240.9375 63.822914 241.14062 63.447914Q241.34375 63.05729 241.6875 62.83854Q242.03125 62.604164 242.45312 62.49479Q242.75 62.40104 243.39062 62.322914Q244.65625 62.18229 245.26562 61.96354Q245.26562 61.74479 245.26562 61.697914Q245.26562 61.041664 244.96875 60.77604Q244.5625 60.43229 243.76562 60.43229Q243.03125 60.43229 242.67188 60.697914Q242.3125 60.947914 242.14062 61.604164L241.10938 61.46354Q241.25 60.80729 241.57812 60.40104Q241.90625 59.99479 242.51562 59.77604Q243.125 59.55729 243.92188 59.55729Q244.71875 59.55729 245.21875 59.74479Q245.71875 59.93229 245.95312 60.21354Q246.1875 60.49479 246.28125 60.93229Q246.32812 61.197914 246.32812 61.90104L246.32812 63.30729Q246.32812 64.77604 246.39062 65.166664Q246.46875 65.55729 246.67188 65.916664L245.5625 65.916664Q245.40625 65.58854 245.35938 65.15104ZM245.26562 62.791664Q244.6875 63.02604 243.54688 63.197914Q242.89062 63.291664 242.625 63.416664Q242.35938 63.52604 242.20312 63.74479Q242.0625 63.96354 242.0625 64.24479Q242.0625 64.666664 242.375 64.947914Q242.70312 65.229164 243.3125 65.229164Q243.92188 65.229164 244.39062 64.96354Q244.875 64.697914 245.09375 64.229164Q245.26562 63.86979 245.26562 63.18229L245.26562 62.791664ZM252.35938 63.635414L253.39062 63.77604Q253.21875 64.83854 252.51562 65.447914Q251.8125 66.05729 250.79688 66.05729Q249.51562 66.05729 248.73438 65.229164Q247.96875 64.385414 247.96875 62.822914Q247.96875 61.822914 248.29688 61.072914Q248.64062 60.30729 249.3125 59.93229Q250.0 59.55729 250.8125 59.55729Q251.8125 59.55729 252.45312 60.072914Q253.10938 60.572914 253.29688 61.52604L252.26562 61.68229Q252.125 61.05729 251.75 60.74479Q251.375 60.416664 250.84375 60.416664Q250.04688 60.416664 249.54688 60.99479Q249.04688 61.55729 249.04688 62.791664Q249.04688 64.05729 249.53125 64.61979Q250.01562 65.18229 250.78125 65.18229Q251.40625 65.18229 251.8125 64.80729Q252.23438 64.43229 252.35938 63.635414ZM258.35938 63.635414L259.39062 63.77604Q259.21875 64.83854 258.51562 65.447914Q257.8125 66.05729 256.79688 66.05729Q255.51562 66.05729 254.73438 65.229164Q253.96875 64.385414 253.96875 62.822914Q253.96875 61.822914 254.29688 61.072914Q254.64062 60.30729 255.3125 59.93229Q256.0 59.55729 256.8125 59.55729Q257.8125 59.55729 258.45312 60.072914Q259.10938 60.572914 259.29688 61.52604L258.26562 61.68229Q258.125 61.05729 257.75 60.74479Q257.375 60.416664 256.84375 60.416664Q256.04688 60.416664 255.54688 60.99479Q255.04688 61.55729 255.04688 62.791664Q255.04688 64.05729 255.53125 64.61979Q256.01562 65.18229 256.78125 65.18229Q257.40625 65.18229 257.8125 64.80729Q258.23438 64.43229 258.35938 63.635414ZM264.375 65.916664L264.375 64.99479Q263.64062 66.05729 262.39062 66.05729Q261.84375 66.05729 261.35938 65.854164Q260.89062 65.635414 260.65625 65.322914Q260.42188 64.99479 260.32812 64.52604Q260.26562 64.229164 260.26562 63.541664L260.26562 59.697914L261.32812 59.697914L261.32812 63.15104Q261.32812 63.96354 261.39062 64.260414Q261.48438 64.666664 261.79688 64.916664Q262.125 65.15104 262.60938 65.15104Q263.07812 65.15104 263.48438 64.916664Q263.90625 64.666664 264.07812 64.24479Q264.26562 63.822914 264.26562 63.02604L264.26562 59.697914L265.3125 59.697914L265.3125 65.916664L264.375 65.916664ZM267.28125 65.916664L267.28125 59.697914L268.23438 59.697914L268.23438 60.635414Q268.59375 59.979164 268.89062 59.77604Q269.20312 59.55729 269.57812 59.55729Q270.10938 59.55729 270.65625 59.885414L270.29688 60.86979Q269.90625 60.635414 269.53125 60.635414Q269.17188 60.635414 268.89062 60.854164Q268.625 61.05729 268.51562 61.43229Q268.32812 61.99479 268.32812 62.65104L268.32812 65.916664L267.28125 65.916664ZM275.35938 65.15104Q274.76562 65.65104 274.21875 65.854164Q273.6875 66.05729 273.0625 66.05729Q272.03125 66.05729 271.48438 65.55729Q270.9375 65.05729 270.9375 64.27604Q270.9375 63.822914 271.14062 63.447914Q271.34375 63.05729 271.6875 62.83854Q272.03125 62.604164 272.45312 62.49479Q272.75 62.40104 273.39062 62.322914Q274.65625 62.18229 275.26562 61.96354Q275.26562 61.74479 275.26562 61.697914Q275.26562 61.041664 274.96875 60.77604Q274.5625 60.43229 273.76562 60.43229Q273.03125 60.43229 272.67188 60.697914Q272.3125 60.947914 272.14062 61.604164L271.10938 61.46354Q271.25 60.80729 271.57812 60.40104Q271.90625 59.99479 272.51562 59.77604Q273.125 59.55729 273.92188 59.55729Q274.71875 59.55729 275.21875 59.74479Q275.71875 59.93229 275.95312 60.21354Q276.1875 60.49479 276.28125 60.93229Q276.32812 61.197914 276.32812 61.90104L276.32812 63.30729Q276.32812 64.77604 276.39062 65.166664Q276.46875 65.55729 276.67188 65.916664L275.5625 65.916664Q275.40625 65.58854 275.35938 65.15104ZM275.26562 62.791664Q274.6875 63.02604 273.54688 63.197914Q272.89062 63.291664 272.625 63.416664Q272.35938 63.52604 272.20312 63.74479Q272.0625 63.96354 272.0625 64.24479Q272.0625 64.666664 272.375 64.947914Q272.70312 65.229164 273.3125 65.229164Q273.92188 65.229164 274.39062 64.96354Q274.875 64.697914 275.09375 64.229164Q275.26562 63.86979 275.26562 63.18229L275.26562 62.791664ZM282.35938 63.635414L283.39062 63.77604Q283.21875 64.83854 282.51562 65.447914Q281.8125 66.05729 280.79688 66.05729Q279.51562 66.05729 278.73438 65.229164Q277.96875 64.385414 277.96875 62.822914Q277.96875 61.822914 278.29688 61.072914Q278.64062 60.30729 279.3125 59.93229Q280.0 59.55729 280.8125 59.55729Q281.8125 59.55729 282.45312 60.072914Q283.10938 60.572914 283.29688 61.52604L282.26562 61.68229Q282.125 61.05729 281.75 60.74479Q281.375 60.416664 280.84375 60.416664Q280.04688 60.416664 279.54688 60.99479Q279.04688 61.55729 279.04688 62.791664Q279.04688 64.05729 279.53125 64.61979Q280.01562 65.18229 280.78125 65.18229Q281.40625 65.18229 281.8125 64.80729Q282.23438 64.43229 282.35938 63.635414ZM284.25 68.30729L284.125 67.322914Q284.46875 67.416664 284.73438 67.416664Q285.07812 67.416664 285.28125 67.291664Q285.5 67.18229 285.64062 66.979164Q285.73438 66.80729 285.96875 66.18229Q285.98438 66.104164 286.0625 65.93229L283.6875 59.697914L284.82812 59.697914L286.125 63.291664Q286.375 63.979164 286.57812 64.74479Q286.76562 64.010414 287.01562 63.322914L288.34375 59.697914L289.39062 59.697914L287.03125 66.02604Q286.64062 67.041664 286.4375 67.43229Q286.15625 67.96354 285.78125 68.197914Q285.42188 68.447914 284.92188 68.447914Q284.625 68.447914 284.25 68.30729Z" fill-rule="nonzero"/><path stroke="#ea4335" stroke-width="4.0" stroke-linecap="butt" d="M305.5 61.916668L317.5 61.916668" fill-rule="nonzero"/><path fill="#1a1a1a" d="M328.59375 64.979164L328.75 65.90104Q328.29688 65.99479 327.95312 65.99479Q327.375 65.99479 327.0625 65.822914Q326.75 65.635414 326.60938 65.33854Q326.48438 65.041664 326.48438 64.08854L326.48438 60.510414L325.71875 60.510414L325.71875 59.697914L326.48438 59.697914L326.48438 58.15104L327.53125 57.52604L327.53125 59.697914L328.59375 59.697914L328.59375 60.510414L327.53125 60.510414L327.53125 64.15104Q327.53125 64.604164 327.57812 64.729164Q327.64062 64.854164 327.76562 64.93229Q327.89062 65.010414 328.125 65.010414Q328.3125 65.010414 328.59375 64.979164ZM329.28125 65.916664L329.28125 59.697914L330.23438 59.697914L330.23438 60.635414Q330.59375 59.979164 330.89062 59.77604Q331.20312 59.55729 331.57812 59.55729Q332.10938 59.55729 332.65625 59.885414L332.29688 60.86979Q331.90625 60.635414 331.53125 60.635414Q331.17188 60.635414 330.89062 60.854164Q330.625 61.05729 330.51562 61.43229Q330.32812 61.99479 330.32812 62.65104L330.32812 65.916664L329.28125 65.916664ZM337.35938 65.15104Q336.76562 65.65104 336.21875 65.854164Q335.6875 66.05729 335.0625 66.05729Q334.03125 66.05729 333.48438 65.55729Q332.9375 65.05729 332.9375 64.27604Q332.9375 63.822914 333.14062 63.447914Q333.34375 63.05729 333.6875 62.83854Q334.03125 62.604164 334.45312 62.49479Q334.75 62.40104 335.39062 62.322914Q336.65625 62.18229 337.26562 61.96354Q337.26562 61.74479 337.26562 61.697914Q337.26562 61.041664 336.96875 60.77604Q336.5625 60.43229 335.76562 60.43229Q335.03125 60.43229 334.67188 60.697914Q334.3125 60.947914 334.14062 61.604164L333.10938 61.46354Q333.25 60.80729 333.57812 60.40104Q333.90625 59.99479 334.51562 59.77604Q335.125 59.55729 335.92188 59.55729Q336.71875 59.55729 337.21875 59.74479Q337.71875 59.93229 337.95312 60.21354Q338.1875 60.49479 338.28125 60.93229Q338.32812 61.197914 338.32812 61.90104L338.32812 63.30729Q338.32812 64.77604 338.39062 65.166664Q338.46875 65.55729 338.67188 65.916664L337.5625 65.916664Q337.40625 65.58854 337.35938 65.15104ZM337.26562 62.791664Q336.6875 63.02604 335.54688 63.197914Q334.89062 63.291664 334.625 63.416664Q334.35938 63.52604 334.20312 63.74479Q334.0625 63.96354 334.0625 64.24479Q334.0625 64.666664 334.375 64.947914Q334.70312 65.229164 335.3125 65.229164Q335.92188 65.229164 336.39062 64.96354Q336.875 64.697914 337.09375 64.229164Q337.26562 63.86979 337.26562 63.18229L337.26562 62.791664ZM340.29688 58.541664L340.29688 57.322914L341.35938 57.322914L341.35938 58.541664L340.29688 58.541664ZM340.29688 65.916664L340.29688 59.697914L341.35938 59.697914L341.35938 65.916664L340.29688 65.916664ZM343.29688 65.916664L343.29688 59.697914L344.23438 59.697914L344.23438 60.572914Q344.92188 59.55729 346.21875 59.55729Q346.78125 59.55729 347.25 59.760414Q347.73438 59.96354 347.96875 60.291664Q348.20312 60.61979 348.29688 61.05729Q348.34375 61.354164 348.34375 62.08854L348.34375 65.916664L347.29688 65.916664L347.29688 62.135414Q347.29688 61.479164 347.17188 61.166664Q347.04688 60.854164 346.73438 60.666664Q346.42188 60.46354 346.0 60.46354Q345.32812 60.46354 344.82812 60.90104Q344.34375 61.322914 344.34375 62.510414L344.34375 65.916664L343.29688 65.916664ZM357.35938 65.15104Q356.76562 65.65104 356.21875 65.854164Q355.6875 66.05729 355.0625 66.05729Q354.03125 66.05729 353.48438 65.55729Q352.9375 65.05729 352.9375 64.27604Q352.9375 63.822914 353.14062 63.447914Q353.34375 63.05729 353.6875 62.83854Q354.03125 62.604164 354.45312 62.49479Q354.75 62.40104 355.39062 62.322914Q356.65625 62.18229 357.26562 61.96354Q357.26562 61.74479 357.26562 61.697914Q357.26562 61.041664 356.96875 60.77604Q356.5625 60.43229 355.76562 60.43229Q355.03125 60.43229 354.67188 60.697914Q354.3125 60.947914 354.14062 61.604164L353.10938 61.46354Q353.25 60.80729 353.57812 60.40104Q353.90625 59.99479 354.51562 59.77604Q355.125 59.55729 355.92188 59.55729Q356.71875 59.55729 357.21875 59.74479Q357.71875 59.93229 357.95312 60.21354Q358.1875 60.49479 358.28125 60.93229Q358.32812 61.197914 358.32812 61.90104L358.32812 63.30729Q358.32812 64.77604 358.39062 65.166664Q358.46875 65.55729 358.67188 65.916664L357.5625 65.916664Q357.40625 65.58854 357.35938 65.15104ZM357.26562 62.791664Q356.6875 63.02604 355.54688 63.197914Q354.89062 63.291664 354.625 63.416664Q354.35938 63.52604 354.20312 63.74479Q354.0625 63.96354 354.0625 64.24479Q354.0625 64.666664 354.375 64.947914Q354.70312 65.229164 355.3125 65.229164Q355.92188 65.229164 356.39062 64.96354Q356.875 64.697914 357.09375 64.229164Q357.26562 63.86979 357.26562 63.18229L357.26562 62.791664ZM364.35938 63.635414L365.39062 63.77604Q365.21875 64.83854 364.51562 65.447914Q363.8125 66.05729 362.79688 66.05729Q361.51562 66.05729 360.73438 65.229164Q359.96875 64.385414 359.96875 62.822914Q359.96875 61.822914 360.29688 61.072914Q360.64062 60.30729 361.3125 59.93229Q362.0 59.55729 362.8125 59.55729Q363.8125 59.55729 364.45312 60.072914Q365.10938 60.572914 365.29688 61.52604L364.26562 61.68229Q364.125 61.05729 363.75 60.74479Q363.375 60.416664 362.84375 60.416664Q362.04688 60.416664 361.54688 60.99479Q361.04688 61.55729 361.04688 62.791664Q361.04688 64.05729 361.53125 64.61979Q362.01562 65.18229 362.78125 65.18229Q363.40625 65.18229 363.8125 64.80729Q364.23438 64.43229 364.35938 63.635414ZM370.35938 63.635414L371.39062 63.77604Q371.21875 64.83854 370.51562 65.447914Q369.8125 66.05729 368.79688 66.05729Q367.51562 66.05729 366.73438 65.229164Q365.96875 64.385414 365.96875 62.822914Q365.96875 61.822914 366.29688 61.072914Q366.64062 60.30729 367.3125 59.93229Q368.0 59.55729 368.8125 59.55729Q369.8125 59.55729 370.45312 60.072914Q371.10938 60.572914 371.29688 61.52604L370.26562 61.68229Q370.125 61.05729 369.75 60.74479Q369.375 60.416664 368.84375 60.416664Q368.04688 60.416664 367.54688 60.99479Q367.04688 61.55729 367.04688 62.791664Q367.04688 64.05729 367.53125 64.61979Q368.01562 65.18229 368.78125 65.18229Q369.40625 65.18229 369.8125 64.80729Q370.23438 64.43229 370.35938 63.635414ZM376.375 65.916664L376.375 64.99479Q375.64062 66.05729 374.39062 66.05729Q373.84375 66.05729 373.35938 65.854164Q372.89062 65.635414 372.65625 65.322914Q372.42188 64.99479 372.32812 64.52604Q372.26562 64.229164 372.26562 63.541664L372.26562 59.697914L373.32812 59.697914L373.32812 63.15104Q373.32812 63.96354 373.39062 64.260414Q373.48438 64.666664 373.79688 64.916664Q374.125 65.15104 374.60938 65.15104Q375.07812 65.15104 375.48438 64.916664Q375.90625 64.666664 376.07812 64.24479Q376.26562 63.822914 376.26562 63.02604L376.26562 59.697914L377.3125 59.697914L377.3125 65.916664L376.375 65.916664ZM379.28125 65.916664L379.28125 59.697914L380.23438 59.697914L380.23438 60.635414Q380.59375 59.979164 380.89062 59.77604Q381.20312 59.55729 381.57812 59.55729Q382.10938 59.55729 382.65625 59.885414L382.29688 60.86979Q381.90625 60.635414 381.53125 60.635414Q381.17188 60.635414 380.89062 60.854164Q380.625 61.05729 380.51562 61.43229Q380.32812 61.99479 380.32812 62.65104L380.32812 65.916664L379.28125 65.916664ZM387.35938 65.15104Q386.76562 65.65104 386.21875 65.854164Q385.6875 66.05729 385.0625 66.05729Q384.03125 66.05729 383.48438 65.55729Q382.9375 65.05729 382.9375 64.27604Q382.9375 63.822914 383.14062 63.447914Q383.34375 63.05729 383.6875 62.83854Q384.03125 62.604164 384.45312 62.49479Q384.75 62.40104 385.39062 62.322914Q386.65625 62.18229 387.26562 61.96354Q387.26562 61.74479 387.26562 61.697914Q387.26562 61.041664 386.96875 60.77604Q386.5625 60.43229 385.76562 60.43229Q385.03125 60.43229 384.67188 60.697914Q384.3125 60.947914 384.14062 61.604164L383.10938 61.46354Q383.25 60.80729 383.57812 60.40104Q383.90625 59.99479 384.51562 59.77604Q385.125 59.55729 385.92188 59.55729Q386.71875 59.55729 387.21875 59.74479Q387.71875 59.93229 387.95312 60.21354Q388.1875 60.49479 388.28125 60.93229Q388.32812 61.197914 388.32812 61.90104L388.32812 63.30729Q388.32812 64.77604 388.39062 65.166664Q388.46875 65.55729 388.67188 65.916664L387.5625 65.916664Q387.40625 65.58854 387.35938 65.15104ZM387.26562 62.791664Q386.6875 63.02604 385.54688 63.197914Q384.89062 63.291664 384.625 63.416664Q384.35938 63.52604 384.20312 63.74479Q384.0625 63.96354 384.0625 64.24479Q384.0625 64.666664 384.375 64.947914Q384.70312 65.229164 385.3125 65.229164Q385.92188 65.229164 386.39062 64.96354Q386.875 64.697914 387.09375 64.229164Q387.26562 63.86979 387.26562 63.18229L387.26562 62.791664ZM394.35938 63.635414L395.39062 63.77604Q395.21875 64.83854 394.51562 65.447914Q393.8125 66.05729 392.79688 66.05729Q391.51562 66.05729 390.73438 65.229164Q389.96875 64.385414 389.96875 62.822914Q389.96875 61.822914 390.29688 61.072914Q390.64062 60.30729 391.3125 59.93229Q392.0 59.55729 392.8125 59.55729Q393.8125 59.55729 394.45312 60.072914Q395.10938 60.572914 395.29688 61.52604L394.26562 61.68229Q394.125 61.05729 393.75 60.74479Q393.375 60.416664 392.84375 60.416664Q392.04688 60.416664 391.54688 60.99479Q391.04688 61.55729 391.04688 62.791664Q391.04688 64.05729 391.53125 64.61979Q392.01562 65.18229 392.78125 65.18229Q393.40625 65.18229 393.8125 64.80729Q394.23438 64.43229 394.35938 63.635414ZM396.25 68.30729L396.125 67.322914Q396.46875 67.416664 396.73438 67.416664Q397.07812 67.416664 397.28125 67.291664Q397.5 67.18229 397.64062 66.979164Q397.73438 66.80729 397.96875 66.18229Q397.98438 66.104164 398.0625 65.93229L395.6875 59.697914L396.82812 59.697914L398.125 63.291664Q398.375 63.979164 398.57812 64.74479Q398.76562 64.010414 399.01562 63.322914L400.34375 59.697914L401.39062 59.697914L399.03125 66.02604Q398.64062 67.041664 398.4375 67.43229Q398.15625 67.96354 397.78125 68.197914Q397.42188 68.447914 396.92188 68.447914Q396.625 68.447914 396.25 68.30729Z" fill-rule="nonzero"/><path fill="#757575" d="M19.878124 37.55L19.878124 23.2375L21.64375 23.2375L21.64375 31.39375L25.8 27.175L28.065624 27.175L24.1125 31.01875L28.471874 37.55L26.3 37.55L22.878124 32.253124L21.64375 33.440624L21.64375 37.55L19.878124 37.55ZM29.8625 37.55L29.8625 27.175L31.45625 27.175L31.45625 28.659374Q32.596874 26.940624 34.753124 26.940624Q35.690624 26.940624 36.471874 27.284374Q37.26875 27.6125 37.659374 28.159374Q38.05 28.70625 38.20625 29.45625Q38.3 29.95625 38.3 31.175L38.3 37.55L36.534374 37.55L36.534374 31.2375Q36.534374 30.159374 36.33125 29.628124Q36.128124 29.096874 35.596874 28.784374Q35.08125 28.471874 34.378124 28.471874Q33.253124 28.471874 32.440624 29.190624Q31.628124 29.89375 31.628124 31.878124L31.628124 37.55L29.8625 37.55ZM40.8625 37.55L40.8625 27.175L42.45625 27.175L42.45625 28.659374Q43.596874 26.940624 45.753124 26.940624Q46.690624 26.940624 47.471874 27.284374Q48.26875 27.6125 48.659374 28.159374Q49.05 28.70625 49.20625 29.45625Q49.3 29.95625 49.3 31.175L49.3 37.55L47.534374 37.55L47.534374 31.2375Q47.534374 30.159374 47.33125 29.628124Q47.128124 29.096874 46.596874 28.784374Q46.08125 28.471874 45.378124 28.471874Q44.253124 28.471874 43.440624 29.190624Q42.628124 29.89375 42.628124 31.878124L42.628124 37.55L40.8625 37.55ZM64.64375 36.26875Q63.659374 37.096874 62.753124 37.440624Q61.846874 37.784374 60.815624 37.784374Q59.1125 37.784374 58.190624 36.95625Q57.26875 36.1125 57.26875 34.815624Q57.26875 34.05 57.6125 33.425Q57.971874 32.8 58.534374 32.425Q59.096874 32.034374 59.8 31.83125Q60.315624 31.70625 61.3625 31.565624Q63.4875 31.315624 64.4875 30.971874Q64.50313 30.6125 64.50313 30.503124Q64.50313 29.440624 64.00313 28.9875Q63.33125 28.39375 62.003124 28.39375Q60.753124 28.39375 60.159374 28.83125Q59.58125 29.26875 59.3 30.378124L57.58125 30.14375Q57.815624 29.034374 58.346874 28.3625Q58.878124 27.675 59.89375 27.315624Q60.909374 26.940624 62.253124 26.940624Q63.58125 26.940624 64.40938 27.253124Q65.2375 27.565624 65.62813 28.05Q66.01875 28.51875 66.175 29.2375Q66.26875 29.690624 66.26875 30.8625L66.26875 33.20625Q66.26875 35.659374 66.37813 36.315624Q66.4875 36.95625 66.83125 37.55L64.9875 37.55Q64.72188 37.003124 64.64375 36.26875ZM64.4875 32.346874Q63.534374 32.7375 61.6125 33.003124Q60.534374 33.159374 60.08125 33.3625Q59.64375 33.55 59.39375 33.925Q59.14375 34.3 59.14375 34.76875Q59.14375 35.471874 59.675 35.940624Q60.20625 36.409374 61.2375 36.409374Q62.253124 36.409374 63.034374 35.971874Q63.83125 35.51875 64.20625 34.753124Q64.4875 34.14375 64.4875 32.9875L64.4875 32.346874ZM75.64375 33.753124L77.3625 33.971874Q77.08125 35.76875 75.90938 36.784374Q74.75313 37.784374 73.05 37.784374Q70.925 37.784374 69.62813 36.39375Q68.33125 35.003124 68.33125 32.409374Q68.33125 30.721874 68.87813 29.471874Q69.44063 28.20625 70.58125 27.58125Q71.72188 26.940624 73.06563 26.940624Q74.75313 26.940624 75.81563 27.8Q76.89375 28.659374 77.20625 30.221874L75.4875 30.4875Q75.25313 29.440624 74.62813 28.925Q74.00313 28.39375 73.12813 28.39375Q71.8 28.39375 70.97188 29.346874Q70.14375 30.3 70.14375 32.346874Q70.14375 34.440624 70.94063 35.39375Q71.7375 36.33125 73.03438 36.33125Q74.06563 36.33125 74.75313 35.70625Q75.45625 35.065624 75.64375 33.753124ZM85.64375 33.753124L87.3625 33.971874Q87.08125 35.76875 85.90938 36.784374Q84.75313 37.784374 83.05 37.784374Q80.925 37.784374 79.62813 36.39375Q78.33125 35.003124 78.33125 32.409374Q78.33125 30.721874 78.87813 29.471874Q79.44063 28.20625 80.58125 27.58125Q81.72188 26.940624 83.06563 26.940624Q84.75313 26.940624 85.81563 27.8Q86.89375 28.659374 87.20625 30.221874L85.4875 30.4875Q85.25313 29.440624 84.62813 28.925Q84.00313 28.39375 83.12813 28.39375Q81.8 28.39375 80.97188 29.346874Q80.14375 30.3 80.14375 32.346874Q80.14375 34.440624 80.94063 35.39375Q81.7375 36.33125 83.03438 36.33125Q84.06563 36.33125 84.75313 35.70625Q85.45625 35.065624 85.64375 33.753124ZM95.65938 37.55L95.65938 36.01875Q94.45625 37.784374 92.37813 37.784374Q91.45625 37.784374 90.65938 37.440624Q89.8625 37.08125 89.47188 36.55Q89.09688 36.01875 88.94063 35.2375Q88.83125 34.721874 88.83125 33.596874L88.83125 27.175L90.58125 27.175L90.58125 32.925Q90.58125 34.3 90.69063 34.784374Q90.8625 35.471874 91.39375 35.878124Q91.94063 36.26875 92.72188 36.26875Q93.51875 36.26875 94.20625 35.8625Q94.90938 35.45625 95.19063 34.76875Q95.4875 34.065624 95.4875 32.7375L95.4875 27.175L97.2375 27.175L97.2375 37.55L95.65938 37.55ZM99.84688 37.55L99.84688 27.175L101.425 27.175L101.425 28.753124Q102.03438 27.64375 102.55 27.3Q103.06563 26.940624 103.675 26.940624Q104.56563 26.940624 105.4875 27.503124L104.87813 29.14375Q104.2375 28.753124 103.59688 28.753124Q103.01875 28.753124 102.55 29.1125Q102.09688 29.45625 101.89375 30.065624Q101.6125 31.003124 101.6125 32.1125L101.6125 37.55L99.84688 37.55ZM113.64375 36.26875Q112.65938 37.096874 111.75313 37.440624Q110.84688 37.784374 109.81563 37.784374Q108.1125 37.784374 107.19063 36.95625Q106.26875 36.1125 106.26875 34.815624Q106.26875 34.05 106.6125 33.425Q106.97188 32.8 107.53438 32.425Q108.09688 32.034374 108.8 31.83125Q109.31563 31.70625 110.3625 31.565624Q112.4875 31.315624 113.4875 30.971874Q113.50313 30.6125 113.50313 30.503124Q113.50313 29.440624 113.00313 28.9875Q112.33125 28.39375 111.00313 28.39375Q109.75313 28.39375 109.15938 28.83125Q108.58125 29.26875 108.3 30.378124L106.58125 30.14375Q106.81563 29.034374 107.34688 28.3625Q107.87813 27.675 108.89375 27.315624Q109.90938 26.940624 111.25313 26.940624Q112.58125 26.940624 113.40938 27.253124Q114.2375 27.565624 114.62813 28.05Q115.01875 28.51875 115.175 29.2375Q115.26875 29.690624 115.26875 30.8625L115.26875 33.20625Q115.26875 35.659374 115.37813 36.315624Q115.4875 36.95625 115.83125 37.55L113.9875 37.55Q113.72188 37.003124 113.64375 36.26875ZM113.4875 32.346874Q112.53438 32.7375 110.6125 33.003124Q109.53438 33.159374 109.08125 33.3625Q108.64375 33.55 108.39375 33.925Q108.14375 34.3 108.14375 34.76875Q108.14375 35.471874 108.675 35.940624Q109.20625 36.409374 110.2375 36.409374Q111.25313 36.409374 112.03438 35.971874Q112.83125 35.51875 113.20625 34.753124Q113.4875 34.14375 113.4875 32.9875L113.4875 32.346874ZM124.64375 33.753124L126.3625 33.971874Q126.08125 35.76875 124.90938 36.784374Q123.75313 37.784374 122.05 37.784374Q119.925 37.784374 118.62813 36.39375Q117.33125 35.003124 117.33125 32.409374Q117.33125 30.721874 117.87813 29.471874Q118.44063 28.20625 119.58125 27.58125Q120.72188 26.940624 122.06563 26.940624Q123.75313 26.940624 124.81563 27.8Q125.89375 28.659374 126.20625 30.221874L124.4875 30.4875Q124.25313 29.440624 123.62813 28.925Q123.00313 28.39375 122.12813 28.39375Q120.8 28.39375 119.97188 29.346874Q119.14375 30.3 119.14375 32.346874Q119.14375 34.440624 119.94063 35.39375Q120.7375 36.33125 122.03438 36.33125Q123.06563 36.33125 123.75313 35.70625Q124.45625 35.065624 124.64375 33.753124ZM127.78438 41.55L127.59688 39.89375Q128.175 40.05 128.59688 40.05Q129.19063 40.05 129.53438 39.846874Q129.89375 39.659374 130.1125 39.315624Q130.28438 39.05 130.65938 38.003124Q130.70625 37.846874 130.81563 37.565624L126.87813 27.175L128.76875 27.175L130.925 33.190624Q131.34688 34.33125 131.675 35.58125Q131.9875 34.378124 132.39375 33.221874L134.6125 27.175L136.37813 27.175L132.425 37.721874Q131.8 39.440624 131.44063 40.08125Q130.97188 40.95625 130.3625 41.346874Q129.76875 41.753124 128.925 41.753124Q128.40938 41.753124 127.78438 41.55Z" fill-rule="nonzero"/></svg>