<svg version="1.1" viewBox="0.0 0.0 600.0 371.0" fill="none" stroke="none" stroke-linecap="square" stroke-miterlimit="10" width="600" height="371" xmlns:xlink="http://www.w3.org/1999/xlink" xmlns="http://www.w3.org/2000/svg"><path fill="#ffffff" d="M0 0L600.0 0L600.0 371.0L0 371.0L0 0Z" fill-rule="nonzero"/><path stroke="#cccccc" stroke-width="1.0" stroke-linecap="butt" d="M127.5 88.5L127.5 300.5" fill-rule="nonzero"/><path stroke="#cccccc" stroke-width="1.0" stroke-linecap="butt" d="M241.5 88.5L241.5 300.5" fill-rule="nonzero"/><path stroke="#cccccc" stroke-width="1.0" stroke-linecap="butt" d="M354.5 88.5L354.5 300.5" fill-rule="nonzero"/><path stroke="#cccccc" stroke-width="1.0" stroke-linecap="butt" d="M468.5 88.5L468.5 300.5" fill-rule="nonzero"/><path stroke="#cccccc" stroke-width="1.0" stroke-linecap="butt" d="M581.5 88.5L581.5 300.5" fill-rule="nonzero"/><path stroke="#333333" stroke-width="1.0" stroke-linecap="butt" d="M48.5 300.5L581.5 300.5" fill-rule="nonzero"/><path stroke="#cccccc" stroke-width="1.0" stroke-linecap="butt" d="M48.5 247.5L581.5 247.5" fill-rule="nonzero"/><path stroke="#cccccc" stroke-width="1.0" stroke-linecap="butt" d="M48.5 194.5L581.5 194.5" fill-rule="nonzero"/><path stroke="#cccccc" stroke-width="1.0" stroke-linecap="butt" d="M48.5 141.5L581.5 141.5" fill-rule="nonzero"/><path stroke="#cccccc" stroke-width="1.0" stroke-linecap="butt" d="M48.5 88.5L581.5 88.5" fill-rule="nonzero"/><clipPath id="id_0"><path d="M48.55 88.28333L581.45 88.28333L581.45 300.45L48.55 300.45L48.55 88.28333Z" clip-rule="nonzero"/></clipPath><path stroke="#4285f4" stroke-width="2.0" stroke-linecap="butt" clip-path="url(#id_0)" d="M48.55 158.29834L82.564896 264.38165L127.91808 236.8L161.93298 219.82666L195.94788 234.67833L241.30107 151.93333L275.31595 151.93333L309.33084 168.90666L354.68405 166.785L388.69894 177.39333L422.71384 200.73167L468.06702 173.15L502.0819 188.00166L536.0968 158.29834L581.45 156.17667" fill-rule="nonzero"/><path stroke="#ea4335" stroke-width="2.0" stroke-linecap="butt" clip-path="url(#id_0)" d="M48.55 88.28333L82.564896 88.28333L127.91808 88.28333L161.93298 88.28333L195.94788 88.28333L241.30107 88.28333L275.31595 96.77L309.33084 88.28333L354.68405 94.64833L388.69894 94.64833L422.71384 94.64833L468.06702 88.28333L502.0819 88.28333L536.0968 92.526665L581.45 88.28333" fill-rule="nonzero"/><path fill="#000000" fill-opacity="0.0" clip-path="url(#id_0)" d="M51.55 158.29834C51.55 159.95518 50.206856 161.29834 48.55 161.29834C46.893147 161.29834 45.55 159.95518 45.55 158.29834C45.55 156.64148 46.893147 155.29834 48.55 155.29834C50.206856 155.29834 51.55 156.64148 51.55 158.29834Z" fill-rule="nonzero"/><path fill="#000000" fill-opacity="0.0" clip-path="url(#id_0)" d="M85.564896 264.38165C85.564896 266.0385 84.22175 267.38165 82.564896 267.38165C80.90804 267.38165 79.564896 266.0385 79.564896 264.38165C79.564896 262.72482 80.90804 261.38165 82.564896 261.38165C84.22175 261.38165 85.564896 262.72482 85.564896 264.38165Z" fill-rule="nonzero"/><path fill="#000000" fill-opacity="0.0" clip-path="url(#id_0)" d="M130.91809 236.8C130.91809 238.45685 129.57494 239.8 127.91808 239.8C126.26123 239.8 124.91808 238.45685 124.91808 236.8C124.91808 235.14314 126.26123 233.8 127.91808 233.8C129.57494 233.8 130.91809 235.14314 130.91809 236.8Z" fill-rule="nonzero"/><path fill="#000000" fill-opacity="0.0" clip-path="url(#id_0)" d="M164.93298 219.82666C164.93298 221.48352 163.58983 222.82666 161.93298 222.82666C160.27612 222.82666 158.93298 221.48352 158.93298 219.82666C158.93298 218.16982 160.27612 216.82666 161.93298 216.82666C163.58983 216.82666 164.93298 218.16982 164.93298 219.82666Z" fill-rule="nonzero"/><path fill="#000000" fill-opacity="0.0" clip-path="url(#id_0)" d="M198.94788 234.67833C198.94788 236.33519 197.60472 237.67833 195.94788 237.67833C194.29102 237.67833 192.94788 236.33519 192.94788 234.67833C192.94788 233.02148 194.29102 231.67833 195.94788 231.67833C197.60472 231.67833 198.94788 233.02148 198.94788 234.67833Z" fill-rule="nonzero"/><path fill="#000000" fill-opacity="0.0" clip-path="url(#id_0)" d="M244.30107 151.93333C244.30107 153.5902 242.95792 154.93333 241.30107 154.93333C239.64421 154.93333 238.30107 153.5902 238.30107 151.93333C238.30107 150.27647 239.64421 148.93333 241.30107 148.93333C242.95792 148.93333 244.30107 150.27647 244.30107 151.93333Z" fill-rule="nonzero"/><path fill="#000000" fill-opacity="0.0" clip-path="url(#id_0)" d="M278.31595 151.93333C278.31595 153.5902 276.9728 154.93333 275.31595 154.93333C273.6591 154.93333 272.31595 153.5902 272.31595 151.93333C272.31595 150.27647 273.6591 148.93333 275.31595 148.93333C276.9728 148.93333 278.31595 150.27647 278.31595 151.93333Z" fill-rule="nonzero"/><path fill="#000000" fill-opacity="0.0" clip-path="url(#id_0)" d="M312.33084 168.90666C312.33084 170.56352 310.9877 171.90666 309.33084 171.90666C307.674 171.90666 306.33084 170.56352 306.33084 168.90666C306.33084 167.24982 307.674 165.90666 309.33084 165.90666C310.9877 165.90666 312.33084 167.24982 312.33084 168.90666Z" fill-rule="nonzero"/><path fill="#000000" fill-opacity="0.0" clip-path="url(#id_0)" d="M357.68405 166.785C357.68405 168.44185 356.3409 169.785 354.68405 169.785C353.0272 169.785 351.68405 168.44185 351.68405 166.785C351.68405 165.12814 353.0272 163.785 354.68405 163.785C356.3409 163.785 357.68405 165.12814 357.68405 166.785Z" fill-rule="nonzero"/><path fill="#000000" fill-opacity="0.0" clip-path="url(#id_0)" d="M391.69894 177.39333C391.69894 179.05019 390.3558 180.39333 388.69894 180.39333C387.04208 180.39333 385.69894 179.05019 385.69894 177.39333C385.69894 175.73648 387.04208 174.39333 388.69894 174.39333C390.3558 174.39333 391.69894 175.73648 391.69894 177.39333Z" fill-rule="nonzero"/><path fill="#000000" fill-opacity="0.0" clip-path="url(#id_0)" d="M425.71384 200.73167C425.71384 202.38852 424.3707 203.73167 422.71384 203.73167C421.05698 203.73167 419.71384 202.38852 419.71384 200.73167C419.71384 199.07481 421.05698 197.73167 422.71384 197.73167C424.3707 197.73167 425.71384 199.07481 425.71384 200.73167Z" fill-rule="nonzero"/><path fill="#000000" fill-opacity="0.0" clip-path="url(#id_0)" d="M471.06702 173.15C471.06702 174.80685 469.72388 176.15 468.06702 176.15C466.41016 176.15 465.06702 174.80685 465.06702 173.15C465.06702 171.49315 466.41016 170.15 468.06702 170.15C469.72388 170.15 471.06702 171.49315 471.06702 173.15Z" fill-rule="nonzero"/><path fill="#000000" fill-opacity="0.0" clip-path="url(#id_0)" d="M505.0819 188.00166C505.0819 189.65852 503.73877 191.00166 502.0819 191.00166C500.42505 191.00166 499.0819 189.65852 499.0819 188.00166C499.0819 186.34482 500.42505 185.00166 502.0819 185.00166C503.73877 185.00166 505.0819 186.34482 505.0819 188.00166Z" fill-rule="nonzero"/><path fill="#000000" fill-opacity="0.0" clip-path="url(#id_0)" d="M539.0968 158.29834C539.0968 159.95518 537.75366 161.29834 536.0968 161.29834C534.43994 161.29834 533.0968 159.95518 533.0968 158.29834C533.0968 156.64148 534.43994 155.29834 536.0968 155.29834C537.75366 155.29834 539.0968 156.64148 539.0968 158.29834Z" fill-rule="nonzero"/><path fill="#000000" fill-opacity="0.0" clip-path="url(#id_0)" d="M584.45 156.17667C584.45 157.83353 583.1069 159.17667 581.45 159.17667C579.79315 159.17667 578.45 157.83353 578.45 156.17667C578.45 154.5198 579.79315 153.17667 581.45 153.17667C583.1069 153.17667 584.45 154.5198 584.45 156.17667Z" fill-rule="nonzero"/><path fill="#000000" fill-opacity="0.0" clip-path="url(#id_0)" d="M51.55 88.28333C51.55 89.940186 50.206856 91.28333 48.55 91.28333C46.893147 91.28333 45.55 89.940186 45.55 88.28333C45.55 86.62648 46.893147 85.28333 48.55 85.28333C50.206856 85.28333 51.55 86.62648 51.55 88.28333Z" fill-rule="nonzero"/><path fill="#000000" fill-opacity="0.0" clip-path="url(#id_0)" d="M85.564896 88.28333C85.564896 89.940186 84.22175 91.28333 82.564896 91.28333C80.90804 91.28333 79.564896 89.940186 79.564896 88.28333C79.564896 86.62648 80.90804 85.28333 82.564896 85.28333C84.22175 85.28333 85.564896 86.62648 85.564896 88.28333Z" fill-rule="nonzero"/><path fill="#000000" fill-opacity="0.0" clip-path="url(#id_0)" d="M130.91809 88.28333C130.91809 89.940186 129.57494 91.28333 127.91808 91.28333C126.26123 91.28333 124.91808 89.940186 124.91808 88.28333C124.91808 86.62648 126.26123 85.28333 127.91808 85.28333C129.57494 85.28333 130.91809 86.62648 130.91809 88.28333Z" fill-rule="nonzero"/><path fill="#000000" fill-opacity="0.0" clip-path="url(#id_0)" d="M164.93298 88.28333C164.93298 89.940186 163.58983 91.28333 161.93298 91.28333C160.27612 91.28333 158.93298 89.940186 158.93298 88.28333C158.93298 86.62648 160.27612 85.28333 161.93298 85.28333C163.58983 85.28333 164.93298 86.62648 164.93298 88.28333Z" fill-rule="nonzero"/><path fill="#000000" fill-opacity="0.0" clip-path="url(#id_0)" d="M198.94788 88.28333C198.94788 89.940186 197.60472 91.28333 195.94788 91.28333C194.29102 91.28333 192.94788 89.940186 192.94788 88.28333C192.94788 86.62648 194.29102 85.28333 195.94788 85.28333C197.60472 85.28333 198.94788 86.62648 198.94788 88.28333Z" fill-rule="nonzero"/><path fill="#000000" fill-opacity="0.0" clip-path="url(#id_0)" d="M244.30107 88.28333C244.30107 89.940186 242.95792 91.28333 241.30107 91.28333C239.64421 91.28333 238.30107 89.940186 238.30107 88.28333C238.30107 86.62648 239.64421 85.28333 241.30107 85.28333C242.95792 85.28333 244.30107 86.62648 244.30107 88.28333Z" fill-rule="nonzero"/><path fill="#000000" fill-opacity="0.0" clip-path="url(#id_0)" d="M278.31595 96.77C278.31595 98.42686 276.9728 99.77 275.31595 99.77C273.6591 99.77 272.31595 98.42686 272.31595 96.77C272.31595 95.113144 273.6591 93.77 275.31595 93.77C276.9728 93.77 278.31595 95.113144 278.31595 96.77Z" fill-rule="nonzero"/><path fill="#000000" fill-opacity="0.0" clip-path="url(#id_0)" d="M312.33084 88.28333C312.33084 89.940186 310.9877 91.28333 309.33084 91.28333C307.674 91.28333 306.33084 89.940186 306.33084 88.28333C306.33084 86.62648 307.674 85.28333 309.33084 85.28333C310.9877 85.28333 312.33084 86.62648 312.33084 88.28333Z" fill-rule="nonzero"/><path fill="#000000" fill-opacity="0.0" clip-path="url(#id_0)" d="M357.68405 94.64833C357.68405 96.30519 356.3409 97.64833 354.68405 97.64833C353.0272 97.64833 351.68405 96.30519 351.68405 94.64833C351.68405 92.99148 353.0272 91.64833 354.68405 91.64833C356.3409 91.64833 357.68405 92.99148 357.68405 94.64833Z" fill-rule="nonzero"/><path fill="#000000" fill-opacity="0.0" clip-path="url(#id_0)" d="M391.69894 94.64833C391.69894 96.30519 390.3558 97.64833 388.69894 97.64833C387.04208 97.64833 385.69894 96.30519 385.69894 94.64833C385.69894 92.99148 387.04208 91.64833 388.69894 91.64833C390.3558 91.64833 391.69894 92.99148 391.69894 94.64833Z" fill-rule="nonzero"/><path fill="#000000" fill-opacity="0.0" clip-path="url(#id_0)" d="M425.71384 94.64833C425.71384 96.30519 424.3707 97.64833 422.71384 97.64833C421.05698 97.64833 419.71384 96.30519 419.71384 94.64833C419.71384 92.99148 421.05698 91.64833 422.71384 91.64833C424.3707 91.64833 425.71384 92.99148 425.71384 94.64833Z" fill-rule="nonzero"/><path fill="#000000" fill-opacity="0.0" clip-path="url(#id_0)" d="M471.06702 88.28333C471.06702 89.940186 469.72388 91.28333 468.06702 91.28333C466.41016 91.28333 465.06702 89.940186 465.06702 88.28333C465.06702 86.62648 466.41016 85.28333 468.06702 85.28333C469.72388 85.28333 471.06702 86.62648 471.06702 88.28333Z" fill-rule="nonzero"/><path fill="#000000" fill-opacity="0.0" clip-path="url(#id_0)" d="M505.0819 88.28333C505.0819 89.940186 503.73877 91.28333 502.0819 91.28333C500.42505 91.28333 499.0819 89.940186 499.0819 88.28333C499.0819 86.62648 500.42505 85.28333 502.0819 85.28333C503.73877 85.28333 505.0819 86.62648 505.0819 88.28333Z" fill-rule="nonzero"/><path fill="#000000" fill-opacity="0.0" clip-path="url(#id_0)" d="M539.0968 92.526665C539.0968 94.18352 537.75366 95.526665 536.0968 95.526665C534.43994 95.526665 533.0968 94.18352 533.0968 92.526665C533.0968 90.86981 534.43994 89.526665 536.0968 89.526665C537.75366 89.526665 539.0968 90.86981 539.0968 92.526665Z" fill-rule="nonzero"/><path fill="#000000" fill-opacity="0.0" clip-path="url(#id_0)" d="M584.45 88.28333C584.45 89.940186 583.1069 91.28333 581.45 91.28333C579.79315 91.28333 578.45 89.940186 578.45 88.28333C578.45 86.62648 579.79315 85.28333 581.45 85.28333C583.1069 85.28333 584.45 86.62648 584.45 88.28333Z" fill-rule="nonzero"/><path fill="#000000" d="M279.29688 349.45L279.29688 343.23126L280.23438 343.23126L280.23438 344.10626Q280.92188 343.09064 282.21875 343.09064Q282.78125 343.09064 283.25 343.29376Q283.73438 343.4969 283.96875 343.825Q284.20312 344.15314 284.29688 344.59064Q284.34375 344.8875 284.34375 345.6219L284.34375 349.45L283.29688 349.45L283.29688 345.66876Q283.29688 345.0125 283.17188 344.7Q283.04688 344.3875 282.73438 344.2Q282.42188 343.9969 282.0 343.9969Q281.32812 343.9969 280.82812 344.4344Q280.34375 344.85626 280.34375 346.04376L280.34375 349.45L279.29688 349.45ZM290.375 349.45L290.375 348.52814Q289.64062 349.59064 288.39062 349.59064Q287.84375 349.59064 287.35938 349.3875Q286.89062 349.16876 286.65625 348.85626Q286.42188 348.52814 286.32812 348.0594Q286.26562 347.7625 286.26562 347.075L286.26562 343.23126L287.32812 343.23126L287.32812 346.6844Q287.32812 347.4969 287.39062 347.79376Q287.48438 348.2 287.79688 348.45Q288.125 348.6844 288.60938 348.6844Q289.07812 348.6844 289.48438 348.45Q289.90625 348.2 290.07812 347.77814Q290.26562 347.35626 290.26562 346.5594L290.26562 343.23126L291.3125 343.23126L291.3125 349.45L290.375 349.45ZM293.29688 349.45L293.29688 343.23126L294.23438 343.23126L294.23438 344.10626Q294.53125 343.6375 295.01562 343.3719Q295.5 343.09064 296.125 343.09064Q296.8125 343.09064 297.25 343.3719Q297.70312 343.65314 297.875 344.16876Q298.625 343.09064 299.79688 343.09064Q300.73438 343.09064 301.21875 343.60626Q301.71875 344.10626 301.71875 345.1844L301.71875 349.45L300.67188 349.45L300.67188 345.52814Q300.67188 344.90314 300.5625 344.6219Q300.46875 344.34064 300.20312 344.16876Q299.9375 343.9969 299.5625 343.9969Q298.90625 343.9969 298.46875 344.4344Q298.04688 344.8719 298.04688 345.84064L298.04688 349.45L296.98438 349.45L296.98438 345.40314Q296.98438 344.7 296.71875 344.35626Q296.46875 343.9969 295.89062 343.9969Q295.4375 343.9969 295.0625 344.23126Q294.6875 344.46564 294.51562 344.91876Q294.34375 345.3719 294.34375 346.21564L294.34375 349.45L293.29688 349.45ZM305.875 347.59064L306.90625 347.4344Q307.0 348.0594 307.39062 348.3875Q307.79688 348.71564 308.53125 348.71564Q309.25 348.71564 309.59375 348.4344Q309.95312 348.1375 309.95312 347.73126Q309.95312 347.3719 309.64062 347.16876Q309.42188 347.02814 308.5625 346.8094Q307.40625 346.5125 306.95312 346.3094Q306.51562 346.09064 306.28125 345.71564Q306.04688 345.34064 306.04688 344.8719Q306.04688 344.46564 306.23438 344.10626Q306.42188 343.7469 306.75 343.5125Q307.0 343.34064 307.42188 343.21564Q307.84375 343.09064 308.34375 343.09064Q309.0625 343.09064 309.60938 343.3094Q310.17188 343.5125 310.4375 343.8719Q310.70312 344.23126 310.79688 344.825L309.76562 344.96564Q309.70312 344.4969 309.35938 344.23126Q309.03125 343.95 308.40625 343.95Q307.6875 343.95 307.375 344.2Q307.0625 344.4344 307.0625 344.7625Q307.0625 344.96564 307.1875 345.1219Q307.32812 345.29376 307.59375 345.40314Q307.75 345.46564 308.53125 345.66876Q309.65625 345.98126 310.09375 346.16876Q310.53125 346.35626 310.78125 346.71564Q311.03125 347.075 311.03125 347.6219Q311.03125 348.15314 310.71875 348.6219Q310.42188 349.075 309.84375 349.34064Q309.26562 349.59064 308.53125 349.59064Q307.3125 349.59064 306.67188 349.09064Q306.04688 348.575 305.875 347.59064ZM316.35938 348.6844Q315.76562 349.1844 315.21875 349.3875Q314.6875 349.59064 314.0625 349.59064Q313.03125 349.59064 312.48438 349.09064Q311.9375 348.59064 311.9375 347.8094Q311.9375 347.35626 312.14062 346.98126Q312.34375 346.59064 312.6875 346.3719Q313.03125 346.1375 313.45312 346.02814Q313.75 345.9344 314.39062 345.85626Q315.65625 345.71564 316.26562 345.4969Q316.26562 345.27814 316.26562 345.23126Q316.26562 344.575 315.96875 344.3094Q315.5625 343.96564 314.76562 343.96564Q314.03125 343.96564 313.67188 344.23126Q313.3125 344.48126 313.14062 345.1375L312.10938 344.9969Q312.25 344.34064 312.57812 343.9344Q312.90625 343.52814 313.51562 343.3094Q314.125 343.09064 314.92188 343.09064Q315.71875 343.09064 316.21875 343.27814Q316.71875 343.46564 316.95312 343.7469Q317.1875 344.02814 317.28125 344.46564Q317.32812 344.73126 317.32812 345.4344L317.32812 346.84064Q317.32812 348.3094 317.39062 348.7Q317.46875 349.09064 317.67188 349.45L316.5625 349.45Q316.40625 349.1219 316.35938 348.6844ZM316.26562 346.325Q315.6875 346.5594 314.54688 346.73126Q313.89062 346.825 313.625 346.95Q313.35938 347.0594 313.20312 347.27814Q313.0625 347.4969 313.0625 347.77814Q313.0625 348.2 313.375 348.48126Q313.70312 348.7625 314.3125 348.7625Q314.92188 348.7625 315.39062 348.4969Q315.875 348.23126 316.09375 347.7625Q316.26562 347.40314 316.26562 346.71564L316.26562 346.325ZM319.29688 349.45L319.29688 343.23126L320.23438 343.23126L320.23438 344.10626Q320.53125 343.6375 321.01562 343.3719Q321.5 343.09064 322.125 343.09064Q322.8125 343.09064 323.25 343.3719Q323.70312 343.65314 323.875 344.16876Q324.625 343.09064 325.79688 343.09064Q326.73438 343.09064 327.21875 343.60626Q327.71875 344.10626 327.71875 345.1844L327.71875 349.45L326.67188 349.45L326.67188 345.52814Q326.67188 344.90314 326.5625 344.6219Q326.46875 344.34064 326.20312 344.16876Q325.9375 343.9969 325.5625 343.9969Q324.90625 343.9969 324.46875 344.4344Q324.04688 344.8719 324.04688 345.84064L324.04688 349.45L322.98438 349.45L322.98438 345.40314Q322.98438 344.7 322.71875 344.35626Q322.46875 343.9969 321.89062 343.9969Q321.4375 343.9969 321.0625 344.23126Q320.6875 344.46564 320.51562 344.91876Q320.34375 345.3719 320.34375 346.21564L320.34375 349.45L319.29688 349.45ZM329.29688 351.84064L329.29688 343.23126L330.25 343.23126L330.25 344.02814Q330.59375 343.5594 331.01562 343.325Q331.45312 343.09064 332.0625 343.09064Q332.85938 343.09064 333.46875 343.4969Q334.07812 343.90314 334.375 344.65314Q334.6875 345.40314 334.6875 346.29376Q334.6875 347.2469 334.34375 348.0125Q334.01562 348.77814 333.35938 349.1844Q332.70312 349.59064 331.98438 349.59064Q331.45312 349.59064 331.03125 349.3719Q330.60938 349.1375 330.34375 348.8094L330.34375 351.84064L329.29688 351.84064ZM330.25 346.3719Q330.25 347.575 330.73438 348.15314Q331.21875 348.71564 331.90625 348.71564Q332.60938 348.71564 333.10938 348.1219Q333.60938 347.52814 333.60938 346.27814Q333.60938 345.09064 333.125 344.5125Q332.64062 343.91876 331.95312 343.91876Q331.28125 343.91876 330.76562 344.54376Q330.25 345.16876 330.25 346.3719ZM336.26562 349.45L336.26562 340.85626L337.32812 340.85626L337.32812 349.45L336.26562 349.45ZM343.54688 347.45L344.64062 347.575Q344.39062 348.52814 343.6875 349.0594Q342.98438 349.59064 341.90625 349.59064Q340.54688 349.59064 339.73438 348.7469Q338.9375 347.90314 338.9375 346.3875Q338.9375 344.825 339.75 343.96564Q340.5625 343.09064 341.84375 343.09064Q343.09375 343.09064 343.875 343.9344Q344.67188 344.77814 344.67188 346.325Q344.67188 346.41876 344.67188 346.60626L340.03125 346.60626Q340.09375 347.6375 340.60938 348.1844Q341.125 348.71564 341.90625 348.71564Q342.48438 348.71564 342.89062 348.41876Q343.3125 348.10626 343.54688 347.45ZM340.09375 345.7469L343.5625 345.7469Q343.5 344.95 343.17188 344.5594Q342.65625 343.95 341.85938 343.95Q341.125 343.95 340.625 344.4344Q340.14062 344.91876 340.09375 345.7469ZM345.875 347.59064L346.90625 347.4344Q347.0 348.0594 347.39062 348.3875Q347.79688 348.71564 348.53125 348.71564Q349.25 348.71564 349.59375 348.4344Q349.95312 348.1375 349.95312 347.73126Q349.95312 347.3719 349.64062 347.16876Q349.42188 347.02814 348.5625 346.8094Q347.40625 346.5125 346.95312 346.3094Q346.51562 346.09064 346.28125 345.71564Q346.04688 345.34064 346.04688 344.8719Q346.04688 344.46564 346.23438 344.10626Q346.42188 343.7469 346.75 343.5125Q347.0 343.34064 347.42188 343.21564Q347.84375 343.09064 348.34375 343.09064Q349.0625 343.09064 349.60938 343.3094Q350.17188 343.5125 350.4375 343.8719Q350.70312 344.23126 350.79688 344.825L349.76562 344.96564Q349.70312 344.4969 349.35938 344.23126Q349.03125 343.95 348.40625 343.95Q347.6875 343.95 347.375 344.2Q347.0625 344.4344 347.0625 344.7625Q347.0625 344.96564 347.1875 345.1219Q347.32812 345.29376 347.59375 345.40314Q347.75 345.46564 348.53125 345.66876Q349.65625 345.98126 350.09375 346.16876Q350.53125 346.35626 350.78125 346.71564Q351.03125 347.075 351.03125 347.6219Q351.03125 348.15314 350.71875 348.6219Q350.42188 349.075 349.84375 349.34064Q349.26562 349.59064 348.53125 349.59064Q347.3125 349.59064 346.67188 349.09064Q346.04688 348.575 345.875 347.59064Z" fill-rule="nonzero"/><path fill="#000000" d="M36.05 300.21564Q36.05 298.6844 36.3625 297.7625Q36.675 296.825 37.284374 296.325Q37.909374 295.825 38.846874 295.825Q39.534374 295.825 40.05 296.10626Q40.58125 296.3875 40.925 296.91876Q41.26875 297.4344 41.45625 298.1844Q41.64375 298.9344 41.64375 300.21564Q41.64375 301.73126 41.33125 302.65314Q41.034374 303.575 40.409374 304.09064Q39.8 304.59064 38.846874 304.59064Q37.6125 304.59064 36.89375 303.7Q36.05 302.6375 36.05 300.21564ZM37.128124 300.21564Q37.128124 302.325 37.628124 303.02814Q38.128124 303.73126 38.846874 303.73126Q39.58125 303.73126 40.065624 303.02814Q40.565624 302.325 40.565624 300.21564Q40.565624 298.09064 40.065624 297.40314Q39.58125 296.7 38.83125 296.7Q38.1125 296.7 37.675 297.3094Q37.128124 298.09064 37.128124 300.21564Z" fill-rule="nonzero"/><path fill="#000000" d="M19.05 247.17397Q19.05 245.64272 19.3625 244.72084Q19.675 243.78334 20.284374 243.28334Q20.909374 242.78334 21.846874 242.78334Q22.534374 242.78334 23.05 243.06459Q23.58125 243.34584 23.925 243.87709Q24.26875 244.39272 24.45625 245.14272Q24.64375 245.89272 24.64375 247.17397Q24.64375 248.68959 24.33125 249.61147Q24.034374 250.53334 23.409374 251.04897Q22.8 251.54897 21.846874 251.54897Q20.6125 251.54897 19.89375 250.65834Q19.05 249.59584 19.05 247.17397ZM20.128124 247.17397Q20.128124 249.28334 20.628124 249.98647Q21.128124 250.68959 21.846874 250.68959Q22.58125 250.68959 23.065624 249.98647Q23.565624 249.28334 23.565624 247.17397Q23.565624 245.04897 23.065624 244.36147Q22.58125 243.65834 21.83125 243.65834Q21.1125 243.65834 20.675 244.26772Q20.128124 245.04897 20.128124 247.17397ZM26.64375 251.40834L26.64375 250.20522L27.846874 250.20522L27.846874 251.40834L26.64375 251.40834ZM34.596874 250.39272L34.596874 251.40834L28.909374 251.40834Q28.909374 251.03334 29.034374 250.67397Q29.253124 250.09584 29.721874 249.53334Q30.20625 248.97084 31.1125 248.23647Q32.51875 247.08022 33.003124 246.40834Q33.503124 245.73647 33.503124 245.14272Q33.503124 244.51772 33.05 244.09584Q32.596874 243.65834 31.878124 243.65834Q31.1125 243.65834 30.659374 244.11147Q30.20625 244.56459 30.190624 245.37709L29.1125 245.26772Q29.221874 244.04897 29.940624 243.42397Q30.675 242.78334 31.909374 242.78334Q33.14375 242.78334 33.8625 243.47084Q34.58125 244.15834 34.58125 245.17397Q34.58125 245.68959 34.3625 246.18959Q34.159374 246.67397 33.659374 247.23647Q33.175 247.78334 32.05 248.73647Q31.096874 249.53334 30.815624 249.83022Q30.55 250.11147 30.378124 250.39272L34.596874 250.39272ZM36.05 249.15834L37.159374 249.06459Q37.284374 249.87709 37.721874 250.28334Q38.175 250.68959 38.815624 250.68959Q39.565624 250.68959 40.096874 250.11147Q40.628124 249.53334 40.628124 248.59584Q40.628124 247.68959 40.1125 247.17397Q39.6125 246.64272 38.784374 246.64272Q38.284374 246.64272 37.8625 246.87709Q37.45625 247.11147 37.221874 247.47084L36.2375 247.34584L37.065624 242.93959L41.346874 242.93959L41.346874 243.93959L37.909374 243.93959L37.45625 246.25209Q38.221874 245.70522 39.065624 245.70522Q40.190624 245.70522 40.95625 246.48647Q41.7375 247.26772 41.7375 248.50209Q41.7375 249.65834 41.065624 250.51772Q40.2375 251.54897 38.815624 251.54897Q37.64375 251.54897 36.89375 250.89272Q36.159374 250.23647 36.05 249.15834Z" fill-rule="nonzero"/><path fill="#000000" d="M26.05 194.1323Q26.05 192.60104 26.3625 191.67917Q26.675 190.74167 27.284374 190.24167Q27.909374 189.74167 28.846874 189.74167Q29.534374 189.74167 30.05 190.02292Q30.58125 190.30417 30.925 190.83542Q31.26875 191.35104 31.45625 192.10104Q31.64375 192.85104 31.64375 194.1323Q31.64375 195.64792 31.33125 196.5698Q31.034374 197.49167 30.409374 198.0073Q29.8 198.5073 28.846874 198.5073Q27.6125 198.5073 26.89375 197.61667Q26.05 196.55417 26.05 194.1323ZM27.128124 194.1323Q27.128124 196.24167 27.628124 196.9448Q28.128124 197.64792 28.846874 197.64792Q29.58125 197.64792 30.065624 196.9448Q30.565624 196.24167 30.565624 194.1323Q30.565624 192.0073 30.065624 191.3198Q29.58125 190.61667 28.83125 190.61667Q28.1125 190.61667 27.675 191.22604Q27.128124 192.0073 27.128124 194.1323ZM33.64375 198.36667L33.64375 197.16354L34.846874 197.16354L34.846874 198.36667L33.64375 198.36667ZM36.05 196.11667L37.159374 196.02292Q37.284374 196.83542 37.721874 197.24167Q38.175 197.64792 38.815624 197.64792Q39.565624 197.64792 40.096874 197.0698Q40.628124 196.49167 40.628124 195.55417Q40.628124 194.64792 40.1125 194.1323Q39.6125 193.60104 38.784374 193.60104Q38.284374 193.60104 37.8625 193.83542Q37.45625 194.0698 37.221874 194.42917L36.2375 194.30417L37.065624 189.89792L41.346874 189.89792L41.346874 190.89792L37.909374 190.89792L37.45625 193.21042Q38.221874 192.66354 39.065624 192.66354Q40.190624 192.66354 40.95625 193.4448Q41.7375 194.22604 41.7375 195.46042Q41.7375 196.61667 41.065624 197.47604Q40.2375 198.5073 38.815624 198.5073Q37.64375 198.5073 36.89375 197.85104Q36.159374 197.1948 36.05 196.11667Z" fill-rule="nonzero"/><path fill="#000000" d="M19.05 141.09062Q19.05 139.55937 19.3625 138.6375Q19.675 137.7 20.284374 137.2Q20.909374 136.7 21.846874 136.7Q22.534374 136.7 23.05 136.98125Q23.58125 137.2625 23.925 137.79375Q24.26875 138.30937 24.45625 139.05937Q24.64375 139.80937 24.64375 141.09062Q24.64375 142.60625 24.33125 143.52812Q24.034374 144.45 23.409374 144.96562Q22.8 145.46562 21.846874 145.46562Q20.6125 145.46562 19.89375 144.575Q19.05 143.5125 19.05 141.09062ZM20.128124 141.09062Q20.128124 143.2 20.628124 143.90312Q21.128124 144.60625 21.846874 144.60625Q22.58125 144.60625 23.065624 143.90312Q23.565624 143.2 23.565624 141.09062Q23.565624 138.96562 23.065624 138.27812Q22.58125 137.575 21.83125 137.575Q21.1125 137.575 20.675 138.18437Q20.128124 138.96562 20.128124 141.09062ZM26.64375 145.325L26.64375 144.12187L27.846874 144.12187L27.846874 145.325L26.64375 145.325ZM29.1125 137.85625L29.1125 136.84062L34.675 136.84062L34.675 137.66875Q33.8625 138.54375 33.05 139.99687Q32.253124 141.43437 31.815624 142.96562Q31.4875 144.04375 31.409374 145.325L30.315624 145.325Q30.33125 144.30937 30.70625 142.87187Q31.096874 141.43437 31.8 140.10625Q32.51875 138.77812 33.33125 137.85625L29.1125 137.85625ZM36.05 143.075L37.159374 142.98125Q37.284374 143.79375 37.721874 144.2Q38.175 144.60625 38.815624 144.60625Q39.565624 144.60625 40.096874 144.02812Q40.628124 143.45 40.628124 142.5125Q40.628124 141.60625 40.1125 141.09062Q39.6125 140.55937 38.784374 140.55937Q38.284374 140.55937 37.8625 140.79375Q37.45625 141.02812 37.221874 141.3875L36.2375 141.2625L37.065624 136.85625L41.346874 136.85625L41.346874 137.85625L37.909374 137.85625L37.45625 140.16875Q38.221874 139.62187 39.065624 139.62187Q40.190624 139.62187 40.95625 140.40312Q41.7375 141.18437 41.7375 142.41875Q41.7375 143.575 41.065624 144.43437Q40.2375 145.46562 38.815624 145.46562Q37.64375 145.46562 36.89375 144.80937Q36.159374 144.15312 36.05 143.075Z" fill-rule="nonzero"/><path fill="#000000" d="M40.01875 92.28333L38.971874 92.28333L38.971874 85.56458Q38.58125 85.92396 37.95625 86.29896Q37.346874 86.65833 36.8625 86.83021L36.8625 85.81458Q37.7375 85.39271 38.39375 84.81458Q39.065624 84.22083 39.346874 83.65833L40.01875 83.65833L40.01875 92.28333Z" fill-rule="nonzero"/><path fill="#000000" d="M125.38683 317.45L124.33996 317.45L124.33996 310.73126Q123.94933 311.09064 123.32433 311.46564Q122.71496 311.825 122.23058 311.9969L122.23058 310.98126Q123.10558 310.5594 123.76183 309.98126Q124.43371 309.3875 124.71496 308.825L125.38683 308.825L125.38683 317.45ZM128.41809 313.21564Q128.41809 311.6844 128.73059 310.7625Q129.04309 309.825 129.65247 309.325Q130.27747 308.825 131.21497 308.825Q131.90247 308.825 132.41809 309.10626Q132.94934 309.3875 133.29309 309.91876Q133.63684 310.4344 133.82434 311.1844Q134.01184 311.9344 134.01184 313.21564Q134.01184 314.73126 133.69934 315.65314Q133.40247 316.575 132.77747 317.09064Q132.16809 317.59064 131.21497 317.59064Q129.98059 317.59064 129.26184 316.7Q128.41809 315.6375 128.41809 313.21564ZM129.49622 313.21564Q129.49622 315.325 129.99622 316.02814Q130.49622 316.73126 131.21497 316.73126Q131.94934 316.73126 132.43372 316.02814Q132.93372 315.325 132.93372 313.21564Q132.93372 311.09064 132.43372 310.40314Q131.94934 309.7 131.19934 309.7Q130.48059 309.7 130.04309 310.3094Q129.49622 311.09064 129.49622 313.21564Z" fill-rule="nonzero"/><path fill="#000000" d="M240.34795 316.4344L240.34795 317.45L234.66045 317.45Q234.66045 317.075 234.78545 316.71564Q235.0042 316.1375 235.47295 315.575Q235.95732 315.0125 236.86357 314.27814Q238.26982 313.1219 238.7542 312.45Q239.2542 311.77814 239.2542 311.1844Q239.2542 310.5594 238.80107 310.1375Q238.34795 309.7 237.6292 309.7Q236.86357 309.7 236.41045 310.15314Q235.95732 310.60626 235.9417 311.41876L234.86357 311.3094Q234.97295 310.09064 235.6917 309.46564Q236.42607 308.825 237.66045 308.825Q238.89482 308.825 239.61357 309.5125Q240.33232 310.2 240.33232 311.21564Q240.33232 311.73126 240.11357 312.23126Q239.91045 312.71564 239.41045 313.27814Q238.92607 313.825 237.80107 314.77814Q236.84795 315.575 236.5667 315.8719Q236.30107 316.15314 236.1292 316.4344L240.34795 316.4344ZM241.80107 313.21564Q241.80107 311.6844 242.11357 310.7625Q242.42607 309.825 243.03545 309.325Q243.66045 308.825 244.59795 308.825Q245.28545 308.825 245.80107 309.10626Q246.33232 309.3875 246.67607 309.91876Q247.01982 310.4344 247.20732 311.1844Q247.39482 311.9344 247.39482 313.21564Q247.39482 314.73126 247.08232 315.65314Q246.78545 316.575 246.16045 317.09064Q245.55107 317.59064 244.59795 317.59064Q243.36357 317.59064 242.64482 316.7Q241.80107 315.6375 241.80107 313.21564ZM242.8792 313.21564Q242.8792 315.325 243.3792 316.02814Q243.8792 316.73126 244.59795 316.73126Q245.33232 316.73126 245.8167 316.02814Q246.3167 315.325 246.3167 313.21564Q246.3167 311.09064 245.8167 310.40314Q245.33232 309.7 244.58232 309.7Q243.86357 309.7 243.42607 310.3094Q242.8792 311.09064 242.8792 313.21564Z" fill-rule="nonzero"/><path fill="#000000" d="M348.18405 315.1844L349.24655 315.04376Q349.41843 315.9344 349.85593 316.34064Q350.29343 316.73126 350.91843 316.73126Q351.66843 316.73126 352.18405 316.21564Q352.69968 315.7 352.69968 314.9344Q352.69968 314.21564 352.2153 313.7469Q351.74655 313.2625 351.01218 313.2625Q350.7153 313.2625 350.26218 313.3875L350.38718 312.45Q350.49655 312.46564 350.55905 312.46564Q351.23093 312.46564 351.76218 312.1219Q352.30905 311.7625 352.30905 311.02814Q352.30905 310.45 351.91843 310.075Q351.5278 309.6844 350.9028 309.6844Q350.29343 309.6844 349.87155 310.075Q349.4653 310.46564 349.35593 311.23126L348.29343 311.04376Q348.48093 309.9969 349.16843 309.41876Q349.85593 308.825 350.87155 308.825Q351.57468 308.825 352.16843 309.1375Q352.76218 309.4344 353.07468 309.95Q353.38718 310.46564 353.38718 311.0594Q353.38718 311.60626 353.0903 312.075Q352.79343 312.52814 352.2153 312.79376Q352.9653 312.96564 353.38718 313.52814Q353.80905 314.075 353.80905 314.91876Q353.80905 316.04376 352.98093 316.825Q352.16843 317.60626 350.91843 317.60626Q349.79343 317.60626 349.04343 316.9344Q348.29343 316.2469 348.18405 315.1844ZM355.18405 313.21564Q355.18405 311.6844 355.49655 310.7625Q355.80905 309.825 356.41843 309.325Q357.04343 308.825 357.98093 308.825Q358.66843 308.825 359.18405 309.10626Q359.7153 309.3875 360.05905 309.91876Q360.4028 310.4344 360.5903 311.1844Q360.7778 311.9344 360.7778 313.21564Q360.7778 314.73126 360.4653 315.65314Q360.16843 316.575 359.54343 317.09064Q358.93405 317.59064 357.98093 317.59064Q356.74655 317.59064 356.0278 316.7Q355.18405 315.6375 355.18405 313.21564ZM356.26218 313.21564Q356.26218 315.325 356.76218 316.02814Q357.26218 316.73126 357.98093 316.73126Q358.7153 316.73126 359.19968 316.02814Q359.69968 315.325 359.69968 313.21564Q359.69968 311.09064 359.19968 310.40314Q358.7153 309.7 357.9653 309.7Q357.24655 309.7 356.80905 310.3094Q356.26218 311.09064 356.26218 313.21564Z" fill-rule="nonzero"/><path fill="#000000" d="M464.94202 317.45L464.94202 315.3875L461.22327 315.3875L461.22327 314.41876L465.14514 308.85626L466.00452 308.85626L466.00452 314.41876L467.16077 314.41876L467.16077 315.3875L466.00452 315.3875L466.00452 317.45L464.94202 317.45ZM464.94202 314.41876L464.94202 310.5594L462.25452 314.41876L464.94202 314.41876ZM468.56702 313.21564Q468.56702 311.6844 468.87952 310.7625Q469.19202 309.825 469.8014 309.325Q470.4264 308.825 471.3639 308.825Q472.0514 308.825 472.56702 309.10626Q473.09827 309.3875 473.44202 309.91876Q473.78577 310.4344 473.97327 311.1844Q474.16077 311.9344 474.16077 313.21564Q474.16077 314.73126 473.84827 315.65314Q473.5514 316.575 472.9264 317.09064Q472.31702 317.59064 471.3639 317.59064Q470.12952 317.59064 469.41077 316.7Q468.56702 315.6375 468.56702 313.21564ZM469.64514 313.21564Q469.64514 315.325 470.14514 316.02814Q470.64514 316.73126 471.3639 316.73126Q472.09827 316.73126 472.58264 316.02814Q473.08264 315.325 473.08264 313.21564Q473.08264 311.09064 472.58264 310.40314Q472.09827 309.7 471.34827 309.7Q470.62952 309.7 470.19202 310.3094Q469.64514 311.09064 469.64514 313.21564Z" fill-rule="nonzero"/><path fill="#000000" d="M574.95 315.2L576.0594 315.10626Q576.1844 315.91876 576.6219 316.325Q577.075 316.73126 577.71564 316.73126Q578.46564 316.73126 578.9969 316.15314Q579.52814 315.575 579.52814 314.6375Q579.52814 313.73126 579.0125 313.21564Q578.5125 312.6844 577.6844 312.6844Q577.1844 312.6844 576.7625 312.91876Q576.35626 313.15314 576.1219 313.5125L575.1375 313.3875L575.96564 308.98126L580.2469 308.98126L580.2469 309.98126L576.8094 309.98126L576.35626 312.29376Q577.1219 311.7469 577.96564 311.7469Q579.09064 311.7469 579.85626 312.52814Q580.6375 313.3094 580.6375 314.54376Q580.6375 315.7 579.96564 316.5594Q579.1375 317.59064 577.71564 317.59064Q576.54376 317.59064 575.79376 316.9344Q575.0594 316.27814 574.95 315.2ZM581.95 313.21564Q581.95 311.6844 582.2625 310.7625Q582.575 309.825 583.1844 309.325Q583.8094 308.825 584.7469 308.825Q585.4344 308.825 585.95 309.10626Q586.48126 309.3875 586.825 309.91876Q587.16876 310.4344 587.35626 311.1844Q587.54376 311.9344 587.54376 313.21564Q587.54376 314.73126 587.23126 315.65314Q586.9344 316.575 586.3094 317.09064Q585.7 317.59064 584.7469 317.59064Q583.5125 317.59064 582.79376 316.7Q581.95 315.6375 581.95 313.21564ZM583.02814 313.21564Q583.02814 315.325 583.52814 316.02814Q584.02814 316.73126 584.7469 316.73126Q585.48126 316.73126 585.96564 316.02814Q586.46564 315.325 586.46564 313.21564Q586.46564 311.09064 585.96564 310.40314Q585.48126 309.7 584.73126 309.7Q584.0125 309.7 583.575 310.3094Q583.02814 311.09064 583.02814 313.21564Z" fill-rule="nonzero"/><path stroke="#4285f4" stroke-width="4.0" stroke-linecap="butt" d="M198.5 61.916668L210.5 61.916668" fill-rule="nonzero"/><path fill="#1a1a1a" d="M221.59375 64.979164L221.75 65.90104Q221.29688 65.99479 220.95312 65.99479Q220.375 65.99479 220.0625 65.822914Q219.75 65.635414 219.60938 65.33854Q219.48438 65.041664 219.48438 64.08854L219.48438 60.510414L218.71875 60.510414L218.71875 59.697914L219.48438 59.697914L219.48438 58.15104L220.53125 57.52604L220.53125 59.697914L221.59375 59.697914L221.59375 60.510414L220.53125 60.510414L220.53125 64.15104Q220.53125 64.604164 220.57812 64.729164Q220.64062 64.854164 220.76562 64.93229Q220.89062 65.010414 221.125 65.010414Q221.3125 65.010414 221.59375 64.979164ZM226.54688 63.916664L227.64062 64.041664Q227.39062 64.99479 226.6875 65.52604Q225.98438 66.05729 224.90625 66.05729Q223.54688 66.05729 222.73438 65.21354Q221.9375 64.36979 221.9375 62.854164Q221.9375 61.291664 222.75 60.43229Q223.5625 59.55729 224.84375 59.55729Q226.09375 59.55729 226.875 60.40104Q227.67188 61.24479 227.67188 62.791664Q227.67188 62.885414 227.67188 63.072914L223.03125 63.072914Q223.09375 64.104164 223.60938 64.65104Q224.125 65.18229 224.90625 65.18229Q225.48438 65.18229 225.89062 64.885414Q226.3125 64.572914 226.54688 63.916664ZM223.09375 62.21354L226.5625 62.21354Q226.5 61.416664 226.17188 61.02604Q225.65625 60.416664 224.85938 60.416664Q224.125 60.416664 223.625 60.90104Q223.14062 61.385414 223.09375 62.21354ZM228.875 64.05729L229.90625 63.90104Q230.0 64.52604 230.39062 64.854164Q230.79688 65.18229 231.53125 65.18229Q232.25 65.18229 232.59375 64.90104Q232.95312 64.604164 232.95312 64.197914Q232.95312 63.83854 232.64062 63.635414Q232.42188 63.49479 231.5625 63.27604Q230.40625 62.979164 229.95312 62.77604Q229.51562 62.55729 229.28125 62.18229Q229.04688 61.80729 229.04688 61.33854Q229.04688 60.93229 229.23438 60.572914Q229.42188 60.21354 229.75 59.979164Q230.0 59.80729 230.42188 59.68229Q230.84375 59.55729 231.34375 59.55729Q232.0625 59.55729 232.60938 59.77604Q233.17188 59.979164 233.4375 60.33854Q233.70312 60.697914 233.79688 61.291664L232.76562 61.43229Q232.70312 60.96354 232.35938 60.697914Q232.03125 60.416664 231.40625 60.416664Q230.6875 60.416664 230.375 60.666664Q230.0625 60.90104 230.0625 61.229164Q230.0625 61.43229 230.1875 61.58854Q230.32812 61.760414 230.59375 61.86979Q230.75 61.93229 231.53125 62.135414Q232.65625 62.447914 233.09375 62.635414Q233.53125 62.822914 233.78125 63.18229Q234.03125 63.541664 234.03125 64.08854Q234.03125 64.61979 233.71875 65.08854Q233.42188 65.541664 232.84375 65.80729Q232.26562 66.05729 231.53125 66.05729Q230.3125 66.05729 229.67188 65.55729Q229.04688 65.041664 228.875 64.05729ZM237.59375 64.979164L237.75 65.90104Q237.29688 65.99479 236.95312 65.99479Q236.375 65.99479 236.0625 65.822914Q235.75 65.635414 235.60938 65.33854Q235.48438 65.041664 235.48438 64.08854L235.48438 60.510414L234.71875 60.510414L234.71875 59.697914L235.48438 59.697914L235.48438 58.15104L236.53125 57.52604L236.53125 59.697914L237.59375 59.697914L237.59375 60.510414L236.53125 60.510414L236.53125 64.15104Q236.53125 64.604164 236.57812 64.729164Q236.64062 64.854164 236.76562 64.93229Q236.89062 65.010414 237.125 65.010414Q237.3125 65.010414 237.59375 64.979164ZM245.35938 65.15104Q244.76562 65.65104 244.21875 65.854164Q243.6875 66.05729 243.0625 66.05729Q242.03125 66.05729 241.48438 65.55729Q240.9375 65.05729 240.9375 64.27604Q240.9375 63.822914 241.14062 63.447914Q241.34375 63.05729 241.6875 62.83854Q242.03125 62.604164 242.45312 62.49479Q242.75 62.40104 243.39062 62.322914Q244.65625 62.18229 245.26562 61.96354Q245.26562 61.74479 245.26562 61.697914Q245.26562 61.041664 244.96875 60.77604Q244.5625 60.43229 243.76562 60.43229Q243.03125 60.43229 242.67188 60.697914Q242.3125 60.947914 242.14062 61.604164L241.10938 61.46354Q241.25 60.80729 241.57812 60.40104Q241.90625 59.99479 242.51562 59.77604Q243.125 59.55729 243.92188 59.55729Q244.71875 59.55729 245.21875 59.74479Q245.71875 59.93229 245.95312 60.21354Q246.1875 60.49479 246.28125 60.93229Q246.32812 61.197914 246.32812 61.90104L246.32812 63.30729Q246.32812 64.77604 246.39062 65.166664Q246.46875 65.55729 246.67188 65.916664L245.5625 65.916664Q245.40625 65.58854 245.35938 65.15104ZM245.26562 62.791664Q244.6875 63.02604 243.54688 63.197914Q242.89062 63.291664 242.625 63.416664Q242.35938 63.52604 242.20312 63.74479Q242.0625 63.96354 242.0625 64.24479Q242.0625 64.666664 242.375 64.947914Q242.70312 65.229164 243.3125 65.229164Q243.92188 65.229164 244.39062 64.96354Q244.875 64.697914 245.09375 64.229164Q245.26562 63.86979 245.26562 63.18229L245.26562 62.791664ZM252.35938 63.635414L253.39062 63.77604Q253.21875 64.83854 252.51562 65.447914Q251.8125 66.05729 250.79688 66.05729Q249.51562 66.05729 248.73438 65.229164Q247.96875 64.385414 247.96875 62.822914Q247.96875 61.822914 248.29688 61.072914Q248.64062 60.30729 249.3125 59.93229Q250.0 59.55729 250.8125 59.55729Q251.8125 59.55729 252.45312 60.072914Q253.10938 60.572914 253.29688 61.52604L252.26562 61.68229Q252.125 61.05729 251.75 60.74479Q251.375 60.416664 250.84375 60.416664Q250.04688 60.416664 249.54688 60.99479Q249.04688 61.55729 249.04688 62.791664Q249.04688 64.05729 249.53125 64.61979Q250.01562 65.18229 250.78125 65.18229Q251.40625 65.18229 251.8125 64.80729Q252.23438 64.43229 252.35938 63.635414ZM258.35938 63.635414L259.39062 63.77604Q259.21875 64.83854 258.51562 65.447914Q257.8125 66.05729 256.79688 66.05729Q255.51562 66.05729 254.73438 65.229164Q253.96875 64.385414 253.96875 62.822914Q253.96875 61.822914 254.29688 61.072914Q254.64062 60.30729 255.3125 59.93229Q256.0 59.55729 256.8125 59.55729Q257.8125 59.55729 258.45312 60.072914Q259.10938 60.572914 259.29688 61.52604L258.26562 61.68229Q258.125 61.05729 257.75 60.74479Q257.375 60.416664 256.84375 60.416664Q256.04688 60.416664 255.54688 60.99479Q255.04688 61.55729 255.04688 62.791664Q255.04688 64.05729 255.53125 64.61979Q256.01562 65.18229 256.78125 65.18229Q257.40625 65.18229 257.8125 64.80729Q258.23438 64.43229 258.35938 63.635414ZM264.375 65.916664L264.375 64.99479Q263.64062 66.05729 262.39062 66.05729Q261.84375 66.05729 261.35938 65.854164Q260.89062 65.635414 260.65625 65.322914Q260.42188 64.99479 260.32812 64.52604Q260.26562 64.229164 260.26562 63.541664L260.26562 59.697914L261.32812 59.697914L261.32812 63.15104Q261.32812 63.96354 261.39062 64.260414Q261.48438 64.666664 261.79688 64.916664Q262.125 65.15104 262.60938 65.15104Q263.07812 65.15104 263.48438 64.916664Q263.90625 64.666664 264.07812 64.24479Q264.26562 63.822914 264.26562 63.02604L264.26562 59.697914L265.3125 59.697914L265.3125 65.916664L264.375 65.916664ZM267.28125 65.916664L267.28125 59.697914L268.23438 59.697914L268.23438 60.635414Q268.59375 59.979164 268.89062 59.77604Q269.20312 59.55729 269.57812 59.55729Q270.10938 59.55729 270.65625 59.885414L270.29688 60.86979Q269.90625 60.635414 269.53125 60.635414Q269.17188 60.635414 268.89062 60.854164Q268.625 61.05729 268.51562 61.43229Q268.32812 61.99479 268.32812 62.65104L268.32812 65.916664L267.28125 65.916664ZM275.35938 65.15104Q274.76562 65.65104 274.21875 65.854164Q273.6875 66.05729 273.0625 66.05729Q272.03125 66.05729 271.48438 65.55729Q270.9375 65.05729 270.9375 64.27604Q270.9375 63.822914 271.14062 63.447914Q271.34375 63.05729 271.6875 62.83854Q272.03125 62.604164 272.45312 62.49479Q272.75 62.40104 273.39062 62.322914Q274.65625 62.18229 275.26562 61.96354Q275.26562 61.74479 275.26562 61.697914Q275.26562 61.041664 274.96875 60.77604Q274.5625 60.43229 273.76562 60.43229Q273.03125 60.43229 272.67188 60.697914Q272.3125 60.947914 272.14062 61.604164L271.10938 61.46354Q271.25 60.80729 271.57812 60.40104Q271.90625 59.99479 272.51562 59.77604Q273.125 59.55729 273.92188 59.55729Q274.71875 59.55729 275.21875 59.74479Q275.71875 59.93229 275.95312 60.21354Q276.1875 60.49479 276.28125 60.93229Q276.32812 61.197914 276.32812 61.90104L276.32812 63.30729Q276.32812 64.77604 276.39062 65.166664Q276.46875 65.55729 276.67188 65.916664L275.5625 65.916664Q275.40625 65.58854 275.35938 65.15104ZM275.26562 62.791664Q274.6875 63.02604 273.54688 63.197914Q272.89062 63.291664 272.625 63.416664Q272.35938 63.52604 272.20312 63.74479Q272.0625 63.96354 272.0625 64.24479Q272.0625 64.666664 272.375 64.947914Q272.70312 65.229164 273.3125 65.229164Q273.92188 65.229164 274.39062 64.96354Q274.875 64.697914 275.09375 64.229164Q275.26562 63.86979 275.26562 63.18229L275.26562 62.791664ZM282.35938 63.635414L283.39062 63.77604Q283.21875 64.83854 282.51562 65.447914Q281.8125 66.05729 280.79688 66.05729Q279.51562 66.05729 278.73438 65.229164Q277.96875 64.385414 277.96875 62.822914Q277.96875 61.822914 278.29688 61.072914Q278.64062 60.30729 279.3125 59.93229Q280.0 59.55729 280.8125 59.55729Q281.8125 59.55729 282.45312 60.072914Q283.10938 60.572914 283.29688 61.52604L282.26562 61.68229Q282.125 61.05729 281.75 60.74479Q281.375 60.416664 280.84375 60.416664Q280.04688 60.416664 279.54688 60.99479Q279.04688 61.55729 279.04688 62.791664Q279.04688 64.05729 279.53125 64.61979Q280.01562 65.18229 280.78125 65.18229Q281.40625 65.18229 281.8125 64.80729Q282.23438 64.43229 282.35938 63.635414ZM284.25 68.30729L284.125 67.322914Q284.46875 67.416664 284.73438 67.416664Q285.07812 67.416664 285.28125 67.291664Q285.5 67.18229 285.64062 66.979164Q285.73438 66.80729 285.96875 66.18229Q285.98438 66.104164 286.0625 65.93229L283.6875 59.697914L284.82812 59.697914L286.125 63.291664Q286.375 63.979164 286.57812 64.74479Q286.76562 64.010414 287.01562 63.322914L288.34375 59.697914L289.39062 59.697914L287.03125 66.02604Q286.64062 67.041664 286.4375 67.43229Q286.15625 67.96354 285.78125 68.197914Q285.42188 68.447914 284.92188 68.447914Q284.625 68.447914 284.25 68.30729Z" fill-rule="nonzero"/><path stroke="#ea4335" stroke-width="4.0" stroke-linecap="butt" d="M305.5 61.916668L317.5 61.916668" fill-rule="nonzero"/><path fill="#1a1a1a" d="M328.59375 64.979164L328.75 65.90104Q328.29688 65.99479 327.95312 65.99479Q327.375 65.99479 327.0625 65.822914Q326.75 65.635414 326.60938 65.33854Q326.48438 65.041664 326.48438 64.08854L326.48438 60.510414L325.71875 60.510414L325.71875 59.697914L326.48438 59.697914L326.48438 58.15104L327.53125 57.52604L327.53125 59.697914L328.59375 59.697914L328.59375 60.510414L327.53125 60.510414L327.53125 64.15104Q327.53125 64.604164 327.57812 64.729164Q327.64062 64.854164 327.76562 64.93229Q327.89062 65.010414 328.125 65.010414Q328.3125 65.010414 328.59375 64.979164ZM329.28125 65.916664L329.28125 59.697914L330.23438 59.697914L330.23438 60.635414Q330.59375 59.979164 330.89062 59.77604Q331.20312 59.55729 331.57812 59.55729Q332.10938 59.55729 332.65625 59.885414L332.29688 60.86979Q331.90625 60.635414 331.53125 60.635414Q331.17188 60.635414 330.89062 60.854164Q330.625 61.05729 330.51562 61.43229Q330.32812 61.99479 330.32812 62.65104L330.32812 65.916664L329.28125 65.916664ZM337.35938 65.15104Q336.76562 65.65104 336.21875 65.854164Q335.6875 66.05729 335.0625 66.05729Q334.03125 66.05729 333.48438 65.55729Q332.9375 65.05729 332.9375 64.27604Q332.9375 63.822914 333.14062 63.447914Q333.34375 63.05729 333.6875 62.83854Q334.03125 62.604164 334.45312 62.49479Q334.75 62.40104 335.39062 62.322914Q336.65625 62.18229 337.26562 61.96354Q337.26562 61.74479 337.26562 61.697914Q337.26562 61.041664 336.96875 60.77604Q336.5625 60.43229 335.76562 60.43229Q335.03125 60.43229 334.67188 60.697914Q334.3125 60.947914 334.14062 61.604164L333.10938 61.46354Q333.25 60.80729 333.57812 60.40104Q333.90625 59.99479 334.51562 59.77604Q335.125 59.55729 335.92188 59.55729Q336.71875 59.55729 337.21875 59.74479Q337.71875 59.93229 337.95312 60.21354Q338.1875 60.49479 338.28125 60.93229Q338.32812 61.197914 338.32812 61.90104L338.32812 63.30729Q338.32812 64.77604 338.39062 65.166664Q338.46875 65.55729 338.67188 65.916664L337.5625 65.916664Q337.40625 65.58854 337.35938 65.15104ZM337.26562 62.791664Q336.6875 63.02604 335.54688 63.197914Q334.89062 63.291664 334.625 63.416664Q334.35938 63.52604 334.20312 63.74479Q334.0625 63.96354 334.0625 64.24479Q334.0625 64.666664 334.375 64.947914Q334.70312 65.229164 335.3125 65.229164Q335.92188 65.229164 336.39062 64.96354Q336.875 64.697914 337.09375 64.229164Q337.26562 63.86979 337.26562 63.18229L337.26562 62.791664ZM340.29688 58.541664L340.29688 57.322914L341.35938 57.322914L341.35938 58.541664L340.29688 58.541664ZM340.29688 65.916664L340.29688 59.697914L341.35938 59.697914L341.35938 65.916664L340.29688 65.916664ZM343.29688 65.916664L343.29688 59.697914L344.23438 59.697914L344.23438 60.572914Q344.92188 59.55729 346.21875 59.55729Q346.78125 59.55729 347.25 59.760414Q347.73438 59.96354 347.96875 60.291664Q348.20312 60.61979 348.29688 61.05729Q348.34375 61.354164 348.34375 62.08854L348.34375 65.916664L347.29688 65.916664L347.29688 62.135414Q347.29688 61.479164 347.17188 61.166664Q347.04688 60.854164 346.73438 60.666664Q346.42188 60.46354 346.0 60.46354Q345.32812 60.46354 344.82812 60.90104Q344.34375 61.322914 344.34375 62.510414L344.34375 65.916664L343.29688 65.916664ZM357.35938 65.15104Q356.76562 65.65104 356.21875 65.854164Q355.6875 66.05729 355.0625 66.05729Q354.03125 66.05729 353.48438 65.55729Q352.9375 65.05729 352.9375 64.27604Q352.9375 63.822914 353.14062 63.447914Q353.34375 63.05729 353.6875 62.83854Q354.03125 62.604164 354.45312 62.49479Q354.75 62.40104 355.39062 62.322914Q356.65625 62.18229 357.26562 61.96354Q357.26562 61.74479 357.26562 61.697914Q357.26562 61.041664 356.96875 60.77604Q356.5625 60.43229 355.76562 60.43229Q355.03125 60.43229 354.67188 60.697914Q354.3125 60.947914 354.14062 61.604164L353.10938 61.46354Q353.25 60.80729 353.57812 60.40104Q353.90625 59.99479 354.51562 59.77604Q355.125 59.55729 355.92188 59.55729Q356.71875 59.55729 357.21875 59.74479Q357.71875 59.93229 357.95312 60.21354Q358.1875 60.49479 358.28125 60.93229Q358.32812 61.197914 358.32812 61.90104L358.32812 63.30729Q358.32812 64.77604 358.39062 65.166664Q358.46875 65.55729 358.67188 65.916664L357.5625 65.916664Q357.40625 65.58854 357.35938 65.15104ZM357.26562 62.791664Q356.6875 63.02604 355.54688 63.197914Q354.89062 63.291664 354.625 63.416664Q354.35938 63.52604 354.20312 63.74479Q354.0625 63.96354 354.0625 64.24479Q354.0625 64.666664 354.375 64.947914Q354.70312 65.229164 355.3125 65.229164Q355.92188 65.229164 356.39062 64.96354Q356.875 64.697914 357.09375 64.229164Q357.26562 63.86979 357.26562 63.18229L357.26562 62.791664ZM364.35938 63.635414L365.39062 63.77604Q365.21875 64.83854 364.51562 65.447914Q363.8125 66.05729 362.79688 66.05729Q361.51562 66.05729 360.73438 65.229164Q359.96875 64.385414 359.96875 62.822914Q359.96875 61.822914 360.29688 61.072914Q360.64062 60.30729 361.3125 59.93229Q362.0 59.55729 362.8125 59.55729Q363.8125 59.55729 364.45312 60.072914Q365.10938 60.572914 365.29688 61.52604L364.26562 61.68229Q364.125 61.05729 363.75 60.74479Q363.375 60.416664 362.84375 60.416664Q362.04688 60.416664 361.54688 60.99479Q361.04688 61.55729 361.04688 62.791664Q361.04688 64.05729 361.53125 64.61979Q362.01562 65.18229 362.78125 65.18229Q363.40625 65.18229 363.8125 64.80729Q364.23438 64.43229 364.35938 63.635414ZM370.35938 63.635414L371.39062 63.77604Q371.21875 64.83854 370.51562 65.447914Q369.8125 66.05729 368.79688 66.05729Q367.51562 66.05729 366.73438 65.229164Q365.96875 64.385414 365.96875 62.822914Q365.96875 61.822914 366.29688 61.072914Q366.64062 60.30729 367.3125 59.93229Q368.0 59.55729 368.8125 59.55729Q369.8125 59.55729 370.45312 60.072914Q371.10938 60.572914 371.29688 61.52604L370.26562 61.68229Q370.125 61.05729 369.75 60.74479Q369.375 60.416664 368.84375 60.416664Q368.04688 60.416664 367.54688 60.99479Q367.04688 61.55729 367.04688 62.791664Q367.04688 64.05729 367.53125 64.61979Q368.01562 65.18229 368.78125 65.18229Q369.40625 65.18229 369.8125 64.80729Q370.23438 64.43229 370.35938 63.635414ZM376.375 65.916664L376.375 64.99479Q375.64062 66.05729 374.39062 66.05729Q373.84375 66.05729 373.35938 65.854164Q372.89062 65.635414 372.65625 65.322914Q372.42188 64.99479 372.32812 64.52604Q372.26562 64.229164 372.26562 63.541664L372.26562 59.697914L373.32812 59.697914L373.32812 63.15104Q373.32812 63.96354 373.39062 64.260414Q373.48438 64.666664 373.79688 64.916664Q374.125 65.15104 374.60938 65.15104Q375.07812 65.15104 375.48438 64.916664Q375.90625 64.666664 376.07812 64.24479Q376.26562 63.822914 376.26562 63.02604L376.26562 59.697914L377.3125 59.697914L377.3125 65.916664L376.375 65.916664ZM379.28125 65.916664L379.28125 59.697914L380.23438 59.697914L380.23438 60.635414Q380.59375 59.979164 380.89062 59.77604Q381.20312 59.55729 381.57812 59.55729Q382.10938 59.55729 382.65625 59.885414L382.29688 60.86979Q381.90625 60.635414 381.53125 60.635414Q381.17188 60.635414 380.89062 60.854164Q380.625 61.05729 380.51562 61.43229Q380.32812 61.99479 380.32812 62.65104L380.32812 65.916664L379.28125 65.916664ZM387.35938 65.15104Q386.76562 65.65104 386.21875 65.854164Q385.6875 66.05729 385.0625 66.05729Q384.03125 66.05729 383.48438 65.55729Q382.9375 65.05729 382.9375 64.27604Q382.9375 63.822914 383.14062 63.447914Q383.34375 63.05729 383.6875 62.83854Q384.03125 62.604164 384.45312 62.49479Q384.75 62.40104 385.39062 62.322914Q386.65625 62.18229 387.26562 61.96354Q387.26562 61.74479 387.26562 61.697914Q387.26562 61.041664 386.96875 60.77604Q386.5625 60.43229 385.76562 60.43229Q385.03125 60.43229 384.67188 60.697914Q384.3125 60.947914 384.14062 61.604164L383.10938 61.46354Q383.25 60.80729 383.57812 60.40104Q383.90625 59.99479 384.51562 59.77604Q385.125 59.55729 385.92188 59.55729Q386.71875 59.55729 387.21875 59.74479Q387.71875 59.93229 387.95312 60.21354Q388.1875 60.49479 388.28125 60.93229Q388.32812 61.197914 388.32812 61.90104L388.32812 63.30729Q388.32812 64.77604 388.39062 65.166664Q388.46875 65.55729 388.67188 65.916664L387.5625 65.916664Q387.40625 65.58854 387.35938 65.15104ZM387.26562 62.791664Q386.6875 63.02604 385.54688 63.197914Q384.89062 63.291664 384.625 63.416664Q384.35938 63.52604 384.20312 63.74479Q384.0625 63.96354 384.0625 64.24479Q384.0625 64.666664 384.375 64.947914Q384.70312 65.229164 385.3125 65.229164Q385.92188 65.229164 386.39062 64.96354Q386.875 64.697914 387.09375 64.229164Q387.26562 63.86979 387.26562 63.18229L387.26562 62.791664ZM394.35938 63.635414L395.39062 63.77604Q395.21875 64.83854 394.51562 65.447914Q393.8125 66.05729 392.79688 66.05729Q391.51562 66.05729 390.73438 65.229164Q389.96875 64.385414 389.96875 62.822914Q389.96875 61.822914 390.29688 61.072914Q390.64062 60.30729 391.3125 59.93229Q392.0 59.55729 392.8125 59.55729Q393.8125 59.55729 394.45312 60.072914Q395.10938 60.572914 395.29688 61.52604L394.26562 61.68229Q394.125 61.05729 393.75 60.74479Q393.375 60.416664 392.84375 60.416664Q392.04688 60.416664 391.54688 60.99479Q391.04688 61.55729 391.04688 62.791664Q391.04688 64.05729 391.53125 64.61979Q392.01562 65.18229 392.78125 65.18229Q393.40625 65.18229 393.8125 64.80729Q394.23438 64.43229 394.35938 63.635414ZM396.25 68.30729L396.125 67.322914Q396.46875 67.416664 396.73438 67.416664Q397.07812 67.416664 397.28125 67.291664Q397.5 67.18229 397.64062 66.979164Q397.73438 66.80729 397.96875 66.18229Q397.98438 66.104164 398.0625 65.93229L395.6875 59.697914L396.82812 59.697914L398.125 63.291664Q398.375 63.979164 398.57812 64.74479Q398.76562 64.010414 399.01562 63.322914L400.34375 59.697914L401.39062 59.697914L399.03125 66.02604Q398.64062 67.041664 398.4375 67.43229Q398.15625 67.96354 397.78125 68.197914Q397.42188 68.447914 396.92188 68.447914Q396.625 68.447914 396.25 68.30729Z" fill-rule="nonzero"/><path fill="#757575" d="M19.8625 37.55L19.8625 27.175L21.45625 27.175L21.45625 28.659374Q22.596874 26.940624 24.753124 26.940624Q25.690624 26.940624 26.471874 27.284374Q27.26875 27.6125 27.659374 28.159374Q28.05 28.70625 28.20625 29.45625Q28.3 29.95625 28.3 31.175L28.3 37.55L26.534374 37.55L26.534374 31.2375Q26.534374 30.159374 26.33125 29.628124Q26.128124 29.096874 25.596874 28.784374Q25.08125 28.471874 24.378124 28.471874Q23.253124 28.471874 22.440624 29.190624Q21.628124 29.89375 21.628124 31.878124L21.628124 37.55L19.8625 37.55ZM37.64375 36.26875Q36.659374 37.096874 35.753124 37.440624Q34.846874 37.784374 33.815624 37.784374Q32.1125 37.784374 31.190624 36.95625Q30.26875 36.1125 30.26875 34.815624Q30.26875 34.05 30.6125 33.425Q30.971874 32.8 31.534374 32.425Q32.096874 32.034374 32.8 31.83125Q33.315624 31.70625 34.3625 31.565624Q36.4875 31.315624 37.4875 30.971874Q37.503124 30.6125 37.503124 30.503124Q37.503124 29.440624 37.003124 28.9875Q36.33125 28.39375 35.003124 28.39375Q33.753124 28.39375 33.159374 28.83125Q32.58125 29.26875 32.3 30.378124L30.58125 30.14375Q30.815624 29.034374 31.346874 28.3625Q31.878124 27.675 32.89375 27.315624Q33.909374 26.940624 35.253124 26.940624Q36.58125 26.940624 37.409374 27.253124Q38.2375 27.565624 38.628124 28.05Q39.01875 28.51875 39.175 29.2375Q39.26875 29.690624 39.26875 30.8625L39.26875 33.20625Q39.26875 35.659374 39.378124 36.315624Q39.4875 36.95625 39.83125 37.55L37.9875 37.55Q37.721874 37.003124 37.64375 36.26875ZM37.4875 32.346874Q36.534374 32.7375 34.6125 33.003124Q33.534374 33.159374 33.08125 33.3625Q32.64375 33.55 32.39375 33.925Q32.14375 34.3 32.14375 34.76875Q32.14375 35.471874 32.675 35.940624Q33.20625 36.409374 34.2375 36.409374Q35.253124 36.409374 36.034374 35.971874Q36.83125 35.51875 37.20625 34.753124Q37.4875 34.14375 37.4875 32.9875L37.4875 32.346874ZM41.878124 25.253124L41.878124 23.2375L43.64375 23.2375L43.64375 25.253124L41.878124 25.253124ZM41.878124 37.55L41.878124 27.175L43.64375 27.175L43.64375 37.55L41.878124 37.55ZM48.753124 37.55L44.8 27.175L46.659374 27.175L48.89375 33.39375Q49.253124 34.39375 49.55 35.471874Q49.784374 34.659374 50.20625 33.503124L52.503124 27.175L54.315624 27.175L50.39375 37.55L48.753124 37.55ZM62.971874 34.20625L64.78438 34.440624Q64.3625 36.01875 63.190624 36.909374Q62.034374 37.784374 60.221874 37.784374Q57.95625 37.784374 56.6125 36.39375Q55.284374 34.9875 55.284374 32.45625Q55.284374 29.83125 56.628124 28.39375Q57.971874 26.940624 60.128124 26.940624Q62.20625 26.940624 63.51875 28.3625Q64.84688 29.76875 64.84688 32.346874Q64.84688 32.503124 64.83125 32.815624L57.096874 32.815624Q57.190624 34.51875 58.065624 35.425Q58.940624 36.33125 60.2375 36.33125Q61.20625 36.33125 61.878124 35.83125Q62.565624 35.315624 62.971874 34.20625ZM57.190624 31.3625L62.9875 31.3625Q62.878124 30.065624 62.33125 29.409374Q61.4875 28.39375 60.14375 28.39375Q58.940624 28.39375 58.1125 29.20625Q57.284374 30.003124 57.190624 31.3625ZM74.4875 37.55L72.8625 37.55L72.8625 23.2375L74.6125 23.2375L74.6125 28.346874Q75.7375 26.940624 77.45625 26.940624Q78.40938 26.940624 79.26875 27.33125Q80.12813 27.721874 80.675 28.425Q81.22188 29.1125 81.53438 30.096874Q81.84688 31.08125 81.84688 32.20625Q81.84688 34.878124 80.53438 36.33125Q79.22188 37.784374 77.37813 37.784374Q75.53438 37.784374 74.4875 36.253124L74.4875 37.55ZM74.47188 32.284374Q74.47188 34.14375 74.97188 34.9875Q75.81563 36.33125 77.22188 36.33125Q78.37813 36.33125 79.20625 35.33125Q80.05 34.33125 80.05 32.346874Q80.05 30.315624 79.2375 29.3625Q78.44063 28.39375 77.3 28.39375Q76.14375 28.39375 75.3 29.39375Q74.47188 30.39375 74.47188 32.284374ZM90.64375 36.26875Q89.65938 37.096874 88.75313 37.440624Q87.84688 37.784374 86.81563 37.784374Q85.1125 37.784374 84.19063 36.95625Q83.26875 36.1125 83.26875 34.815624Q83.26875 34.05 83.6125 33.425Q83.97188 32.8 84.53438 32.425Q85.09688 32.034374 85.8 31.83125Q86.31563 31.70625 87.3625 31.565624Q89.4875 31.315624 90.4875 30.971874Q90.50313 30.6125 90.50313 30.503124Q90.50313 29.440624 90.00313 28.9875Q89.33125 28.39375 88.00313 28.39375Q86.75313 28.39375 86.15938 28.83125Q85.58125 29.26875 85.3 30.378124L83.58125 30.14375Q83.81563 29.034374 84.34688 28.3625Q84.87813 27.675 85.89375 27.315624Q86.90938 26.940624 88.25313 26.940624Q89.58125 26.940624 90.40938 27.253124Q91.2375 27.565624 91.62813 28.05Q92.01875 28.51875 92.175 29.2375Q92.26875 29.690624 92.26875 30.8625L92.26875 33.20625Q92.26875 35.659374 92.37813 36.315624Q92.4875 36.95625 92.83125 37.55L90.9875 37.55Q90.72188 37.003124 90.64375 36.26875ZM90.4875 32.346874Q89.53438 32.7375 87.6125 33.003124Q86.53438 33.159374 86.08125 33.3625Q85.64375 33.55 85.39375 33.925Q85.14375 34.3 85.14375 34.76875Q85.14375 35.471874 85.675 35.940624Q86.20625 36.409374 87.2375 36.409374Q88.25313 36.409374 89.03438 35.971874Q89.83125 35.51875 90.20625 34.753124Q90.4875 34.14375 90.4875 32.9875L90.4875 32.346874ZM94.78438 41.55L94.59688 39.89375Q95.175 40.05 95.59688 40.05Q96.19063 40.05 96.53438 39.846874Q96.89375 39.659374 97.1125 39.315624Q97.28438 39.05 97.65938 38.003124Q97.70625 37.846874 97.81563 37.565624L93.87813 27.175L95.76875 27.175L97.925 33.190624Q98.34688 34.33125 98.675 35.58125Q98.9875 34.378124 99.39375 33.221874L101.6125 27.175L103.37813 27.175L99.425 37.721874Q98.8 39.440624 98.44063 40.08125Q97.97188 40.95625 97.3625 41.346874Q96.76875 41.753124 95.925 41.753124Q95.40938 41.753124 94.78438 41.55ZM111.97188 34.20625L113.78438 34.440624Q113.3625 36.01875 112.19063 36.909374Q111.03438 37.784374 109.22188 37.784374Q106.95625 37.784374 105.6125 36.39375Q104.28438 34.9875 104.28438 32.45625Q104.28438 29.83125 105.62813 28.39375Q106.97188 26.940624 109.12813 26.940624Q111.20625 26.940624 112.51875 28.3625Q113.84688 29.76875 113.84688 32.346874Q113.84688 32.503124 113.83125 32.815624L106.09688 32.815624Q106.19063 34.51875 107.06563 35.425Q107.94063 36.33125 109.2375 36.33125Q110.20625 36.33125 110.87813 35.83125Q111.56563 35.315624 111.97188 34.20625ZM106.19063 31.3625L111.9875 31.3625Q111.87813 30.065624 111.33125 29.409374Q110.4875 28.39375 109.14375 28.39375Q107.94063 28.39375 107.1125 29.20625Q106.28438 30.003124 106.19063 31.3625ZM115.15938 34.45625L116.90938 34.175Q117.05 35.221874 117.72188 35.784374Q118.39375 36.33125 119.59688 36.33125Q120.8 36.33125 121.37813 35.846874Q121.97188 35.346874 121.97188 34.690624Q121.97188 34.096874 121.45625 33.753124Q121.09688 33.51875 119.65938 33.159374Q117.72188 32.659374 116.97188 32.315624Q116.2375 31.95625 115.84688 31.33125Q115.45625 30.690624 115.45625 29.925Q115.45625 29.2375 115.76875 28.64375Q116.09688 28.05 116.64375 27.659374Q117.05 27.3625 117.75313 27.159374Q118.47188 26.940624 119.28438 26.940624Q120.50313 26.940624 121.425 27.3Q122.34688 27.64375 122.78438 28.253124Q123.22188 28.846874 123.39375 29.846874L121.675 30.08125Q121.55 29.284374 120.9875 28.846874Q120.425 28.39375 119.40938 28.39375Q118.19063 28.39375 117.675 28.8Q117.15938 29.190624 117.15938 29.721874Q117.15938 30.065624 117.37813 30.346874Q117.58125 30.628124 118.05 30.815624Q118.31563 30.909374 119.59688 31.253124Q121.47188 31.753124 122.20625 32.08125Q122.94063 32.39375 123.3625 33.003124Q123.78438 33.596874 123.78438 34.503124Q123.78438 35.378124 123.26875 36.159374Q122.75313 36.940624 121.78438 37.3625Q120.81563 37.784374 119.59688 37.784374Q117.58125 37.784374 116.51875 36.940624Q115.45625 36.096874 115.15938 34.45625ZM138.64375 36.26875Q137.65938 37.096874 136.75313 37.440624Q135.84688 37.784374 134.81563 37.784374Q133.1125 37.784374 132.19063 36.95625Q131.26875 36.1125 131.26875 34.815624Q131.26875 34.05 131.6125 33.425Q131.97188 32.8 132.53438 32.425Q133.09688 32.034374 133.8 31.83125Q134.31563 31.70625 135.3625 31.565624Q137.4875 31.315624 138.4875 30.971874Q138.50313 30.6125 138.50313 30.503124Q138.50313 29.440624 138.00313 28.9875Q137.33125 28.39375 136.00313 28.39375Q134.75313 28.39375 134.15938 28.83125Q133.58125 29.26875 133.3 30.378124L131.58125 30.14375Q131.81563 29.034374 132.34688 28.3625Q132.87813 27.675 133.89375 27.315624Q134.90938 26.940624 136.25313 26.940624Q137.58125 26.940624 138.40938 27.253124Q139.2375 27.565624 139.62813 28.05Q140.01875 28.51875 140.175 29.2375Q140.26875 29.690624 140.26875 30.8625L140.26875 33.20625Q140.26875 35.659374 140.37813 36.315624Q140.4875 36.95625 140.83125 37.55L138.9875 37.55Q138.72188 37.003124 138.64375 36.26875ZM138.4875 32.346874Q137.53438 32.7375 135.6125 33.003124Q134.53438 33.159374 134.08125 33.3625Q133.64375 33.55 133.39375 33.925Q133.14375 34.3 133.14375 34.76875Q133.14375 35.471874 133.675 35.940624Q134.20625 36.409374 135.2375 36.409374Q136.25313 36.409374 137.03438 35.971874Q137.83125 35.51875 138.20625 34.753124Q138.4875 34.14375 138.4875 32.9875L138.4875 32.346874ZM149.64375 33.753124L151.3625 33.971874Q151.08125 35.76875 149.90938 36.784374Q148.75313 37.784374 147.05 37.784374Q144.925 37.784374 143.62813 36.39375Q142.33125 35.003124 142.33125 32.409374Q142.33125 30.721874 142.87813 29.471874Q143.44063 28.20625 144.58125 27.58125Q145.72188 26.940624 147.06563 26.940624Q148.75313 26.940624 149.81563 27.8Q150.89375 28.659374 151.20625 30.221874L149.4875 30.4875Q149.25313 29.440624 148.62813 28.925Q148.00313 28.39375 147.12813 28.39375Q145.8 28.39375 144.97188 29.346874Q144.14375 30.3 144.14375 32.346874Q144.14375 34.440624 144.94063 35.39375Q145.7375 36.33125 147.03438 36.33125Q148.06563 36.33125 148.75313 35.70625Q149.45625 35.065624 149.64375 33.753124ZM159.64375 33.753124L161.3625 33.971874Q161.08125 35.76875 159.90938 36.784374Q158.75313 37.784374 157.05 37.784374Q154.925 37.784374 153.62813 36.39375Q152.33125 35.003124 152.33125 32.409374Q152.33125 30.721874 152.87813 29.471874Q153.44063 28.20625 154.58125 27.58125Q155.72188 26.940624 157.06563 26.940624Q158.75313 26.940624 159.81563 27.8Q160.89375 28.659374 161.20625 30.221874L159.4875 30.4875Q159.25313 29.440624 158.62813 28.925Q158.00313 28.39375 157.12813 28.39375Q155.8 28.39375 154.97188 29.346874Q154.14375 30.3 154.14375 32.346874Q154.14375 34.440624 154.94063 35.39375Q155.7375 36.33125 157.03438 36.33125Q158.06563 36.33125 158.75313 35.70625Q159.45625 35.065624 159.64375 33.753124ZM169.65938 37.55L169.65938 36.01875Q168.45625 37.784374 166.37813 37.784374Q165.45625 37.784374 164.65938 37.440624Q163.8625 37.08125 163.47188 36.55Q163.09688 36.01875 162.94063 35.2375Q162.83125 34.721874 162.83125 33.596874L162.83125 27.175L164.58125 27.175L164.58125 32.925Q164.58125 34.3 164.69063 34.784374Q164.8625 35.471874 165.39375 35.878124Q165.94063 36.26875 166.72188 36.26875Q167.51875 36.26875 168.20625 35.8625Q168.90938 35.45625 169.19063 34.76875Q169.4875 34.065624 169.4875 32.7375L169.4875 27.175L171.2375 27.175L171.2375 37.55L169.65938 37.55ZM173.84688 37.55L173.84688 27.175L175.425 27.175L175.425 28.753124Q176.03438 27.64375 176.55 27.3Q177.06563 26.940624 177.675 26.940624Q178.56563 26.940624 179.4875 27.503124L178.87813 29.14375Q178.2375 28.753124 177.59688 28.753124Q177.01875 28.753124 176.55 29.1125Q176.09688 29.45625 175.89375 30.065624Q175.6125 31.003124 175.6125 32.1125L175.6125 37.55L173.84688 37.55ZM187.64375 36.26875Q186.65938 37.096874 185.75313 37.440624Q184.84688 37.784374 183.81563 37.784374Q182.1125 37.784374 181.19063 36.95625Q180.26875 36.1125 180.26875 34.815624Q180.26875 34.05 180.6125 33.425Q180.97188 32.8 181.53438 32.425Q182.09688 32.034374 182.8 31.83125Q183.31563 31.70625 184.3625 31.565624Q186.4875 31.315624 187.4875 30.971874Q187.50313 30.6125 187.50313 30.503124Q187.50313 29.440624 187.00313 28.9875Q186.33125 28.39375 185.00313 28.39375Q183.75313 28.39375 183.15938 28.83125Q182.58125 29.26875 182.3 30.378124L180.58125 30.14375Q180.81563 29.034374 181.34688 28.3625Q181.87813 27.675 182.89375 27.315624Q183.90938 26.940624 185.25313 26.940624Q186.58125 26.940624 187.40938 27.253124Q188.2375 27.565624 188.62813 28.05Q189.01875 28.51875 189.175 29.2375Q189.26875 29.690624 189.26875 30.8625L189.26875 33.20625Q189.26875 35.659374 189.37813 36.315624Q189.4875 36.95625 189.83125 37.55L187.9875 37.55Q187.72188 37.003124 187.64375 36.26875ZM187.4875 32.346874Q186.53438 32.7375 184.6125 33.003124Q183.53438 33.159374 183.08125 33.3625Q182.64375 33.55 182.39375 33.925Q182.14375 34.3 182.14375 34.76875Q182.14375 35.471874 182.675 35.940624Q183.20625 36.409374 184.2375 36.409374Q185.25313 36.409374 186.03438 35.971874Q186.83125 35.51875 187.20625 34.753124Q187.4875 34.14375 187.4875 32.9875L187.4875 32.346874ZM198.64375 33.753124L200.3625 33.971874Q200.08125 35.76875 198.90938 36.784374Q197.75313 37.784374 196.05 37.784374Q193.925 37.784374 192.62813 36.39375Q191.33125 35.003124 191.33125 32.409374Q191.33125 30.721874 191.87813 29.471874Q192.44063 28.20625 193.58125 27.58125Q194.72188 26.940624 196.06563 26.940624Q197.75313 26.940624 198.81563 27.8Q199.89375 28.659374 200.20625 30.221874L198.4875 30.4875Q198.25313 29.440624 197.62813 28.925Q197.00313 28.39375 196.12813 28.39375Q194.8 28.39375 193.97188 29.346874Q193.14375 30.3 193.14375 32.346874Q193.14375 34.440624 193.94063 35.39375Q194.7375 36.33125 196.03438 36.33125Q197.06563 36.33125 197.75313 35.70625Q198.45625 35.065624 198.64375 33.753124ZM201.78438 41.55L201.59688 39.89375Q202.175 40.05 202.59688 40.05Q203.19063 40.05 203.53438 39.846874Q203.89375 39.659374 204.1125 39.315624Q204.28438 39.05 204.65938 38.003124Q204.70625 37.846874 204.81563 37.565624L200.87813 27.175L202.76875 27.175L204.925 33.190624Q205.34688 34.33125 205.675 35.58125Q205.9875 34.378124 206.39375 33.221874L208.6125 27.175L210.37813 27.175L206.425 37.721874Q205.8 39.440624 205.44063 40.08125Q204.97188 40.95625 204.3625 41.346874Q203.76875 41.753124 202.925 41.753124Q202.40938 41.753124 201.78438 41.55Z" fill-rule="nonzero"/></svg>