<svg version="1.1" viewBox="0.0 0.0 600.0 371.0" fill="none" stroke="none" stroke-linecap="square" stroke-miterlimit="10" width="600" height="371" xmlns:xlink="http://www.w3.org/1999/xlink" xmlns="http://www.w3.org/2000/svg"><path fill="#ffffff" d="M0 0L600.0 0L600.0 371.0L0 371.0L0 0Z" fill-rule="nonzero"/><path stroke="#cccccc" stroke-width="1.0" stroke-linecap="butt" d="M48.5 88.5L48.5 300.5" fill-rule="nonzero"/><path stroke="#cccccc" stroke-width="1.0" stroke-linecap="butt" d="M181.5 88.5L181.5 300.5" fill-rule="nonzero"/><path stroke="#cccccc" stroke-width="1.0" stroke-linecap="butt" d="M315.5 88.5L315.5 300.5" fill-rule="nonzero"/><path stroke="#cccccc" stroke-width="1.0" stroke-linecap="butt" d="M448.5 88.5L448.5 300.5" fill-rule="nonzero"/><path stroke="#cccccc" stroke-width="1.0" stroke-linecap="butt" d="M581.5 88.5L581.5 300.5" fill-rule="nonzero"/><path stroke="#333333" stroke-width="1.0" stroke-linecap="butt" d="M48.5 300.5L581.5 300.5" fill-rule="nonzero"/><path stroke="#cccccc" stroke-width="1.0" stroke-linecap="butt" d="M48.5 247.5L581.5 247.5" fill-rule="nonzero"/><path stroke="#cccccc" stroke-width="1.0" stroke-linecap="butt" d="M48.5 194.5L581.5 194.5" fill-rule="nonzero"/><path stroke="#cccccc" stroke-width="1.0" stroke-linecap="butt" d="M48.5 141.5L581.5 141.5" fill-rule="nonzero"/><path stroke="#cccccc" stroke-width="1.0" stroke-linecap="butt" d="M48.5 88.5L581.5 88.5" fill-rule="nonzero"/><clipPath id="id_0"><path d="M48.55 88.28333L581.45 88.28333L581.45 300.45L48.55 300.45L48.55 88.28333Z" clip-rule="nonzero"/></clipPath><path stroke="#4285f4" stroke-width="2.0" stroke-linecap="butt" clip-path="url(#id_0)" d="M48.55 215.58333L181.775 173.15L315.0 173.15L448.225 183.75833L581.45 173.15" fill-rule="nonzero"/><path stroke="#ea4335" stroke-width="2.0" stroke-linecap="butt" clip-path="url(#id_0)" d="M48.55 173.15L181.775 109.5L315.0 215.58333L448.225 98.89167L581.45 105.25667" fill-rule="nonzero"/><path fill="#000000" fill-opacity="0.0" clip-path="url(#id_0)" d="M51.55 215.58333C51.55 217.24019 50.206856 218.58333 48.55 218.58333C46.893147 218.58333 45.55 217.24019 45.55 215.58333C45.55 213.92648 46.893147 212.58333 48.55 212.58333C50.206856 212.58333 51.55 213.92648 51.55 215.58333Z" fill-rule="nonzero"/><path fill="#000000" fill-opacity="0.0" clip-path="url(#id_0)" d="M184.775 173.15C184.775 174.80685 183.43185 176.15 181.775 176.15C180.11815 176.15 178.775 174.80685 178.775 173.15C178.775 171.49315 180.11815 170.15 181.775 170.15C183.43185 170.15 184.775 171.49315 184.775 173.15Z" fill-rule="nonzero"/><path fill="#000000" fill-opacity="0.0" clip-path="url(#id_0)" d="M318.0 173.15C318.0 174.80685 316.65686 176.15 315.0 176.15C313.34314 176.15 312.0 174.80685 312.0 173.15C312.0 171.49315 313.34314 170.15 315.0 170.15C316.65686 170.15 318.0 171.49315 318.0 173.15Z" fill-rule="nonzero"/><path fill="#000000" fill-opacity="0.0" clip-path="url(#id_0)" d="M451.225 183.75833C451.225 185.41519 449.88187 186.75833 448.225 186.75833C446.56815 186.75833 445.225 185.41519 445.225 183.75833C445.225 182.10149 446.56815 180.75833 448.225 180.75833C449.88187 180.75833 451.225 182.10149 451.225 183.75833Z" fill-rule="nonzero"/><path fill="#000000" fill-opacity="0.0" clip-path="url(#id_0)" d="M584.45 173.15C584.45 174.80685 583.1069 176.15 581.45 176.15C579.79315 176.15 578.45 174.80685 578.45 173.15C578.45 171.49315 579.79315 170.15 581.45 170.15C583.1069 170.15 584.45 171.49315 584.45 173.15Z" fill-rule="nonzero"/><path fill="#000000" fill-opacity="0.0" clip-path="url(#id_0)" d="M51.55 173.15C51.55 174.80685 50.206856 176.15 48.55 176.15C46.893147 176.15 45.55 174.80685 45.55 173.15C45.55 171.49315 46.893147 170.15 48.55 170.15C50.206856 170.15 51.55 171.49315 51.55 173.15Z" fill-rule="nonzero"/><path fill="#000000" fill-opacity="0.0" clip-path="url(#id_0)" d="M184.775 109.5C184.775 111.15685 183.43185 112.5 181.775 112.5C180.11815 112.5 178.775 111.15685 178.775 109.5C178.775 107.84315 180.11815 106.5 181.775 106.5C183.43185 106.5 184.775 107.84315 184.775 109.5Z" fill-rule="nonzero"/><path fill="#000000" fill-opacity="0.0" clip-path="url(#id_0)" d="M318.0 215.58333C318.0 217.24019 316.65686 218.58333 315.0 218.58333C313.34314 218.58333 312.0 217.24019 312.0 215.58333C312.0 213.92648 313.34314 212.58333 315.0 212.58333C316.65686 212.58333 318.0 213.92648 318.0 215.58333Z" fill-rule="nonzero"/><path fill="#000000" fill-opacity="0.0" clip-path="url(#id_0)" d="M451.225 98.89167C451.225 100.54852 449.88187 101.89167 448.225 101.89167C446.56815 101.89167 445.225 100.54852 445.225 98.89167C445.225 97.23481 446.56815 95.89167 448.225 95.89167C449.88187 95.89167 451.225 97.23481 451.225 98.89167Z" fill-rule="nonzero"/><path fill="#000000" fill-opacity="0.0" clip-path="url(#id_0)" d="M584.45 105.25667C584.45 106.91352 583.1069 108.25667 581.45 108.25667C579.79315 108.25667 578.45 106.91352 578.45 105.25667C578.45 103.599815 579.79315 102.25667 581.45 102.25667C583.1069 102.25667 584.45 103.599815 584.45 105.25667Z" fill-rule="nonzero"/><path fill="#000000" d="M310.79688 349.45L310.79688 343.23126L311.73438 343.23126L311.73438 344.10626Q312.03125 343.6375 312.51562 343.3719Q313.0 343.09064 313.625 343.09064Q314.3125 343.09064 314.75 343.3719Q315.20312 343.65314 315.375 344.16876Q316.125 343.09064 317.29688 343.09064Q318.23438 343.09064 318.71875 343.60626Q319.21875 344.10626 319.21875 345.1844L319.21875 349.45L318.17188 349.45L318.17188 345.52814Q318.17188 344.90314 318.0625 344.6219Q317.96875 344.34064 317.70312 344.16876Q317.4375 343.9969 317.0625 343.9969Q316.40625 343.9969 315.96875 344.4344Q315.54688 344.8719 315.54688 345.84064L315.54688 349.45L314.48438 349.45L314.48438 345.40314Q314.48438 344.7 314.21875 344.35626Q313.96875 343.9969 313.39062 343.9969Q312.9375 343.9969 312.5625 344.23126Q312.1875 344.46564 312.01562 344.91876Q311.84375 345.3719 311.84375 346.21564L311.84375 349.45L310.79688 349.45Z" fill-rule="nonzero"/><path fill="#000000" d="M36.05 300.21564Q36.05 298.6844 36.3625 297.7625Q36.675 296.825 37.284374 296.325Q37.909374 295.825 38.846874 295.825Q39.534374 295.825 40.05 296.10626Q40.58125 296.3875 40.925 296.91876Q41.26875 297.4344 41.45625 298.1844Q41.64375 298.9344 41.64375 300.21564Q41.64375 301.73126 41.33125 302.65314Q41.034374 303.575 40.409374 304.09064Q39.8 304.59064 38.846874 304.59064Q37.6125 304.59064 36.89375 303.7Q36.05 302.6375 36.05 300.21564ZM37.128124 300.21564Q37.128124 302.325 37.628124 303.02814Q38.128124 303.73126 38.846874 303.73126Q39.58125 303.73126 40.065624 303.02814Q40.565624 302.325 40.565624 300.21564Q40.565624 298.09064 40.065624 297.40314Q39.58125 296.7 38.83125 296.7Q38.1125 296.7 37.675 297.3094Q37.128124 298.09064 37.128124 300.21564Z" fill-rule="nonzero"/><path fill="#000000" d="M19.05 247.17397Q19.05 245.64272 19.3625 244.72084Q19.675 243.78334 20.284374 243.28334Q20.909374 242.78334 21.846874 242.78334Q22.534374 242.78334 23.05 243.06459Q23.58125 243.34584 23.925 243.87709Q24.26875 244.39272 24.45625 245.14272Q24.64375 245.89272 24.64375 247.17397Q24.64375 248.68959 24.33125 249.61147Q24.034374 250.53334 23.409374 251.04897Q22.8 251.54897 21.846874 251.54897Q20.6125 251.54897 19.89375 250.65834Q19.05 249.59584 19.05 247.17397ZM20.128124 247.17397Q20.128124 249.28334 20.628124 249.98647Q21.128124 250.68959 21.846874 250.68959Q22.58125 250.68959 23.065624 249.98647Q23.565624 249.28334 23.565624 247.17397Q23.565624 245.04897 23.065624 244.36147Q22.58125 243.65834 21.83125 243.65834Q21.1125 243.65834 20.675 244.26772Q20.128124 245.04897 20.128124 247.17397ZM26.64375 251.40834L26.64375 250.20522L27.846874 250.20522L27.846874 251.40834L26.64375 251.40834ZM34.596874 250.39272L34.596874 251.40834L28.909374 251.40834Q28.909374 251.03334 29.034374 250.67397Q29.253124 250.09584 29.721874 249.53334Q30.20625 248.97084 31.1125 248.23647Q32.51875 247.08022 33.003124 246.40834Q33.503124 245.73647 33.503124 245.14272Q33.503124 244.51772 33.05 244.09584Q32.596874 243.65834 31.878124 243.65834Q31.1125 243.65834 30.659374 244.11147Q30.20625 244.56459 30.190624 245.37709L29.1125 245.26772Q29.221874 244.04897 29.940624 243.42397Q30.675 242.78334 31.909374 242.78334Q33.14375 242.78334 33.8625 243.47084Q34.58125 244.15834 34.58125 245.17397Q34.58125 245.68959 34.3625 246.18959Q34.159374 246.67397 33.659374 247.23647Q33.175 247.78334 32.05 248.73647Q31.096874 249.53334 30.815624 249.83022Q30.55 250.11147 30.378124 250.39272L34.596874 250.39272ZM36.05 249.15834L37.159374 249.06459Q37.284374 249.87709 37.721874 250.28334Q38.175 250.68959 38.815624 250.68959Q39.565624 250.68959 40.096874 250.11147Q40.628124 249.53334 40.628124 248.59584Q40.628124 247.68959 40.1125 247.17397Q39.6125 246.64272 38.784374 246.64272Q38.284374 246.64272 37.8625 246.87709Q37.45625 247.11147 37.221874 247.47084L36.2375 247.34584L37.065624 242.93959L41.346874 242.93959L41.346874 243.93959L37.909374 243.93959L37.45625 246.25209Q38.221874 245.70522 39.065624 245.70522Q40.190624 245.70522 40.95625 246.48647Q41.7375 247.26772 41.7375 248.50209Q41.7375 249.65834 41.065624 250.51772Q40.2375 251.54897 38.815624 251.54897Q37.64375 251.54897 36.89375 250.89272Q36.159374 250.23647 36.05 249.15834Z" fill-rule="nonzero"/><path fill="#000000" d="M26.05 194.1323Q26.05 192.60104 26.3625 191.67917Q26.675 190.74167 27.284374 190.24167Q27.909374 189.74167 28.846874 189.74167Q29.534374 189.74167 30.05 190.02292Q30.58125 190.30417 30.925 190.83542Q31.26875 191.35104 31.45625 192.10104Q31.64375 192.85104 31.64375 194.1323Q31.64375 195.64792 31.33125 196.5698Q31.034374 197.49167 30.409374 198.0073Q29.8 198.5073 28.846874 198.5073Q27.6125 198.5073 26.89375 197.61667Q26.05 196.55417 26.05 194.1323ZM27.128124 194.1323Q27.128124 196.24167 27.628124 196.9448Q28.128124 197.64792 28.846874 197.64792Q29.58125 197.64792 30.065624 196.9448Q30.565624 196.24167 30.565624 194.1323Q30.565624 192.0073 30.065624 191.3198Q29.58125 190.61667 28.83125 190.61667Q28.1125 190.61667 27.675 191.22604Q27.128124 192.0073 27.128124 194.1323ZM33.64375 198.36667L33.64375 197.16354L34.846874 197.16354L34.846874 198.36667L33.64375 198.36667ZM36.05 196.11667L37.159374 196.02292Q37.284374 196.83542 37.721874 197.24167Q38.175 197.64792 38.815624 197.64792Q39.565624 197.64792 40.096874 197.0698Q40.628124 196.49167 40.628124 195.55417Q40.628124 194.64792 40.1125 194.1323Q39.6125 193.60104 38.784374 193.60104Q38.284374 193.60104 37.8625 193.83542Q37.45625 194.0698 37.221874 194.42917L36.2375 194.30417L37.065624 189.89792L41.346874 189.89792L41.346874 190.89792L37.909374 190.89792L37.45625 193.21042Q38.221874 192.66354 39.065624 192.66354Q40.190624 192.66354 40.95625 193.4448Q41.7375 194.22604 41.7375 195.46042Q41.7375 196.61667 41.065624 197.47604Q40.2375 198.5073 38.815624 198.5073Q37.64375 198.5073 36.89375 197.85104Q36.159374 197.1948 36.05 196.11667Z" fill-rule="nonzero"/><path fill="#000000" d="M19.05 141.09062Q19.05 139.55937 19.3625 138.6375Q19.675 137.7 20.284374 137.2Q20.909374 136.7 21.846874 136.7Q22.534374 136.7 23.05 136.98125Q23.58125 137.2625 23.925 137.79375Q24.26875 138.30937 24.45625 139.05937Q24.64375 139.80937 24.64375 141.09062Q24.64375 142.60625 24.33125 143.52812Q24.034374 144.45 23.409374 144.96562Q22.8 145.46562 21.846874 145.46562Q20.6125 145.46562 19.89375 144.575Q19.05 143.5125 19.05 141.09062ZM20.128124 141.09062Q20.128124 143.2 20.628124 143.90312Q21.128124 144.60625 21.846874 144.60625Q22.58125 144.60625 23.065624 143.90312Q23.565624 143.2 23.565624 141.09062Q23.565624 138.96562 23.065624 138.27812Q22.58125 137.575 21.83125 137.575Q21.1125 137.575 20.675 138.18437Q20.128124 138.96562 20.128124 141.09062ZM26.64375 145.325L26.64375 144.12187L27.846874 144.12187L27.846874 145.325L26.64375 145.325ZM29.1125 137.85625L29.1125 136.84062L34.675 136.84062L34.675 137.66875Q33.8625 138.54375 33.05 139.99687Q32.253124 141.43437 31.815624 142.96562Q31.4875 144.04375 31.409374 145.325L30.315624 145.325Q30.33125 144.30937 30.70625 142.87187Q31.096874 141.43437 31.8 140.10625Q32.51875 138.77812 33.33125 137.85625L29.1125 137.85625ZM36.05 143.075L37.159374 142.98125Q37.284374 143.79375 37.721874 144.2Q38.175 144.60625 38.815624 144.60625Q39.565624 144.60625 40.096874 144.02812Q40.628124 143.45 40.628124 142.5125Q40.628124 141.60625 40.1125 141.09062Q39.6125 140.55937 38.784374 140.55937Q38.284374 140.55937 37.8625 140.79375Q37.45625 141.02812 37.221874 141.3875L36.2375 141.2625L37.065624 136.85625L41.346874 136.85625L41.346874 137.85625L37.909374 137.85625L37.45625 140.16875Q38.221874 139.62187 39.065624 139.62187Q40.190624 139.62187 40.95625 140.40312Q41.7375 141.18437 41.7375 142.41875Q41.7375 143.575 41.065624 144.43437Q40.2375 145.46562 38.815624 145.46562Q37.64375 145.46562 36.89375 144.80937Q36.159374 144.15312 36.05 143.075Z" fill-rule="nonzero"/><path fill="#000000" d="M40.01875 92.28333L38.971874 92.28333L38.971874 85.56458Q38.58125 85.92396 37.95625 86.29896Q37.346874 86.65833 36.8625 86.83021L36.8625 85.81458Q37.7375 85.39271 38.39375 84.81458Q39.065624 84.22083 39.346874 83.65833L40.01875 83.65833L40.01875 92.28333Z" fill-rule="nonzero"/><path fill="#000000" d="M45.55 315.2L46.659374 315.10626Q46.784374 315.91876 47.221874 316.325Q47.675 316.73126 48.315624 316.73126Q49.065624 316.73126 49.596874 316.15314Q50.128124 315.575 50.128124 314.6375Q50.128124 313.73126 49.6125 313.21564Q49.1125 312.6844 48.284374 312.6844Q47.784374 312.6844 47.3625 312.91876Q46.95625 313.15314 46.721874 313.5125L45.7375 313.3875L46.565624 308.98126L50.846874 308.98126L50.846874 309.98126L47.409374 309.98126L46.95625 312.29376Q47.721874 311.7469 48.565624 311.7469Q49.690624 311.7469 50.45625 312.52814Q51.2375 313.3094 51.2375 314.54376Q51.2375 315.7 50.565624 316.5594Q49.7375 317.59064 48.315624 317.59064Q47.14375 317.59064 46.39375 316.9344Q45.659374 316.27814 45.55 315.2Z" fill-rule="nonzero"/><path fill="#000000" d="M179.24374 317.45L178.19687 317.45L178.19687 310.73126Q177.80624 311.09064 177.18124 311.46564Q176.57187 311.825 176.0875 311.9969L176.0875 310.98126Q176.9625 310.5594 177.61874 309.98126Q178.29062 309.3875 178.57187 308.825L179.24374 308.825L179.24374 317.45ZM182.275 313.21564Q182.275 311.6844 182.5875 310.7625Q182.9 309.825 183.50937 309.325Q184.13437 308.825 185.07187 308.825Q185.75937 308.825 186.275 309.10626Q186.80624 309.3875 187.15 309.91876Q187.49374 310.4344 187.68124 311.1844Q187.86874 311.9344 187.86874 313.21564Q187.86874 314.73126 187.55624 315.65314Q187.25937 316.575 186.63437 317.09064Q186.025 317.59064 185.07187 317.59064Q183.8375 317.59064 183.11874 316.7Q182.275 315.6375 182.275 313.21564ZM183.35312 313.21564Q183.35312 315.325 183.85312 316.02814Q184.35312 316.73126 185.07187 316.73126Q185.80624 316.73126 186.29062 316.02814Q186.79062 315.325 186.79062 313.21564Q186.79062 311.09064 186.29062 310.40314Q185.80624 309.7 185.05624 309.7Q184.3375 309.7 183.9 310.3094Q183.35312 311.09064 183.35312 313.21564Z" fill-rule="nonzero"/><path fill="#000000" d="M312.46875 317.45L311.42188 317.45L311.42188 310.73126Q311.03125 311.09064 310.40625 311.46564Q309.79688 311.825 309.3125 311.9969L309.3125 310.98126Q310.1875 310.5594 310.84375 309.98126Q311.51562 309.3875 311.79688 308.825L312.46875 308.825L312.46875 317.45ZM315.5 315.2L316.60938 315.10626Q316.73438 315.91876 317.17188 316.325Q317.625 316.73126 318.26562 316.73126Q319.01562 316.73126 319.54688 316.15314Q320.07812 315.575 320.07812 314.6375Q320.07812 313.73126 319.5625 313.21564Q319.0625 312.6844 318.23438 312.6844Q317.73438 312.6844 317.3125 312.91876Q316.90625 313.15314 316.67188 313.5125L315.6875 313.3875L316.51562 308.98126L320.79688 308.98126L320.79688 309.98126L317.35938 309.98126L316.90625 312.29376Q317.67188 311.7469 318.51562 311.7469Q319.64062 311.7469 320.40625 312.52814Q321.1875 313.3094 321.1875 314.54376Q321.1875 315.7 320.51562 316.5594Q319.6875 317.59064 318.26562 317.59064Q317.09375 317.59064 316.34375 316.9344Q315.60938 316.27814 315.5 315.2Z" fill-rule="nonzero"/><path fill="#000000" d="M447.27188 316.4344L447.27188 317.45L441.58438 317.45Q441.58438 317.075 441.70938 316.71564Q441.92813 316.1375 442.39688 315.575Q442.88126 315.0125 443.7875 314.27814Q445.19376 313.1219 445.67813 312.45Q446.17813 311.77814 446.17813 311.1844Q446.17813 310.5594 445.725 310.1375Q445.27188 309.7 444.55313 309.7Q443.7875 309.7 443.33438 310.15314Q442.88126 310.60626 442.86563 311.41876L441.7875 311.3094Q441.89688 310.09064 442.61563 309.46564Q443.35 308.825 444.58438 308.825Q445.81876 308.825 446.5375 309.5125Q447.25626 310.2 447.25626 311.21564Q447.25626 311.73126 447.0375 312.23126Q446.83438 312.71564 446.33438 313.27814Q445.85 313.825 444.725 314.77814Q443.77188 315.575 443.49063 315.8719Q443.225 316.15314 443.05313 316.4344L447.27188 316.4344ZM448.725 313.21564Q448.725 311.6844 449.0375 310.7625Q449.35 309.825 449.95938 309.325Q450.58438 308.825 451.52188 308.825Q452.20938 308.825 452.725 309.10626Q453.25626 309.3875 453.6 309.91876Q453.94376 310.4344 454.13126 311.1844Q454.31876 311.9344 454.31876 313.21564Q454.31876 314.73126 454.00626 315.65314Q453.70938 316.575 453.08438 317.09064Q452.475 317.59064 451.52188 317.59064Q450.2875 317.59064 449.56876 316.7Q448.725 315.6375 448.725 313.21564ZM449.80313 313.21564Q449.80313 315.325 450.30313 316.02814Q450.80313 316.73126 451.52188 316.73126Q452.25626 316.73126 452.74063 316.02814Q453.24063 315.325 453.24063 313.21564Q453.24063 311.09064 452.74063 310.40314Q452.25626 309.7 451.50626 309.7Q450.7875 309.7 450.35 310.3094Q449.80313 311.09064 449.80313 313.21564Z" fill-rule="nonzero"/><path fill="#000000" d="M580.4969 316.4344L580.4969 317.45L574.8094 317.45Q574.8094 317.075 574.9344 316.71564Q575.15314 316.1375 575.6219 315.575Q576.10626 315.0125 577.0125 314.27814Q578.41876 313.1219 578.90314 312.45Q579.40314 311.77814 579.40314 311.1844Q579.40314 310.5594 578.95 310.1375Q578.4969 309.7 577.77814 309.7Q577.0125 309.7 576.5594 310.15314Q576.10626 310.60626 576.09064 311.41876L575.0125 311.3094Q575.1219 310.09064 575.84064 309.46564Q576.575 308.825 577.8094 308.825Q579.04376 308.825 579.7625 309.5125Q580.48126 310.2 580.48126 311.21564Q580.48126 311.73126 580.2625 312.23126Q580.0594 312.71564 579.5594 313.27814Q579.075 313.825 577.95 314.77814Q576.9969 315.575 576.71564 315.8719Q576.45 316.15314 576.27814 316.4344L580.4969 316.4344ZM581.95 315.2L583.0594 315.10626Q583.1844 315.91876 583.6219 316.325Q584.075 316.73126 584.71564 316.73126Q585.46564 316.73126 585.9969 316.15314Q586.52814 315.575 586.52814 314.6375Q586.52814 313.73126 586.0125 313.21564Q585.5125 312.6844 584.6844 312.6844Q584.1844 312.6844 583.7625 312.91876Q583.35626 313.15314 583.1219 313.5125L582.1375 313.3875L582.96564 308.98126L587.2469 308.98126L587.2469 309.98126L583.8094 309.98126L583.35626 312.29376Q584.1219 311.7469 584.96564 311.7469Q586.09064 311.7469 586.85626 312.52814Q587.6375 313.3094 587.6375 314.54376Q587.6375 315.7 586.96564 316.5594Q586.1375 317.59064 584.71564 317.59064Q583.54376 317.59064 582.79376 316.9344Q582.0594 316.27814 581.95 315.2Z" fill-rule="nonzero"/><path stroke="#4285f4" stroke-width="4.0" stroke-linecap="butt" d="M250.5 61.916668L262.5 61.916668" fill-rule="nonzero"/><path fill="#1a1a1a" d="M273.59375 64.979164L273.75 65.90104Q273.29688 65.99479 272.95312 65.99479Q272.375 65.99479 272.0625 65.822914Q271.75 65.635414 271.60938 65.33854Q271.48438 65.041664 271.48438 64.08854L271.48438 60.510414L270.71875 60.510414L270.71875 59.697914L271.48438 59.697914L271.48438 58.15104L272.53125 57.52604L272.53125 59.697914L273.59375 59.697914L273.59375 60.510414L272.53125 60.510414L272.53125 64.15104Q272.53125 64.604164 272.57812 64.729164Q272.64062 64.854164 272.76562 64.93229Q272.89062 65.010414 273.125 65.010414Q273.3125 65.010414 273.59375 64.979164ZM278.54688 63.916664L279.64062 64.041664Q279.39062 64.99479 278.6875 65.52604Q277.98438 66.05729 276.90625 66.05729Q275.54688 66.05729 274.73438 65.21354Q273.9375 64.36979 273.9375 62.854164Q273.9375 61.291664 274.75 60.43229Q275.5625 59.55729 276.84375 59.55729Q278.09375 59.55729 278.875 60.40104Q279.67188 61.24479 279.67188 62.791664Q279.67188 62.885414 279.67188 63.072914L275.03125 63.072914Q275.09375 64.104164 275.60938 64.65104Q276.125 65.18229 276.90625 65.18229Q277.48438 65.18229 277.89062 64.885414Q278.3125 64.572914 278.54688 63.916664ZM275.09375 62.21354L278.5625 62.21354Q278.5 61.416664 278.17188 61.02604Q277.65625 60.416664 276.85938 60.416664Q276.125 60.416664 275.625 60.90104Q275.14062 61.385414 275.09375 62.21354ZM280.875 64.05729L281.90625 63.90104Q282.0 64.52604 282.39062 64.854164Q282.79688 65.18229 283.53125 65.18229Q284.25 65.18229 284.59375 64.90104Q284.95312 64.604164 284.95312 64.197914Q284.95312 63.83854 284.64062 63.635414Q284.42188 63.49479 283.5625 63.27604Q282.40625 62.979164 281.95312 62.77604Q281.51562 62.55729 281.28125 62.18229Q281.04688 61.80729 281.04688 61.33854Q281.04688 60.93229 281.23438 60.572914Q281.42188 60.21354 281.75 59.979164Q282.0 59.80729 282.42188 59.68229Q282.84375 59.55729 283.34375 59.55729Q284.0625 59.55729 284.60938 59.77604Q285.17188 59.979164 285.4375 60.33854Q285.70312 60.697914 285.79688 61.291664L284.76562 61.43229Q284.70312 60.96354 284.35938 60.697914Q284.03125 60.416664 283.40625 60.416664Q282.6875 60.416664 282.375 60.666664Q282.0625 60.90104 282.0625 61.229164Q282.0625 61.43229 282.1875 61.58854Q282.32812 61.760414 282.59375 61.86979Q282.75 61.93229 283.53125 62.135414Q284.65625 62.447914 285.09375 62.635414Q285.53125 62.822914 285.78125 63.18229Q286.03125 63.541664 286.03125 64.08854Q286.03125 64.61979 285.71875 65.08854Q285.42188 65.541664 284.84375 65.80729Q284.26562 66.05729 283.53125 66.05729Q282.3125 66.05729 281.67188 65.55729Q281.04688 65.041664 280.875 64.05729ZM289.59375 64.979164L289.75 65.90104Q289.29688 65.99479 288.95312 65.99479Q288.375 65.99479 288.0625 65.822914Q287.75 65.635414 287.60938 65.33854Q287.48438 65.041664 287.48438 64.08854L287.48438 60.510414L286.71875 60.510414L286.71875 59.697914L287.48438 59.697914L287.48438 58.15104L288.53125 57.52604L288.53125 59.697914L289.59375 59.697914L289.59375 60.510414L288.53125 60.510414L288.53125 64.15104Q288.53125 64.604164 288.57812 64.729164Q288.64062 64.854164 288.76562 64.93229Q288.89062 65.010414 289.125 65.010414Q289.3125 65.010414 289.59375 64.979164Z" fill-rule="nonzero"/><path stroke="#ea4335" stroke-width="4.0" stroke-linecap="butt" d="M305.5 61.916668L317.5 61.916668" fill-rule="nonzero"/><path fill="#1a1a1a" d="M328.59375 64.979164L328.75 65.90104Q328.29688 65.99479 327.95312 65.99479Q327.375 65.99479 327.0625 65.822914Q326.75 65.635414 326.60938 65.33854Q326.48438 65.041664 326.48438 64.08854L326.48438 60.510414L325.71875 60.510414L325.71875 59.697914L326.48438 59.697914L326.48438 58.15104L327.53125 57.52604L327.53125 59.697914L328.59375 59.697914L328.59375 60.510414L327.53125 60.510414L327.53125 64.15104Q327.53125 64.604164 327.57812 64.729164Q327.64062 64.854164 327.76562 64.93229Q327.89062 65.010414 328.125 65.010414Q328.3125 65.010414 328.59375 64.979164ZM329.28125 65.916664L329.28125 59.697914L330.23438 59.697914L330.23438 60.635414Q330.59375 59.979164 330.89062 59.77604Q331.20312 59.55729 331.57812 59.55729Q332.10938 59.55729 332.65625 59.885414L332.29688 60.86979Q331.90625 60.635414 331.53125 60.635414Q331.17188 60.635414 330.89062 60.854164Q330.625 61.05729 330.51562 61.43229Q330.32812 61.99479 330.32812 62.65104L330.32812 65.916664L329.28125 65.916664ZM337.35938 65.15104Q336.76562 65.65104 336.21875 65.854164Q335.6875 66.05729 335.0625 66.05729Q334.03125 66.05729 333.48438 65.55729Q332.9375 65.05729 332.9375 64.27604Q332.9375 63.822914 333.14062 63.447914Q333.34375 63.05729 333.6875 62.83854Q334.03125 62.604164 334.45312 62.49479Q334.75 62.40104 335.39062 62.322914Q336.65625 62.18229 337.26562 61.96354Q337.26562 61.74479 337.26562 61.697914Q337.26562 61.041664 336.96875 60.77604Q336.5625 60.43229 335.76562 60.43229Q335.03125 60.43229 334.67188 60.697914Q334.3125 60.947914 334.14062 61.604164L333.10938 61.46354Q333.25 60.80729 333.57812 60.40104Q333.90625 59.99479 334.51562 59.77604Q335.125 59.55729 335.92188 59.55729Q336.71875 59.55729 337.21875 59.74479Q337.71875 59.93229 337.95312 60.21354Q338.1875 60.49479 338.28125 60.93229Q338.32812 61.197914 338.32812 61.90104L338.32812 63.30729Q338.32812 64.77604 338.39062 65.166664Q338.46875 65.55729 338.67188 65.916664L337.5625 65.916664Q337.40625 65.58854 337.35938 65.15104ZM337.26562 62.791664Q336.6875 63.02604 335.54688 63.197914Q334.89062 63.291664 334.625 63.416664Q334.35938 63.52604 334.20312 63.74479Q334.0625 63.96354 334.0625 64.24479Q334.0625 64.666664 334.375 64.947914Q334.70312 65.229164 335.3125 65.229164Q335.92188 65.229164 336.39062 64.96354Q336.875 64.697914 337.09375 64.229164Q337.26562 63.86979 337.26562 63.18229L337.26562 62.791664ZM340.29688 58.541664L340.29688 57.322914L341.35938 57.322914L341.35938 58.541664L340.29688 58.541664ZM340.29688 65.916664L340.29688 59.697914L341.35938 59.697914L341.35938 65.916664L340.29688 65.916664ZM343.29688 65.916664L343.29688 59.697914L344.23438 59.697914L344.23438 60.572914Q344.92188 59.55729 346.21875 59.55729Q346.78125 59.55729 347.25 59.760414Q347.73438 59.96354 347.96875 60.291664Q348.20312 60.61979 348.29688 61.05729Q348.34375 61.354164 348.34375 62.08854L348.34375 65.916664L347.29688 65.916664L347.29688 62.135414Q347.29688 61.479164 347.17188 61.166664Q347.04688 60.854164 346.73438 60.666664Q346.42188 60.46354 346.0 60.46354Q345.32812 60.46354 344.82812 60.90104Q344.34375 61.322914 344.34375 62.510414L344.34375 65.916664L343.29688 65.916664Z" fill-rule="nonzero"/><path fill="#757575" d="M19.878124 37.55L19.878124 23.2375L21.64375 23.2375L21.64375 31.39375L25.8 27.175L28.065624 27.175L24.1125 31.01875L28.471874 37.55L26.3 37.55L22.878124 32.253124L21.64375 33.440624L21.64375 37.55L19.878124 37.55ZM29.8625 37.55L29.8625 27.175L31.45625 27.175L31.45625 28.659374Q32.596874 26.940624 34.753124 26.940624Q35.690624 26.940624 36.471874 27.284374Q37.26875 27.6125 37.659374 28.159374Q38.05 28.70625 38.20625 29.45625Q38.3 29.95625 38.3 31.175L38.3 37.55L36.534374 37.55L36.534374 31.2375Q36.534374 30.159374 36.33125 29.628124Q36.128124 29.096874 35.596874 28.784374Q35.08125 28.471874 34.378124 28.471874Q33.253124 28.471874 32.440624 29.190624Q31.628124 29.89375 31.628124 31.878124L31.628124 37.55L29.8625 37.55ZM40.8625 37.55L40.8625 27.175L42.45625 27.175L42.45625 28.659374Q43.596874 26.940624 45.753124 26.940624Q46.690624 26.940624 47.471874 27.284374Q48.26875 27.6125 48.659374 28.159374Q49.05 28.70625 49.20625 29.45625Q49.3 29.95625 49.3 31.175L49.3 37.55L47.534374 37.55L47.534374 31.2375Q47.534374 30.159374 47.33125 29.628124Q47.128124 29.096874 46.596874 28.784374Q46.08125 28.471874 45.378124 28.471874Q44.253124 28.471874 43.440624 29.190624Q42.628124 29.89375 42.628124 31.878124L42.628124 37.55L40.8625 37.55Z" fill-rule="nonzero"/></svg>